<svg data-bbox="20 20 159.999 160" viewBox="0 0 200 200" height="200" width="200" xmlns="http://www.w3.org/2000/svg" data-type="color">
    <g>
        <path d="M97.648 102.445l64.498 43.182C147.743 167.089 123.516 180 97.648 180 55.052 180 20 144.991 20 102.446a77.496 77.496 0 0 1 13.443-43.615l64.205 43.614z" fill="#E48A75" data-color="1"/>
        <path d="M99.17 103.358l34.399 23.03A41.46 41.46 0 0 1 99.17 144.72c-22.718 0-41.413-18.672-41.413-41.362a41.33 41.33 0 0 1 7.169-23.261c.001-.001 34.244 23.261 34.244 23.261z" fill="#9D5848" data-color="2"/>
        <path d="M67.246 73.958c13.335-18.469 39.015-23.163 58.036-10.327s24.242 38.384 12.062 57.633l29.329 19.793c24.025-35.513 14.676-83.753-20.88-107.748S61.939 18.652 37.917 54.165l29.329 19.793z" fill="#293D5B" data-color="3"/>
    </g>
</svg>
