<?xml version="1.0" encoding="utf-8"?>
<!-- Generator: Adobe Illustrator 16.0.0, SVG Export Plug-In . SVG Version: 6.00 Build 0)  -->
<!DOCTYPE svg PUBLIC "-//W3C//DTD SVG 1.1//EN" "http://www.w3.org/Graphics/SVG/1.1/DTD/svg11.dtd">
<svg version="1.1" xmlns="http://www.w3.org/2000/svg" xmlns:xlink="http://www.w3.org/1999/xlink" x="0px" y="0px" width="750px"
	 height="500px" viewBox="0 0 750 500" enable-background="new 0 0 750 500" xml:space="preserve">
<g id="BACKGROUND">
</g>
<g id="OBJECTS">
	<g>
		<defs>
			<rect id="SVGID_1_" width="750" height="500"/>
		</defs>
		<clipPath id="SVGID_2_">
			<use xlink:href="#SVGID_1_"  overflow="visible"/>
		</clipPath>
		<g clip-path="url(#SVGID_2_)">
			<path fill="none" stroke="#8F9294" stroke-width="1.0782" stroke-miterlimit="10" d="M92.563-75.199L-45.679,63.043
				c0.64,3.953,1.47,7.84,2.484,11.654L104.217-72.715C100.403-73.729,96.516-74.559,92.563-75.199z"/>
			<path fill="none" stroke="#8F9294" stroke-width="1.0782" stroke-miterlimit="10" d="M104.217-72.715L-43.195,74.697
				c0.971,3.651,2.099,7.237,3.396,10.743L114.96-69.319C111.454-70.616,107.868-71.743,104.217-72.715z"/>
			<path fill="none" stroke="#8F9294" stroke-width="1.0782" stroke-miterlimit="10" d="M150.688-48.491l-169.659,169.66
				c2.15,2.554,4.394,5.027,6.746,7.393L158.081-41.745C155.715-44.097,153.242-46.341,150.688-48.491z"/>
			<path fill="none" stroke="#8F9294" stroke-width="1.0782" stroke-miterlimit="10" d="M142.706-54.647L-25.128,113.186
				c1.946,2.746,3.993,5.413,6.157,7.982l169.659-169.66C148.119-50.654,145.452-52.702,142.706-54.647z"/>
			<path fill="none" stroke="#8F9294" stroke-width="1.0782" stroke-miterlimit="10" d="M124.9-65.12L-35.6,95.38
				c1.503,3.156,3.154,6.226,4.917,9.223L134.123-60.204C131.125-61.966,128.056-63.617,124.9-65.12z"/>
			<path fill="none" stroke="#8F9294" stroke-width="1.0782" stroke-miterlimit="10" d="M134.123-60.204L-30.684,104.603
				c1.731,2.945,3.588,5.805,5.556,8.583L142.706-54.647C139.928-56.616,137.068-58.472,134.123-60.204z"/>
			<path fill="none" stroke="#8F9294" stroke-width="1.0782" stroke-miterlimit="10" d="M114.96-69.319L-39.799,85.44
				c1.253,3.388,2.657,6.703,4.199,9.94l160.5-160.5C121.663-66.662,118.349-68.065,114.96-69.319z"/>
			<path fill="none" stroke="#8F9294" stroke-width="1.0782" stroke-miterlimit="10" d="M-38.97-0.223l68.267-68.267
				C-1.905-56.27-26.75-31.425-38.97-0.223z"/>
			<path fill="none" stroke="#8F9294" stroke-width="1.0782" stroke-miterlimit="10" d="M29.297-68.489L-38.97-0.223
				c-2.521,6.438-4.526,13.133-5.916,20.055l94.237-94.237C42.43-73.016,35.735-71.01,29.297-68.489z"/>
			<path fill="none" stroke="#8F9294" stroke-width="1.0782" stroke-miterlimit="10" d="M79.808-76.583L-47.063,50.288
				c0.234,4.317,0.707,8.57,1.384,12.755L92.563-75.199C88.378-75.876,84.125-76.349,79.808-76.583z"/>
			<path fill="none" stroke="#8F9294" stroke-width="1.0782" stroke-miterlimit="10" d="M73.18-76.772
				c-2.55,0-5.074,0.106-7.584,0.262L-46.991,36.077c-0.156,2.51-0.262,5.034-0.262,7.584c0,2.225,0.07,4.433,0.189,6.627
				L79.808-76.583C77.613-76.703,75.405-76.772,73.18-76.772z"/>
			<path fill="none" stroke="#8F9294" stroke-width="1.0782" stroke-miterlimit="10" d="M49.352-74.405l-94.237,94.237
				c-1.063,5.296-1.762,10.722-2.105,16.245L65.596-76.511C60.074-76.167,54.648-75.468,49.352-74.405z"/>
			<path fill="none" stroke="#8F9294" stroke-width="1.0782" stroke-miterlimit="10" d="M191.887,23.421L52.941,162.367
				c4.157,0.704,8.383,1.2,12.673,1.466L193.353,36.095C193.087,31.804,192.591,27.579,191.887,23.421z"/>
			<path fill="none" stroke="#8F9294" stroke-width="1.0782" stroke-miterlimit="10" d="M193.614,43.661
				c0-2.544-0.105-5.062-0.261-7.566L65.614,163.833c2.504,0.156,5.022,0.261,7.566,0.261c2.178,0,4.341-0.065,6.491-0.179
				L193.435,50.152C193.549,48.002,193.614,45.839,193.614,43.661z"/>
			<path fill="none" stroke="#8F9294" stroke-width="1.0782" stroke-miterlimit="10" d="M193.435,50.152L79.671,163.915
				c5.477-0.291,10.849-0.97,16.108-1.969l95.687-95.686C192.464,61,193.144,55.629,193.435,50.152z"/>
			<path fill="none" stroke="#8F9294" stroke-width="1.0782" stroke-miterlimit="10" d="M191.466,66.26l-95.687,95.686
				c6.755-1.283,13.313-3.117,19.617-5.478l70.592-70.591C188.348,79.572,190.183,73.015,191.466,66.26z"/>
			<path fill="none" stroke="#8F9294" stroke-width="1.0782" stroke-miterlimit="10" d="M185.988,85.876l-70.592,70.591
				C147.943,144.282,173.801,118.424,185.988,85.876z"/>
			<path fill="none" stroke="#8F9294" stroke-width="1.0782" stroke-miterlimit="10" d="M189.332,11.837L41.357,159.813
				c3.791,1.036,7.654,1.889,11.584,2.555L191.887,23.421C191.222,19.492,190.369,15.628,189.332,11.837z"/>
			<path fill="none" stroke="#8F9294" stroke-width="1.0782" stroke-miterlimit="10" d="M171.069-26.455L3.065,141.549
				c2.762,1.982,5.602,3.86,8.532,5.607L176.676-17.923C174.929-20.853,173.051-23.693,171.069-26.455z"/>
			<path fill="none" stroke="#8F9294" stroke-width="1.0782" stroke-miterlimit="10" d="M164.863-34.388L-4.869,135.344
				c2.555,2.177,5.201,4.245,7.934,6.205L171.069-26.455C169.108-29.187,167.04-31.834,164.863-34.388z"/>
			<path fill="none" stroke="#8F9294" stroke-width="1.0782" stroke-miterlimit="10" d="M185.874,1.157L30.676,156.354
				c3.485,1.315,7.05,2.465,10.681,3.458L189.332,11.837C188.34,8.207,187.189,4.642,185.874,1.157z"/>
			<path fill="none" stroke="#8F9294" stroke-width="1.0782" stroke-miterlimit="10" d="M158.081-41.745L-12.226,128.562
				c2.352,2.366,4.816,4.617,7.357,6.782L164.863-34.388C162.698-36.929,160.447-39.393,158.081-41.745z"/>
			<path fill="none" stroke="#8F9294" stroke-width="1.0782" stroke-miterlimit="10" d="M181.638-8.747L20.773,152.119
				c3.221,1.559,6.53,2.963,9.903,4.236L185.874,1.157C184.601-2.217,183.197-5.525,181.638-8.747z"/>
			<path fill="none" stroke="#8F9294" stroke-width="1.0782" stroke-miterlimit="10" d="M176.676-17.923L11.597,147.156
				c2.981,1.777,6.037,3.442,9.177,4.962L181.638-8.747C180.118-11.887,178.454-14.942,176.676-17.923z"/>
		</g>
		<polygon clip-path="url(#SVGID_2_)" fill="#FDFDFD" points="91.227,130.027 85.162,123.963 76.319,132.807 67.476,123.963 
			61.412,130.027 70.255,138.871 61.412,147.714 67.476,153.778 76.319,144.935 85.162,153.778 91.227,147.714 82.383,138.871 		"/>
		<polygon clip-path="url(#SVGID_2_)" fill="#FF2C2C" points="600.907,307.094 594.843,301.029 586,309.873 577.156,301.029 
			571.092,307.094 579.936,315.937 571.092,324.779 577.156,330.844 586,322 594.843,330.844 600.907,324.779 592.063,315.937 		"/>
		<polygon clip-path="url(#SVGID_2_)" fill="#FF2C2C" points="91.227,185.284 85.162,179.22 76.319,188.063 67.476,179.22 
			61.412,185.284 70.255,194.127 61.412,202.97 67.476,209.034 76.319,200.191 85.162,209.034 91.227,202.97 82.383,194.127 		"/>
		<polygon clip-path="url(#SVGID_2_)" fill="#FDFDFD" points="91.227,240.54 85.162,234.476 76.319,243.319 67.476,234.476 
			61.412,240.54 70.255,249.383 61.412,258.227 67.476,264.291 76.319,255.447 85.162,264.291 91.227,258.227 82.383,249.383 		"/>
		<path clip-path="url(#SVGID_2_)" fill="#FDFDFD" d="M225.333,383.021c-78.013,0-141.255,63.242-141.255,141.255
			c0,78.014,63.242,141.256,141.255,141.256s141.255-63.242,141.255-141.256C366.588,446.264,303.346,383.021,225.333,383.021z
			 M225.333,637.297c-62.419,0-113.02-50.601-113.02-113.021c0-62.419,50.601-113.02,113.02-113.02s113.02,50.601,113.02,113.02
			C338.353,586.696,287.752,637.297,225.333,637.297z"/>
		<g clip-path="url(#SVGID_2_)">
			<g>
				
					<rect x="219.353" y="319.541" fill="none" stroke="#8F9294" stroke-width="1.0782" stroke-miterlimit="10" width="3.969" height="3.97"/>
				
					<rect x="249.688" y="319.541" fill="none" stroke="#8F9294" stroke-width="1.0782" stroke-miterlimit="10" width="3.969" height="3.97"/>
				
					<rect x="280.024" y="319.541" fill="none" stroke="#8F9294" stroke-width="1.0782" stroke-miterlimit="10" width="3.969" height="3.97"/>
				
					<rect x="310.36" y="319.541" fill="none" stroke="#8F9294" stroke-width="1.0782" stroke-miterlimit="10" width="3.969" height="3.97"/>
				
					<rect x="340.695" y="319.541" fill="none" stroke="#8F9294" stroke-width="1.0782" stroke-miterlimit="10" width="3.969" height="3.97"/>
				
					<rect x="371.031" y="319.541" fill="none" stroke="#8F9294" stroke-width="1.0782" stroke-miterlimit="10" width="3.969" height="3.97"/>
			</g>
			<g>
				
					<rect x="219.353" y="341.655" fill="none" stroke="#8F9294" stroke-width="1.0782" stroke-miterlimit="10" width="3.969" height="3.969"/>
				
					<rect x="249.688" y="341.655" fill="none" stroke="#FF2C2C" stroke-width="1.0782" stroke-miterlimit="10" width="3.969" height="3.969"/>
				
					<rect x="280.024" y="341.655" fill="none" stroke="#8F9294" stroke-width="1.0782" stroke-miterlimit="10" width="3.969" height="3.969"/>
				
					<rect x="310.36" y="341.655" fill="none" stroke="#8F9294" stroke-width="1.0782" stroke-miterlimit="10" width="3.969" height="3.969"/>
				
					<rect x="340.695" y="341.655" fill="none" stroke="#8F9294" stroke-width="1.0782" stroke-miterlimit="10" width="3.969" height="3.969"/>
				
					<rect x="371.031" y="341.655" fill="none" stroke="#8F9294" stroke-width="1.0782" stroke-miterlimit="10" width="3.969" height="3.969"/>
			</g>
			<g>
				
					<rect x="219.353" y="363.769" fill="none" stroke="#8F9294" stroke-width="1.0782" stroke-miterlimit="10" width="3.969" height="3.97"/>
				
					<rect x="249.688" y="363.769" fill="none" stroke="#8F9294" stroke-width="1.0782" stroke-miterlimit="10" width="3.969" height="3.97"/>
				
					<rect x="280.024" y="363.769" fill="none" stroke="#8F9294" stroke-width="1.0782" stroke-miterlimit="10" width="3.969" height="3.97"/>
				
					<rect x="310.36" y="363.769" fill="none" stroke="#FF2C2C" stroke-width="1.0782" stroke-miterlimit="10" width="3.969" height="3.97"/>
				
					<rect x="340.695" y="363.769" fill="none" stroke="#8F9294" stroke-width="1.0782" stroke-miterlimit="10" width="3.969" height="3.97"/>
				
					<rect x="371.031" y="363.769" fill="none" stroke="#8F9294" stroke-width="1.0782" stroke-miterlimit="10" width="3.969" height="3.97"/>
			</g>
			<g>
				
					<rect x="219.353" y="385.883" fill="none" stroke="#8F9294" stroke-width="1.0782" stroke-miterlimit="10" width="3.969" height="3.969"/>
				
					<rect x="249.688" y="385.883" fill="none" stroke="#8F9294" stroke-width="1.0782" stroke-miterlimit="10" width="3.969" height="3.969"/>
				
					<rect x="280.024" y="385.883" fill="none" stroke="#8F9294" stroke-width="1.0782" stroke-miterlimit="10" width="3.969" height="3.969"/>
				
					<rect x="310.36" y="385.883" fill="none" stroke="#8F9294" stroke-width="1.0782" stroke-miterlimit="10" width="3.969" height="3.969"/>
				
					<rect x="340.695" y="385.883" fill="none" stroke="#8F9294" stroke-width="1.0782" stroke-miterlimit="10" width="3.969" height="3.969"/>
				
					<rect x="371.031" y="385.883" fill="none" stroke="#8F9294" stroke-width="1.0782" stroke-miterlimit="10" width="3.969" height="3.969"/>
			</g>
			<g>
				
					<rect x="219.353" y="407.996" fill="none" stroke="#8F9294" stroke-width="1.0782" stroke-miterlimit="10" width="3.969" height="3.97"/>
				<rect x="249.688" y="407.996" fill="#0F1027" width="3.969" height="3.97"/>
				<rect x="280.024" y="407.996" fill="#0F1027" width="3.969" height="3.97"/>
				
					<rect x="310.36" y="407.996" fill="none" stroke="#8F9294" stroke-width="1.0782" stroke-miterlimit="10" width="3.969" height="3.97"/>
				
					<rect x="340.695" y="407.996" fill="none" stroke="#FF2C2C" stroke-width="1.0782" stroke-miterlimit="10" width="3.969" height="3.97"/>
				
					<rect x="371.031" y="407.996" fill="none" stroke="#8F9294" stroke-width="1.0782" stroke-miterlimit="10" width="3.969" height="3.97"/>
			</g>
			<g>
				
					<rect x="219.353" y="430.11" fill="none" stroke="#8F9294" stroke-width="1.0782" stroke-miterlimit="10" width="3.969" height="3.969"/>
				
					<rect x="249.688" y="430.11" fill="none" stroke="#8F9294" stroke-width="1.0782" stroke-miterlimit="10" width="3.969" height="3.969"/>
				
					<rect x="280.024" y="430.11" fill="none" stroke="#8F9294" stroke-width="1.0782" stroke-miterlimit="10" width="3.969" height="3.969"/>
				<rect x="310.36" y="430.11" fill="#0F1027" width="3.969" height="3.969"/>
				
					<rect x="340.695" y="430.11" fill="none" stroke="#8F9294" stroke-width="1.0782" stroke-miterlimit="10" width="3.969" height="3.969"/>
				
					<rect x="371.031" y="430.11" fill="none" stroke="#8F9294" stroke-width="1.0782" stroke-miterlimit="10" width="3.969" height="3.969"/>
			</g>
			<g>
				
					<rect x="219.353" y="452.224" fill="none" stroke="#8F9294" stroke-width="1.0782" stroke-miterlimit="10" width="3.969" height="3.97"/>
				
					<rect x="249.688" y="452.224" fill="none" stroke="#8F9294" stroke-width="1.0782" stroke-miterlimit="10" width="3.969" height="3.97"/>
				
					<rect x="280.024" y="452.224" fill="none" stroke="#8F9294" stroke-width="1.0782" stroke-miterlimit="10" width="3.969" height="3.97"/>
				
					<rect x="310.36" y="452.224" fill="none" stroke="#8F9294" stroke-width="1.0782" stroke-miterlimit="10" width="3.969" height="3.97"/>
				<rect x="340.695" y="452.224" fill="#0F1027" width="3.969" height="3.97"/>
				
					<rect x="371.031" y="452.224" fill="none" stroke="#8F9294" stroke-width="1.0782" stroke-miterlimit="10" width="3.969" height="3.97"/>
			</g>
		</g>
		<g clip-path="url(#SVGID_2_)">
			<path fill="none" stroke="#8F9294" stroke-width="2" stroke-miterlimit="10" d="M106.912,321.472l-212.071,212.07
				c-7.236,7.236-18.968,7.236-26.205,0l0,0c-7.236-7.236-7.236-18.968,0-26.204L80.708,295.267c7.236-7.236,18.969-7.236,26.205,0
				l0,0C114.148,302.503,114.148,314.235,106.912,321.472z"/>
			<path fill="none" stroke="#8F9294" stroke-width="2" stroke-miterlimit="10" d="M94.001,412.306L-67.87,574.177
				c-5.523,5.523-14.479,5.523-20.001,0l0,0c-5.523-5.523-5.523-14.479,0-20.002L74,392.305c5.523-5.523,14.478-5.523,20.001,0l0,0
				C99.524,397.828,99.524,406.782,94.001,412.306z"/>
		</g>
		<g clip-path="url(#SVGID_2_)">
			<polygon fill="#FDFDFD" points="241.469,60.351 224.316,50.448 224.316,70.253 			"/>
			<polygon fill="#FDFDFD" points="270.197,60.351 253.044,50.448 253.044,70.253 			"/>
			<polygon fill="#FF2C2C" points="298.925,60.351 281.772,50.448 281.772,70.253 			"/>
		</g>
		<g clip-path="url(#SVGID_2_)">
			<polygon fill="#FDFDFD" points="697.221,390.082 687.317,407.234 707.123,407.234 			"/>
			<polygon fill="#FDFDFD" points="697.221,361.354 687.317,378.507 707.123,378.507 			"/>
			<polygon fill="#FDFDFD" points="697.221,332.626 687.317,349.778 707.124,349.778 			"/>
			<polygon fill="#FF2C2C" points="697.221,245.931 691.476,255.882 702.966,255.882 			"/>
		</g>
		<g clip-path="url(#SVGID_2_)">
			<g>
				
					<line fill="none" stroke="#D8D9DA" stroke-width="0.7797" stroke-miterlimit="10" x1="623.578" y1="447.419" x2="609.999" y2="460.998"/>
				
					<line fill="none" stroke="#D8D9DA" stroke-width="0.7797" stroke-miterlimit="10" x1="630.194" y1="447.419" x2="616.614" y2="460.998"/>
				
					<line fill="none" stroke="#D8D9DA" stroke-width="0.7797" stroke-miterlimit="10" x1="636.81" y1="447.419" x2="623.23" y2="460.998"/>
				
					<line fill="none" stroke="#D8D9DA" stroke-width="0.7797" stroke-miterlimit="10" x1="643.426" y1="447.419" x2="629.846" y2="460.998"/>
				
					<line fill="none" stroke="#D8D9DA" stroke-width="0.7797" stroke-miterlimit="10" x1="650.041" y1="447.419" x2="636.462" y2="460.998"/>
				
					<line fill="none" stroke="#D8D9DA" stroke-width="0.7797" stroke-miterlimit="10" x1="656.656" y1="447.419" x2="643.077" y2="460.998"/>
				
					<line fill="none" stroke="#D8D9DA" stroke-width="0.7797" stroke-miterlimit="10" x1="663.272" y1="447.419" x2="649.692" y2="460.998"/>
				
					<line fill="none" stroke="#D8D9DA" stroke-width="0.7797" stroke-miterlimit="10" x1="669.888" y1="447.419" x2="656.309" y2="460.998"/>
				
					<line fill="none" stroke="#D8D9DA" stroke-width="0.7797" stroke-miterlimit="10" x1="676.503" y1="447.419" x2="662.924" y2="460.998"/>
				
					<line fill="none" stroke="#D8D9DA" stroke-width="0.7797" stroke-miterlimit="10" x1="683.119" y1="447.419" x2="669.539" y2="460.998"/>
				
					<line fill="none" stroke="#D8D9DA" stroke-width="0.7797" stroke-miterlimit="10" x1="689.734" y1="447.419" x2="676.155" y2="460.998"/>
				
					<line fill="none" stroke="#D8D9DA" stroke-width="0.7797" stroke-miterlimit="10" x1="696.35" y1="447.419" x2="682.771" y2="460.998"/>
				
					<line fill="none" stroke="#D8D9DA" stroke-width="0.7797" stroke-miterlimit="10" x1="702.966" y1="447.419" x2="689.387" y2="460.998"/>
			</g>
		</g>
		<rect x="609.999" y="434.213" clip-path="url(#SVGID_2_)" fill="#FF2C2C" width="59.889" height="5.022"/>
		<rect x="677.999" y="434.213" clip-path="url(#SVGID_2_)" fill="#FDFDFD" width="24.967" height="5.022"/>
		<g clip-path="url(#SVGID_2_)">
			<g>
				<circle fill="#606060" stroke="#D8D9DA" stroke-miterlimit="10" cx="668.669" cy="38.46" r="2.089"/>
				<circle fill="none" stroke="#D8D9DA" stroke-width="0.7797" stroke-miterlimit="10" cx="683.989" cy="38.46" r="2.089"/>
				<circle fill="none" stroke="#D8D9DA" stroke-width="0.7797" stroke-miterlimit="10" cx="699.31" cy="38.46" r="2.089"/>
			</g>
			<g>
				<circle fill="none" stroke="#D8D9DA" stroke-width="0.7797" stroke-miterlimit="10" cx="653.349" cy="51.692" r="2.089"/>
				<circle fill="none" stroke="#D8D9DA" stroke-width="0.7797" stroke-miterlimit="10" cx="668.669" cy="51.692" r="2.089"/>
				<circle fill="none" stroke="#D8D9DA" stroke-width="0.7797" stroke-miterlimit="10" cx="683.989" cy="51.692" r="2.089"/>
				<circle fill="none" stroke="#FF2C2C" stroke-miterlimit="10" cx="683.989" cy="63.995" r="2.089"/>
			</g>
		</g>
		<g clip-path="url(#SVGID_2_)">
			<g>
				<g>
					
						<line fill="none" stroke="#8F9294" stroke-width="0.3881" stroke-miterlimit="10" x1="595.157" y1="87.622" x2="595.157" y2="98.579"/>
					
						<line fill="none" stroke="#8F9294" stroke-width="0.3881" stroke-miterlimit="10" x1="589.679" y1="93.101" x2="600.636" y2="93.101"/>
				</g>
				<g>
					
						<line fill="none" stroke="#8F9294" stroke-width="0.3881" stroke-miterlimit="10" x1="625.015" y1="87.622" x2="625.015" y2="98.579"/>
					
						<line fill="none" stroke="#8F9294" stroke-width="0.3881" stroke-miterlimit="10" x1="619.536" y1="93.101" x2="630.493" y2="93.101"/>
				</g>
				<g>
					
						<line fill="none" stroke="#8F9294" stroke-width="0.3881" stroke-miterlimit="10" x1="654.872" y1="87.622" x2="654.872" y2="98.579"/>
					
						<line fill="none" stroke="#8F9294" stroke-width="0.3881" stroke-miterlimit="10" x1="649.394" y1="93.101" x2="660.351" y2="93.101"/>
				</g>
				<g>
					
						<line fill="none" stroke="#8F9294" stroke-width="0.3881" stroke-miterlimit="10" x1="684.729" y1="87.622" x2="684.729" y2="98.579"/>
					
						<line fill="none" stroke="#8F9294" stroke-width="0.3881" stroke-miterlimit="10" x1="679.251" y1="93.101" x2="690.208" y2="93.101"/>
				</g>
			</g>
			<g>
				<g>
					
						<line fill="none" stroke="#8F9294" stroke-width="0.3881" stroke-miterlimit="10" x1="595.157" y1="110.357" x2="595.157" y2="121.314"/>
					
						<line fill="none" stroke="#8F9294" stroke-width="0.3881" stroke-miterlimit="10" x1="589.679" y1="115.836" x2="600.636" y2="115.836"/>
				</g>
				<g>
					
						<line fill="none" stroke="#8F9294" stroke-width="0.3881" stroke-miterlimit="10" x1="625.015" y1="110.357" x2="625.015" y2="121.314"/>
					
						<line fill="none" stroke="#8F9294" stroke-width="0.3881" stroke-miterlimit="10" x1="619.536" y1="115.836" x2="630.493" y2="115.836"/>
				</g>
				<g>
					
						<line fill="none" stroke="#8F9294" stroke-width="0.3881" stroke-miterlimit="10" x1="654.872" y1="110.357" x2="654.872" y2="121.314"/>
					
						<line fill="none" stroke="#8F9294" stroke-width="0.3881" stroke-miterlimit="10" x1="649.394" y1="115.836" x2="660.351" y2="115.836"/>
				</g>
				<g>
					
						<line fill="none" stroke="#8F9294" stroke-width="0.3881" stroke-miterlimit="10" x1="684.729" y1="110.357" x2="684.729" y2="121.314"/>
					
						<line fill="none" stroke="#8F9294" stroke-width="0.3881" stroke-miterlimit="10" x1="679.251" y1="115.836" x2="690.208" y2="115.836"/>
				</g>
			</g>
			<g>
				<g>
					
						<line fill="none" stroke="#8F9294" stroke-width="0.3881" stroke-miterlimit="10" x1="595.157" y1="133.093" x2="595.157" y2="144.05"/>
					
						<line fill="none" stroke="#8F9294" stroke-width="0.3881" stroke-miterlimit="10" x1="589.679" y1="138.572" x2="600.636" y2="138.572"/>
				</g>
				<g>
					
						<line fill="none" stroke="#8F9294" stroke-width="0.3881" stroke-miterlimit="10" x1="625.015" y1="133.093" x2="625.015" y2="144.05"/>
					
						<line fill="none" stroke="#8F9294" stroke-width="0.3881" stroke-miterlimit="10" x1="619.536" y1="138.572" x2="630.493" y2="138.572"/>
				</g>
				<g>
					
						<line fill="none" stroke="#8F9294" stroke-width="0.3881" stroke-miterlimit="10" x1="654.872" y1="133.093" x2="654.872" y2="144.05"/>
					
						<line fill="none" stroke="#8F9294" stroke-width="0.3881" stroke-miterlimit="10" x1="649.394" y1="138.572" x2="660.351" y2="138.572"/>
				</g>
				<g>
					
						<line fill="none" stroke="#8F9294" stroke-width="0.3881" stroke-miterlimit="10" x1="684.729" y1="133.093" x2="684.729" y2="144.05"/>
					
						<line fill="none" stroke="#8F9294" stroke-width="0.3881" stroke-miterlimit="10" x1="679.251" y1="138.572" x2="690.208" y2="138.572"/>
				</g>
			</g>
			<g>
				<g>
					
						<line fill="none" stroke="#8F9294" stroke-width="0.3881" stroke-miterlimit="10" x1="595.157" y1="155.829" x2="595.157" y2="166.786"/>
					
						<line fill="none" stroke="#8F9294" stroke-width="0.3881" stroke-miterlimit="10" x1="589.679" y1="161.307" x2="600.636" y2="161.307"/>
				</g>
				<g>
					
						<line fill="none" stroke="#8F9294" stroke-width="0.3881" stroke-miterlimit="10" x1="625.015" y1="155.829" x2="625.015" y2="166.786"/>
					
						<line fill="none" stroke="#8F9294" stroke-width="0.3881" stroke-miterlimit="10" x1="619.536" y1="161.307" x2="630.493" y2="161.307"/>
				</g>
				<g>
					
						<line fill="none" stroke="#8F9294" stroke-width="0.3881" stroke-miterlimit="10" x1="654.872" y1="155.829" x2="654.872" y2="166.786"/>
					
						<line fill="none" stroke="#8F9294" stroke-width="0.3881" stroke-miterlimit="10" x1="649.394" y1="161.307" x2="660.351" y2="161.307"/>
				</g>
				<g>
					
						<line fill="none" stroke="#8F9294" stroke-width="0.3881" stroke-miterlimit="10" x1="684.729" y1="155.829" x2="684.729" y2="166.786"/>
					
						<line fill="none" stroke="#8F9294" stroke-width="0.3881" stroke-miterlimit="10" x1="679.251" y1="161.307" x2="690.208" y2="161.307"/>
				</g>
			</g>
		</g>
		<g clip-path="url(#SVGID_2_)">
			<path fill="none" stroke="#8F9294" stroke-linecap="round" stroke-linejoin="round" stroke-miterlimit="10" d="M600.634,220.149
				c-51.094-18.972-90.438-62.12-104.138-115.545"/>
			<path fill="none" stroke="#575758" stroke-linecap="round" stroke-linejoin="round" stroke-miterlimit="10" d="M724.644,217.281
				c-20.153,8.57-42.326,13.312-65.607,13.312c-9.73,0-19.268-0.829-28.545-2.418"/>
			<path fill="none" stroke="#575758" stroke-linecap="round" stroke-linejoin="round" stroke-miterlimit="10" d="M493.363,36.093
				c12.794-79.971,82.098-141.075,165.673-141.075c92.666,0,167.787,75.121,167.787,167.787c0,69.386-42.116,128.934-102.18,154.476
				"/>
		</g>
		
			<circle clip-path="url(#SVGID_2_)" fill="none" stroke="#575758" stroke-linecap="round" stroke-linejoin="round" stroke-miterlimit="10" cx="626.07" cy="226.482" r="4.423"/>
		
			<rect x="422.706" y="36.613" clip-path="url(#SVGID_2_)" fill="none" stroke="#8F9294" stroke-linecap="round" stroke-linejoin="round" stroke-miterlimit="10" width="121.485" height="10.187"/>
		<g clip-path="url(#SVGID_2_)">
			<g>
				<g>
					
						<rect x="242.795" y="-12.989" transform="matrix(0.7071 0.7071 -0.7071 0.7071 64.0524 -176.3665)" fill="#8F9294" width="4.248" height="4.248"/>
					
						<rect x="254.823" y="-0.961" transform="matrix(0.7071 0.7071 -0.7071 0.7071 75.972 -181.3037)" fill="#8F9294" width="4.031" height="4.032"/>
					
						<rect x="266.851" y="11.067" transform="matrix(0.707 0.7072 -0.7072 0.707 87.9099 -186.2574)" fill="#8F9294" width="3.816" height="3.815"/>
					
						<rect x="278.879" y="23.095" transform="matrix(0.7071 0.7071 -0.7071 0.7071 99.8116 -191.1785)" fill="#8F9294" width="3.599" height="3.599"/>
					
						<rect x="290.907" y="35.123" transform="matrix(0.7071 0.7071 -0.7071 0.7071 111.7316 -196.1159)" fill="#8F9294" width="3.383" height="3.383"/>
					
						<rect x="302.935" y="47.15" transform="matrix(0.7071 0.7071 -0.7071 0.7071 123.6512 -201.053)" fill="#8F9294" width="3.166" height="3.166"/>
					
						<rect x="314.963" y="59.179" transform="matrix(0.707 0.7072 -0.7072 0.707 135.6023 -206.0116)" fill="#8F9294" width="2.95" height="2.95"/>
					
						<rect x="326.991" y="71.206" transform="matrix(0.7071 0.7071 -0.7071 0.7071 147.4908 -210.9279)" fill="#8F9294" width="2.734" height="2.734"/>
					
						<rect x="339.019" y="83.234" transform="matrix(0.7071 0.7071 -0.7071 0.7071 159.4108 -215.8653)" fill="#8F9294" width="2.518" height="2.518"/>
					
						<rect x="351.047" y="95.262" transform="matrix(0.7071 0.7071 -0.7071 0.7071 171.3304 -220.8024)" fill="#8F9294" width="2.301" height="2.301"/>
					
						<rect x="363.075" y="107.29" transform="matrix(0.707 0.7072 -0.7072 0.707 183.3056 -225.7697)" fill="#8F9294" width="2.085" height="2.085"/>
					
						<rect x="375.103" y="119.318" transform="matrix(0.7071 0.7071 -0.7071 0.7071 195.17 -230.6772)" fill="#8F9294" width="1.869" height="1.869"/>
				</g>
			</g>
			<g>
				<g>
					
						<rect x="252.453" y="-22.647" transform="matrix(0.707 0.7072 -0.7072 0.707 60.0653 -186.0397)" fill="#8F9294" width="4.248" height="4.248"/>
					
						<rect x="264.481" y="-10.619" transform="matrix(0.707 0.7072 -0.7072 0.707 71.9874 -190.978)" fill="#8F9294" width="4.032" height="4.032"/>
					
						<rect x="276.509" y="1.409" transform="matrix(0.7071 0.7071 -0.7071 0.7071 83.8915 -195.8988)" fill="#8F9294" width="3.815" height="3.816"/>
					
						<rect x="288.537" y="13.437" transform="matrix(0.707 0.7072 -0.7072 0.707 95.8322 -200.8548)" fill="#8F9294" width="3.599" height="3.599"/>
					
						<rect x="300.565" y="25.465" transform="matrix(0.707 0.7072 -0.7072 0.707 107.7548 -205.7931)" fill="#8F9294" width="3.383" height="3.383"/>
					
						<rect x="312.593" y="37.493" transform="matrix(0.707 0.7072 -0.7072 0.707 119.6782 -210.7319)" fill="#8F9294" width="3.166" height="3.166"/>
					
						<rect x="324.621" y="49.521" transform="matrix(0.7072 0.707 -0.707 0.7072 131.5395 -215.6254)" fill="#8F9294" width="2.95" height="2.951"/>
					
						<rect x="336.649" y="61.549" transform="matrix(0.707 0.7072 -0.7072 0.707 143.5265 -220.6101)" fill="#8F9294" width="2.734" height="2.734"/>
					
						<rect x="348.677" y="73.577" transform="matrix(0.7071 0.7071 -0.7071 0.7071 155.4104 -225.523)" fill="#8F9294" width="2.518" height="2.518"/>
					
						<rect x="360.704" y="85.605" transform="matrix(0.7071 0.7071 -0.7071 0.7071 167.3302 -230.4601)" fill="#8F9294" width="2.302" height="2.302"/>
					
						<rect x="372.733" y="97.633" transform="matrix(0.7071 0.7071 -0.7071 0.7071 179.2499 -235.3975)" fill="#8F9294" width="2.085" height="2.085"/>
					
						<rect x="384.76" y="109.661" transform="matrix(0.707 0.7072 -0.7072 0.707 191.2345 -240.3705)" fill="#8F9294" width="1.869" height="1.869"/>
				</g>
			</g>
			<g>
				<g>
					
						<rect x="262.11" y="-32.305" transform="matrix(0.7071 0.7071 -0.7071 0.7071 56.0515 -195.6816)" fill="#8F9294" width="4.248" height="4.248"/>
					
						<rect x="274.138" y="-20.277" transform="matrix(0.7071 0.7071 -0.7071 0.7071 67.9714 -200.619)" fill="#8F9294" width="4.032" height="4.032"/>
					
						<rect x="286.166" y="-8.249" transform="matrix(0.7072 0.707 -0.707 0.7072 79.8732 -205.5376)" fill="#8F9294" width="3.816" height="3.816"/>
					
						<rect x="298.194" y="3.779" transform="matrix(0.7072 0.707 -0.707 0.7072 91.7904 -210.4739)" fill="#8F9294" width="3.599" height="3.6"/>
					
						<rect x="310.222" y="15.807" transform="matrix(0.7071 0.7071 -0.7071 0.7071 103.7307 -215.431)" fill="#8F9294" width="3.383" height="3.383"/>
					
						<rect x="322.25" y="27.835" transform="matrix(0.7071 0.7071 -0.7071 0.7071 115.6506 -220.3684)" fill="#8F9294" width="3.167" height="3.167"/>
					
						<rect x="334.278" y="39.863" transform="matrix(0.7072 0.707 -0.707 0.7072 127.5392 -225.2815)" fill="#8F9294" width="2.95" height="2.951"/>
					
						<rect x="346.306" y="51.891" transform="matrix(0.7071 0.7071 -0.7071 0.7071 139.4902 -230.2429)" fill="#8F9294" width="2.734" height="2.734"/>
					
						<rect x="358.334" y="63.919" transform="matrix(0.7071 0.7071 -0.7071 0.7071 151.4099 -235.1804)" fill="#8F9294" width="2.518" height="2.518"/>
					
						<rect x="370.362" y="75.947" transform="matrix(0.7071 0.7071 -0.7071 0.7071 163.3298 -240.1177)" fill="#8F9294" width="2.302" height="2.302"/>
					
						<rect x="382.39" y="87.975" transform="matrix(0.7072 0.707 -0.707 0.7072 175.1942 -245.0208)" fill="#8F9294" width="2.085" height="2.085"/>
					
						<rect x="394.418" y="100.003" transform="matrix(0.7071 0.7071 -0.7071 0.7071 187.1695 -249.9926)" fill="#8F9294" width="1.869" height="1.869"/>
				</g>
			</g>
			<g>
				<g>
					
						<rect x="271.768" y="-41.962" transform="matrix(0.7072 0.707 -0.707 0.7072 52.0379 -205.3212)" fill="#8F9294" width="4.248" height="4.248"/>
					
						<rect x="283.796" y="-29.934" transform="matrix(0.7071 0.7071 -0.7071 0.7071 63.9711 -210.2767)" fill="#8F9294" width="4.032" height="4.032"/>
					
						<rect x="295.824" y="-17.906" transform="matrix(0.7071 0.7071 -0.7071 0.7071 75.8909 -215.2138)" fill="#8F9294" width="3.815" height="3.815"/>
					
						<rect x="307.852" y="-5.879" transform="matrix(0.7071 0.7071 -0.7071 0.7071 87.8106 -220.1512)" fill="#8F9294" width="3.599" height="3.599"/>
					
						<rect x="319.88" y="6.149" transform="matrix(0.7071 0.7071 -0.7071 0.7071 99.7305 -225.0886)" fill="#8F9294" width="3.383" height="3.383"/>
					
						<rect x="331.908" y="18.177" transform="matrix(0.7071 0.7071 -0.7071 0.7071 111.6503 -230.0261)" fill="#8F9294" width="3.167" height="3.167"/>
					
						<rect x="343.936" y="30.206" transform="matrix(0.7071 0.7071 -0.7071 0.7071 123.5704 -234.9634)" fill="#8F9294" width="2.951" height="2.95"/>
					
						<rect x="355.964" y="42.233" transform="matrix(0.7071 0.7071 -0.7071 0.7071 135.4898 -239.9006)" fill="#8F9294" width="2.734" height="2.734"/>
					
						<rect x="367.992" y="54.262" transform="matrix(0.7071 0.7071 -0.7071 0.7071 147.4099 -244.838)" fill="#8F9294" width="2.518" height="2.518"/>
					
						<rect x="380.019" y="66.289" transform="matrix(0.707 0.7072 -0.7072 0.707 159.3769 -249.8084)" fill="#8F9294" width="2.301" height="2.301"/>
					
						<rect x="392.047" y="78.318" transform="matrix(0.7071 0.7071 -0.7071 0.7071 171.2494 -254.7124)" fill="#8F9294" width="2.085" height="2.085"/>
					
						<rect x="404.075" y="90.345" transform="matrix(0.7071 0.7071 -0.7071 0.7071 183.169 -259.65)" fill="#8F9294" width="1.869" height="1.869"/>
				</g>
			</g>
			<g>
				<g>
					
						<rect x="281.426" y="-51.62" transform="matrix(0.7071 0.7071 -0.7071 0.7071 48.0511 -214.9969)" fill="#8F9294" width="4.248" height="4.248"/>
					
						<rect x="293.454" y="-39.592" transform="matrix(0.7072 0.707 -0.707 0.7072 59.9553 -219.9142)" fill="#8F9294" width="4.032" height="4.032"/>
					
						<rect x="305.481" y="-27.564" transform="matrix(0.707 0.7072 -0.7072 0.707 71.9087 -224.8927)" fill="#8F9294" width="3.816" height="3.815"/>
					
						<rect x="317.51" y="-15.536" transform="matrix(0.7071 0.7071 -0.7071 0.7071 83.8104 -229.8089)" fill="#8F9294" width="3.599" height="3.599"/>
					
						<rect x="329.538" y="-3.508" transform="matrix(0.7071 0.7071 -0.7071 0.7071 95.7303 -234.7463)" fill="#8F9294" width="3.383" height="3.383"/>
					
						<rect x="341.565" y="8.52" transform="matrix(0.7071 0.7071 -0.7071 0.7071 107.6499 -239.6834)" fill="#8F9294" width="3.166" height="3.166"/>
					
						<rect x="353.593" y="20.548" transform="matrix(0.707 0.7072 -0.7072 0.707 119.6011 -244.6483)" fill="#8F9294" width="2.95" height="2.95"/>
					
						<rect x="365.621" y="32.576" transform="matrix(0.7071 0.7071 -0.7071 0.7071 131.4896 -249.5583)" fill="#8F9294" width="2.734" height="2.734"/>
					
						<rect x="377.649" y="44.604" transform="matrix(0.7071 0.7071 -0.7071 0.7071 143.4095 -254.4957)" fill="#8F9294" width="2.518" height="2.518"/>
					
						<rect x="389.677" y="56.632" transform="matrix(0.7073 0.7069 -0.7069 0.7073 155.2341 -259.3625)" fill="#8F9294" width="2.302" height="2.302"/>
					
						<rect x="401.705" y="68.66" transform="matrix(0.7071 0.7071 -0.7071 0.7071 167.2492 -264.3705)" fill="#8F9294" width="2.085" height="2.085"/>
					
						<rect x="413.733" y="80.687" transform="matrix(0.7074 0.7068 -0.7068 0.7074 179.0393 -269.221)" fill="#8F9294" width="1.869" height="1.869"/>
				</g>
			</g>
			<g>
				<g>
					
						<rect x="291.083" y="-61.277" transform="matrix(0.7071 0.7071 -0.7071 0.7071 44.0508 -224.6546)" fill="#8F9294" width="4.248" height="4.248"/>
					
						<rect x="303.111" y="-49.25" transform="matrix(0.7072 0.707 -0.707 0.7072 55.9548 -229.5704)" fill="#8F9294" width="4.032" height="4.032"/>
					
						<rect x="315.139" y="-37.222" transform="matrix(0.7072 0.707 -0.707 0.7072 67.8723 -234.5066)" fill="#8F9294" width="3.816" height="3.816"/>
					
						<rect x="327.167" y="-25.194" transform="matrix(0.7072 0.707 -0.707 0.7072 79.7893 -239.4427)" fill="#8F9294" width="3.599" height="3.599"/>
					
						<rect x="339.195" y="-13.166" transform="matrix(0.7072 0.707 -0.707 0.7072 91.7062 -244.3786)" fill="#8F9294" width="3.383" height="3.383"/>
					
						<rect x="351.223" y="-1.138" transform="matrix(0.7072 0.707 -0.707 0.7072 103.6223 -249.3139)" fill="#8F9294" width="3.166" height="3.167"/>
					
						<rect x="363.251" y="10.89" transform="matrix(0.7072 0.707 -0.707 0.7072 115.5383 -254.2494)" fill="#8F9294" width="2.95" height="2.951"/>
					
						<rect x="375.279" y="22.918" transform="matrix(0.7071 0.7071 -0.7071 0.7071 127.4891 -259.2156)" fill="#8F9294" width="2.734" height="2.734"/>
					
						<rect x="387.307" y="34.946" transform="matrix(0.7071 0.7071 -0.7071 0.7071 139.4091 -264.153)" fill="#8F9294" width="2.518" height="2.518"/>
					
						<rect x="399.335" y="46.974" transform="matrix(0.7071 0.7071 -0.7071 0.7071 151.3288 -269.0905)" fill="#8F9294" width="2.301" height="2.301"/>
					
						<rect x="411.363" y="59.002" transform="matrix(0.7072 0.707 -0.707 0.7072 163.1934 -273.9866)" fill="#8F9294" width="2.085" height="2.085"/>
					
						<rect x="423.391" y="71.03" transform="matrix(0.707 0.7072 -0.7072 0.707 175.2335 -279.0113)" fill="#8F9294" width="1.869" height="1.869"/>
				</g>
			</g>
			<g>
				<g>
					
						<rect x="300.741" y="-70.935" transform="matrix(0.7071 0.7071 -0.7071 0.7071 40.0503 -234.312)" fill="#8F9294" width="4.248" height="4.248"/>
					
						<rect x="312.769" y="-58.907" transform="matrix(0.7071 0.7071 -0.7071 0.7071 51.9702 -239.2494)" fill="#8F9294" width="4.032" height="4.032"/>
					
						<rect x="324.797" y="-46.879" transform="matrix(0.7072 0.707 -0.707 0.7072 63.8719 -244.1631)" fill="#8F9294" width="3.816" height="3.816"/>
					
						<rect x="336.825" y="-34.851" transform="matrix(0.7071 0.7071 -0.7071 0.7071 75.8099 -249.1242)" fill="#8F9294" width="3.6" height="3.599"/>
					
						<rect x="348.852" y="-22.823" transform="matrix(0.7071 0.7071 -0.7071 0.7071 87.7295 -254.0614)" fill="#8F9294" width="3.383" height="3.383"/>
					
						<rect x="360.88" y="-10.795" transform="matrix(0.7071 0.7071 -0.7071 0.7071 99.6494 -258.9988)" fill="#8F9294" width="3.167" height="3.167"/>
					
						<rect x="372.909" y="1.232" transform="matrix(0.7072 0.707 -0.707 0.7072 111.5379 -263.9055)" fill="#8F9294" width="2.95" height="2.951"/>
					
						<rect x="384.937" y="13.26" transform="matrix(0.7072 0.707 -0.707 0.7072 123.4533 -268.8404)" fill="#8F9294" width="2.734" height="2.735"/>
					
						<rect x="396.965" y="25.289" transform="matrix(0.7071 0.7071 -0.7071 0.7071 135.4088 -273.8111)" fill="#8F9294" width="2.518" height="2.518"/>
					
						<rect x="408.993" y="37.316" transform="matrix(0.7072 0.707 -0.707 0.7072 147.2812 -278.7091)" fill="#8F9294" width="2.302" height="2.302"/>
					
						<rect x="421.02" y="49.345" transform="matrix(0.707 0.7072 -0.7072 0.707 159.3035 -283.7288)" fill="#8F9294" width="2.084" height="2.085"/>
					
						<rect x="433.048" y="61.372" transform="matrix(0.7071 0.7071 -0.7071 0.7071 171.1681 -288.6227)" fill="#8F9294" width="1.869" height="1.869"/>
				</g>
			</g>
			<g>
				<g>
					
						<rect x="310.399" y="-80.593" transform="matrix(0.7072 0.707 -0.707 0.7072 36.0367 -243.9472)" fill="#8F9294" width="4.248" height="4.248"/>
					
						<rect x="322.426" y="-68.564" transform="matrix(0.7071 0.7071 -0.7071 0.7071 47.97 -248.907)" fill="#8F9294" width="4.032" height="4.032"/>
					
						<rect x="334.454" y="-56.536" transform="matrix(0.7071 0.7071 -0.7071 0.7071 59.89 -253.8444)" fill="#8F9294" width="3.816" height="3.816"/>
					
						<rect x="346.482" y="-44.509" transform="matrix(0.7071 0.7071 -0.7071 0.7071 71.8096 -258.7816)" fill="#8F9294" width="3.599" height="3.599"/>
					
						<rect x="358.51" y="-32.481" transform="matrix(0.7071 0.7071 -0.7071 0.7071 83.7293 -263.719)" fill="#8F9294" width="3.383" height="3.383"/>
					
						<rect x="370.538" y="-20.453" transform="matrix(0.7071 0.7071 -0.7071 0.7071 95.6492 -268.6564)" fill="#8F9294" width="3.167" height="3.166"/>
					
						<rect x="382.566" y="-8.425" transform="matrix(0.707 0.7072 -0.7072 0.707 107.6 -273.6259)" fill="#8F9294" width="2.95" height="2.95"/>
					
						<rect x="394.594" y="3.603" transform="matrix(0.707 0.7072 -0.7072 0.707 119.5246 -278.5659)" fill="#8F9294" width="2.733" height="2.733"/>
					
						<rect x="406.622" y="15.631" transform="matrix(0.7071 0.7071 -0.7071 0.7071 131.4085 -283.4684)" fill="#8F9294" width="2.518" height="2.518"/>
					
						<rect x="418.65" y="27.659" transform="matrix(0.707 0.7072 -0.7072 0.707 143.376 -288.4473)" fill="#8F9294" width="2.301" height="2.301"/>
					
						<rect x="430.678" y="39.687" transform="matrix(0.7071 0.7071 -0.7071 0.7071 155.2482 -293.3433)" fill="#8F9294" width="2.085" height="2.085"/>
					
						<rect x="442.706" y="51.715" transform="matrix(0.7071 0.7071 -0.7071 0.7071 167.1681 -298.2806)" fill="#8F9294" width="1.869" height="1.869"/>
				</g>
			</g>
			<g>
				<g>
					
						<rect x="320.056" y="-90.25" transform="matrix(0.7071 0.7071 -0.7071 0.7071 32.0499 -253.6273)" fill="#8F9294" width="4.248" height="4.248"/>
					
						<rect x="332.084" y="-78.222" transform="matrix(0.7071 0.7071 -0.7071 0.7071 43.9695 -258.5644)" fill="#8F9294" width="4.031" height="4.032"/>
					
						<rect x="344.112" y="-66.194" transform="matrix(0.707 0.7072 -0.7072 0.707 55.9075 -263.5281)" fill="#8F9294" width="3.816" height="3.815"/>
					
						<rect x="356.14" y="-54.166" transform="matrix(0.7071 0.7071 -0.7071 0.7071 67.8092 -268.4393)" fill="#8F9294" width="3.599" height="3.599"/>
					
						<rect x="368.168" y="-42.138" transform="matrix(0.7071 0.7071 -0.7071 0.7071 79.7291 -273.3766)" fill="#8F9294" width="3.383" height="3.383"/>
					
						<rect x="380.196" y="-30.11" transform="matrix(0.7071 0.7071 -0.7071 0.7071 91.6489 -278.3141)" fill="#8F9294" width="3.167" height="3.166"/>
					
						<rect x="392.224" y="-18.083" transform="matrix(0.7072 0.707 -0.707 0.7072 103.5376 -283.2176)" fill="#8F9294" width="2.951" height="2.951"/>
					
						<rect x="404.252" y="-6.055" transform="matrix(0.7072 0.707 -0.707 0.7072 115.4527 -288.1523)" fill="#8F9294" width="2.734" height="2.734"/>
					
						<rect x="416.279" y="5.974" transform="matrix(0.7071 0.7071 -0.7071 0.7071 127.4082 -293.1257)" fill="#8F9294" width="2.518" height="2.518"/>
					
						<rect x="428.308" y="18.001" transform="matrix(0.7071 0.7071 -0.7071 0.7071 139.3279 -298.0631)" fill="#8F9294" width="2.301" height="2.301"/>
					
						<rect x="440.335" y="30.029" transform="matrix(0.7071 0.7071 -0.7071 0.7071 151.2479 -303.0005)" fill="#8F9294" width="2.085" height="2.085"/>
					
						<rect x="452.364" y="42.057" transform="matrix(0.7071 0.7071 -0.7071 0.7071 163.1676 -307.938)" fill="#8F9294" width="1.869" height="1.869"/>
				</g>
			</g>
			<g>
				<g>
					
						<rect x="329.714" y="-99.908" transform="matrix(0.7071 0.7071 -0.7071 0.7071 28.0496 -263.285)" fill="#8F9294" width="4.248" height="4.248"/>
					
						<rect x="341.741" y="-87.88" transform="matrix(0.7072 0.707 -0.707 0.7072 39.9536 -268.1961)" fill="#8F9294" width="4.032" height="4.032"/>
					
						<rect x="353.769" y="-75.852" transform="matrix(0.707 0.7072 -0.7072 0.707 51.9071 -273.187)" fill="#8F9294" width="3.816" height="3.815"/>
					
						<rect x="365.798" y="-63.824" transform="matrix(0.7071 0.7071 -0.7071 0.7071 63.8088 -278.097)" fill="#8F9294" width="3.599" height="3.599"/>
					
						<rect x="377.825" y="-51.796" transform="matrix(0.707 0.7072 -0.7072 0.707 75.7524 -283.065)" fill="#8F9294" width="3.383" height="3.383"/>
					
						<rect x="389.853" y="-39.768" transform="matrix(0.7072 0.707 -0.707 0.7072 87.6211 -287.9384)" fill="#8F9294" width="3.166" height="3.167"/>
					
						<rect x="401.881" y="-27.74" transform="matrix(0.707 0.7072 -0.7072 0.707 99.5995 -292.9444)" fill="#8F9294" width="2.95" height="2.95"/>
					
						<rect x="413.909" y="-15.712" transform="matrix(0.7072 0.707 -0.707 0.7072 111.4522 -297.808)" fill="#8F9294" width="2.734" height="2.734"/>
					
						<rect x="425.937" y="-3.684" transform="matrix(0.7071 0.7071 -0.7071 0.7071 123.408 -302.7838)" fill="#8F9294" width="2.518" height="2.518"/>
					
						<rect x="437.965" y="8.343" transform="matrix(0.7073 0.7069 -0.7069 0.7073 135.2325 -307.63)" fill="#8F9294" width="2.302" height="2.302"/>
					
						<rect x="449.993" y="20.372" transform="matrix(0.7071 0.7071 -0.7071 0.7071 147.2477 -312.6586)" fill="#8F9294" width="2.085" height="2.085"/>
					
						<rect x="462.021" y="32.4" transform="matrix(0.707 0.7072 -0.7072 0.707 159.2321 -317.6514)" fill="#8F9294" width="1.869" height="1.869"/>
				</g>
			</g>
			<g>
				<g>
					
						<rect x="339.371" y="-109.565" transform="matrix(0.7071 0.7071 -0.7071 0.7071 24.0491 -272.9424)" fill="#8F9294" width="4.248" height="4.248"/>
					
						<rect x="351.399" y="-97.537" transform="matrix(0.7071 0.7071 -0.7071 0.7071 35.969 -277.8798)" fill="#8F9294" width="4.032" height="4.032"/>
					
						<rect x="363.427" y="-85.51" transform="matrix(0.7072 0.707 -0.707 0.7072 47.8707 -282.7885)" fill="#8F9294" width="3.816" height="3.816"/>
					
						<rect x="375.455" y="-73.482" transform="matrix(0.7071 0.7071 -0.7071 0.7071 59.8087 -287.7546)" fill="#8F9294" width="3.6" height="3.599"/>
					
						<rect x="387.483" y="-61.454" transform="matrix(0.7072 0.707 -0.707 0.7072 71.7047 -292.6597)" fill="#8F9294" width="3.383" height="3.383"/>
					
						<rect x="399.511" y="-49.426" transform="matrix(0.7071 0.7071 -0.7071 0.7071 83.6483 -297.6295)" fill="#8F9294" width="3.167" height="3.167"/>
					
						<rect x="411.539" y="-37.398" transform="matrix(0.7071 0.7071 -0.7071 0.7071 95.5678 -302.5663)" fill="#8F9294" width="2.95" height="2.95"/>
					
						<rect x="423.567" y="-25.369" transform="matrix(0.7069 0.7073 -0.7073 0.7069 107.5593 -307.5838)" fill="#8F9294" width="2.734" height="2.733"/>
					
						<rect x="435.595" y="-13.342" transform="matrix(0.7071 0.7071 -0.7071 0.7071 119.4075 -312.4411)" fill="#8F9294" width="2.518" height="2.518"/>
					
						<rect x="447.623" y="-1.314" transform="matrix(0.707 0.7072 -0.7072 0.707 131.375 -317.4261)" fill="#8F9294" width="2.301" height="2.301"/>
					
						<rect x="459.651" y="10.714" transform="matrix(0.7072 0.707 -0.707 0.7072 143.1918 -322.2634)" fill="#8F9294" width="2.085" height="2.085"/>
					
						<rect x="471.679" y="22.742" transform="matrix(0.707 0.7072 -0.7072 0.707 155.2319 -327.312)" fill="#8F9294" width="1.869" height="1.869"/>
				</g>
			</g>
			<g>
				<g>
					
						<rect x="349.029" y="-119.223" transform="matrix(0.7071 0.7071 -0.7071 0.7071 20.0487 -282.6001)" fill="#8F9294" width="4.248" height="4.248"/>
					
						<rect x="361.057" y="-107.195" transform="matrix(0.7071 0.7071 -0.7071 0.7071 31.9686 -287.5375)" fill="#8F9294" width="4.032" height="4.032"/>
					
						<rect x="373.085" y="-95.167" transform="matrix(0.7072 0.707 -0.707 0.7072 43.8703 -292.445)" fill="#8F9294" width="3.816" height="3.816"/>
					
						<rect x="385.113" y="-83.139" transform="matrix(0.7071 0.7071 -0.7071 0.7071 55.8082 -297.412)" fill="#8F9294" width="3.599" height="3.599"/>
					
						<rect x="397.141" y="-71.111" transform="matrix(0.707 0.7072 -0.7072 0.707 67.7517 -302.3832)" fill="#8F9294" width="3.383" height="3.383"/>
					
						<rect x="409.169" y="-59.083" transform="matrix(0.7071 0.7071 -0.7071 0.7071 79.6478 -307.2869)" fill="#8F9294" width="3.167" height="3.167"/>
					
						<rect x="421.197" y="-47.055" transform="matrix(0.7071 0.7071 -0.7071 0.7071 91.5676 -312.2243)" fill="#8F9294" width="2.95" height="2.95"/>
					
						<rect x="433.225" y="-35.028" transform="matrix(0.7072 0.707 -0.707 0.7072 103.4517 -317.1199)" fill="#8F9294" width="2.734" height="2.735"/>
					
						<rect x="445.253" y="-22.999" transform="matrix(0.707 0.7072 -0.7072 0.707 115.4486 -322.1445)" fill="#8F9294" width="2.518" height="2.518"/>
					
						<rect x="457.28" y="-10.971" transform="matrix(0.707 0.7072 -0.7072 0.707 127.3745 -327.0856)" fill="#8F9294" width="2.301" height="2.301"/>
					
						<rect x="469.308" y="1.057" transform="matrix(0.707 0.7072 -0.7072 0.707 139.302 -332.0282)" fill="#8F9294" width="2.084" height="2.085"/>
					
						<rect x="481.336" y="13.084" transform="matrix(0.7071 0.7071 -0.7071 0.7071 151.1665 -336.9107)" fill="#8F9294" width="1.869" height="1.869"/>
				</g>
			</g>
		</g>
		<g clip-path="url(#SVGID_2_)">
			<g>
				<g>
					
						<rect x="641.906" y="507.257" transform="matrix(-0.7071 -0.7071 0.7071 -0.7071 739.2418 1324.9657)" fill="#8F9294" width="4.248" height="4.248"/>
					
						<rect x="630.095" y="495.445" transform="matrix(-0.7071 -0.7071 0.7071 -0.7071 727.3215 1296.1892)" fill="#8F9294" width="4.031" height="4.032"/>
					
						<rect x="618.283" y="483.634" transform="matrix(-0.7072 -0.707 0.707 -0.7072 715.5431 1267.3948)" fill="#8F9294" width="3.815" height="3.816"/>
					
						<rect x="606.471" y="471.822" transform="matrix(-0.7071 -0.7071 0.7071 -0.7071 703.4817 1238.6348)" fill="#8F9294" width="3.599" height="3.6"/>
					
						<rect x="594.659" y="460.01" transform="matrix(-0.7071 -0.7071 0.7071 -0.7071 691.5618 1209.8575)" fill="#8F9294" width="3.384" height="3.383"/>
					
						<rect x="582.849" y="448.199" transform="matrix(-0.707 -0.7073 0.7073 -0.707 679.4836 1181.1027)" fill="#8F9294" width="3.166" height="3.166"/>
					
						<rect x="571.037" y="436.387" transform="matrix(-0.7071 -0.7071 0.7071 -0.7071 667.7233 1152.3046)" fill="#8F9294" width="2.95" height="2.95"/>
					
						<rect x="559.225" y="424.575" transform="matrix(-0.7071 -0.7071 0.7071 -0.7071 655.8033 1123.5273)" fill="#8F9294" width="2.735" height="2.735"/>
					
						<rect x="547.413" y="412.764" transform="matrix(-0.7071 -0.7071 0.7071 -0.7071 643.8834 1094.7501)" fill="#8F9294" width="2.518" height="2.518"/>
					
						<rect x="535.602" y="400.952" transform="matrix(-0.7071 -0.7071 0.7071 -0.7071 631.9631 1065.9738)" fill="#8F9294" width="2.301" height="2.302"/>
					
						<rect x="523.79" y="389.14" transform="matrix(-0.7073 -0.7069 0.7069 -0.7073 620.2574 1037.1649)" fill="#8F9294" width="2.085" height="2.085"/>
					
						<rect x="511.977" y="377.329" transform="matrix(-0.7071 -0.7071 0.7071 -0.7071 608.1233 1008.4193)" fill="#8F9294" width="1.87" height="1.869"/>
				</g>
			</g>
			<g>
				<g>
					
						<rect x="632.249" y="516.915" transform="matrix(-0.7071 -0.7071 0.7071 -0.7071 715.9265 1334.6245)" fill="#8F9294" width="4.248" height="4.248"/>
					
						<rect x="620.437" y="505.103" transform="matrix(-0.707 -0.7072 0.7072 -0.707 703.8702 1305.8605)" fill="#8F9294" width="4.032" height="4.031"/>
					
						<rect x="608.625" y="493.291" transform="matrix(-0.7071 -0.7071 0.7071 -0.7071 692.0867 1277.0701)" fill="#8F9294" width="3.816" height="3.816"/>
					
						<rect x="596.814" y="481.48" transform="matrix(-0.7071 -0.7071 0.7071 -0.7071 680.1667 1248.2928)" fill="#8F9294" width="3.599" height="3.599"/>
					
						<rect x="585.002" y="469.668" transform="matrix(-0.7071 -0.7071 0.7071 -0.7071 668.2468 1219.5156)" fill="#8F9294" width="3.384" height="3.384"/>
					
						<rect x="573.19" y="457.856" transform="matrix(-0.7071 -0.7071 0.7071 -0.7071 656.3269 1190.7384)" fill="#8F9294" width="3.167" height="3.167"/>
					
						<rect x="561.378" y="446.044" transform="matrix(-0.7073 -0.7069 0.7069 -0.7073 644.5739 1161.9429)" fill="#8F9294" width="2.951" height="2.951"/>
					
						<rect x="549.567" y="434.233" transform="matrix(-0.7073 -0.7069 0.7069 -0.7073 632.6628 1133.1641)" fill="#8F9294" width="2.734" height="2.735"/>
					
						<rect x="537.755" y="422.421" transform="matrix(-0.7075 -0.7067 0.7067 -0.7075 620.9399 1104.3635)" fill="#8F9294" width="2.518" height="2.519"/>
					
						<rect x="525.944" y="410.61" transform="matrix(-0.7069 -0.7073 0.7073 -0.7069 608.4494 1075.6554)" fill="#8F9294" width="2.302" height="2.301"/>
					
						<rect x="514.132" y="398.798" transform="matrix(-0.7071 -0.7071 0.7071 -0.7071 596.7283 1046.8546)" fill="#8F9294" width="2.085" height="2.085"/>
					
						<rect x="502.321" y="386.987" transform="matrix(-0.7071 -0.7071 0.7071 -0.7071 584.8083 1018.0773)" fill="#8F9294" width="1.869" height="1.869"/>
				</g>
			</g>
			<g>
				<g>
					
						<rect x="622.591" y="526.572" transform="matrix(-0.7071 -0.7071 0.7071 -0.7071 692.6102 1344.2811)" fill="#8F9294" width="4.248" height="4.248"/>
					
						<rect x="610.779" y="514.76" transform="matrix(-0.7072 -0.707 0.707 -0.7072 680.827 1315.4922)" fill="#8F9294" width="4.032" height="4.032"/>
					
						<rect x="598.967" y="502.948" transform="matrix(-0.7071 -0.7071 0.7071 -0.7071 668.7704 1286.7266)" fill="#8F9294" width="3.816" height="3.816"/>
					
						<rect x="587.156" y="491.137" transform="matrix(-0.7071 -0.7071 0.7071 -0.7071 656.8521 1257.9501)" fill="#8F9294" width="3.599" height="3.599"/>
					
						<rect x="575.345" y="479.326" transform="matrix(-0.7071 -0.7071 0.7071 -0.7071 644.9319 1229.1737)" fill="#8F9294" width="3.382" height="3.383"/>
					
						<rect x="563.533" y="467.514" transform="matrix(-0.7071 -0.7071 0.7071 -0.7071 633.012 1200.3965)" fill="#8F9294" width="3.167" height="3.166"/>
					
						<rect x="551.721" y="455.702" transform="matrix(-0.7069 -0.7073 0.7073 -0.7069 620.9247 1171.635)" fill="#8F9294" width="2.951" height="2.95"/>
					
						<rect x="539.909" y="443.89" transform="matrix(-0.7071 -0.7071 0.7071 -0.7071 609.1721 1142.842)" fill="#8F9294" width="2.735" height="2.734"/>
					
						<rect x="528.098" y="432.079" transform="matrix(-0.7071 -0.7071 0.7071 -0.7071 597.2518 1114.0656)" fill="#8F9294" width="2.518" height="2.518"/>
					
						<rect x="516.286" y="420.267" transform="matrix(-0.7073 -0.7069 0.7069 -0.7073 585.531 1085.2679)" fill="#8F9294" width="2.302" height="2.302"/>
					
						<rect x="504.474" y="408.455" transform="matrix(-0.7071 -0.7071 0.7071 -0.7071 573.412 1056.5111)" fill="#8F9294" width="2.085" height="2.085"/>
					
						<rect x="492.663" y="396.644" transform="matrix(-0.7071 -0.7071 0.7071 -0.7071 561.4934 1027.7354)" fill="#8F9294" width="1.869" height="1.869"/>
				</g>
			</g>
			<g>
				<g>
					
						<rect x="612.934" y="536.229" transform="matrix(-0.7071 -0.7071 0.7071 -0.7071 669.2957 1353.9384)" fill="#8F9294" width="4.248" height="4.248"/>
					
						<rect x="601.122" y="524.418" transform="matrix(-0.7071 -0.7071 0.7071 -0.7071 657.3754 1325.162)" fill="#8F9294" width="4.031" height="4.032"/>
					
						<rect x="589.31" y="512.606" transform="matrix(-0.7072 -0.707 0.707 -0.7072 645.5969 1296.3749)" fill="#8F9294" width="3.815" height="3.816"/>
					
						<rect x="577.498" y="500.795" transform="matrix(-0.7071 -0.7071 0.7071 -0.7071 633.5352 1267.6083)" fill="#8F9294" width="3.599" height="3.599"/>
					
						<rect x="565.686" y="488.983" transform="matrix(-0.7071 -0.7071 0.7071 -0.7071 621.6156 1238.8302)" fill="#8F9294" width="3.384" height="3.383"/>
					
						<rect x="553.875" y="477.171" transform="matrix(-0.7071 -0.7071 0.7071 -0.7071 609.6953 1210.0538)" fill="#8F9294" width="3.167" height="3.167"/>
					
						<rect x="542.064" y="465.36" transform="matrix(-0.7071 -0.7071 0.7071 -0.7071 597.777 1181.2773)" fill="#8F9294" width="2.95" height="2.95"/>
					
						<rect x="530.253" y="453.549" transform="matrix(-0.7071 -0.7071 0.7071 -0.7071 585.8568 1152.5009)" fill="#8F9294" width="2.733" height="2.734"/>
					
						<rect x="518.44" y="441.736" transform="matrix(-0.7071 -0.7071 0.7071 -0.7071 573.9373 1123.7228)" fill="#8F9294" width="2.518" height="2.518"/>
					
						<rect x="506.629" y="429.925" transform="matrix(-0.7071 -0.7071 0.7071 -0.7071 562.017 1094.9464)" fill="#8F9294" width="2.301" height="2.302"/>
					
						<rect x="494.817" y="418.113" transform="matrix(-0.7071 -0.7071 0.7071 -0.7071 550.097 1066.1692)" fill="#8F9294" width="2.085" height="2.085"/>
					
						<rect x="483.005" y="406.302" transform="matrix(-0.7068 -0.7074 0.7074 -0.7068 537.9443 1037.4119)" fill="#8F9294" width="1.869" height="1.869"/>
				</g>
			</g>
			<g>
				<g>
					
						<rect x="603.275" y="545.887" transform="matrix(-0.7072 -0.707 0.707 -0.7072 646.1113 1363.59)" fill="#8F9294" width="4.249" height="4.249"/>
					
						<rect x="591.464" y="534.076" transform="matrix(-0.707 -0.7072 0.7072 -0.707 633.924 1334.826)" fill="#8F9294" width="4.032" height="4.031"/>
					
						<rect x="579.653" y="522.264" transform="matrix(-0.707 -0.7072 0.7072 -0.707 621.999 1306.05)" fill="#8F9294" width="3.815" height="3.815"/>
					
						<rect x="567.841" y="510.452" transform="matrix(-0.7071 -0.7071 0.7071 -0.7071 610.2206 1277.2655)" fill="#8F9294" width="3.599" height="3.599"/>
					
						<rect x="556.03" y="498.641" transform="matrix(-0.7071 -0.7071 0.7071 -0.7071 598.3003 1248.4891)" fill="#8F9294" width="3.382" height="3.383"/>
					
						<rect x="544.217" y="486.829" transform="matrix(-0.7071 -0.7071 0.7071 -0.7071 586.3807 1219.7111)" fill="#8F9294" width="3.167" height="3.167"/>
					
						<rect x="532.406" y="475.017" transform="matrix(-0.7071 -0.7071 0.7071 -0.7071 574.4604 1190.9346)" fill="#8F9294" width="2.95" height="2.951"/>
					
						<rect x="520.594" y="463.206" transform="matrix(-0.7071 -0.7071 0.7071 -0.7071 562.5405 1162.1575)" fill="#8F9294" width="2.735" height="2.734"/>
					
						<rect x="508.782" y="451.394" transform="matrix(-0.7071 -0.7071 0.7071 -0.7071 550.6202 1133.381)" fill="#8F9294" width="2.518" height="2.518"/>
					
						<rect x="496.97" y="439.582" transform="matrix(-0.7071 -0.7071 0.7071 -0.7071 538.7007 1104.6029)" fill="#8F9294" width="2.302" height="2.302"/>
					
						<rect x="485.16" y="427.771" transform="matrix(-0.7069 -0.7073 0.7073 -0.7069 526.5678 1075.8406)" fill="#8F9294" width="2.085" height="2.085"/>
					
						<rect x="473.348" y="415.959" transform="matrix(-0.7071 -0.7071 0.7071 -0.7071 514.8621 1047.05)" fill="#8F9294" width="1.869" height="1.869"/>
				</g>
			</g>
			<g>
				<g>
					
						<rect x="593.618" y="555.545" transform="matrix(-0.7071 -0.7071 0.7071 -0.7071 622.6641 1373.2538)" fill="#8F9294" width="4.248" height="4.248"/>
					
						<rect x="581.806" y="543.733" transform="matrix(-0.7072 -0.707 0.707 -0.7072 610.8809 1344.4719)" fill="#8F9294" width="4.032" height="4.032"/>
					
						<rect x="569.995" y="531.922" transform="matrix(-0.7072 -0.707 0.707 -0.7072 598.9653 1315.6953)" fill="#8F9294" width="3.815" height="3.816"/>
					
						<rect x="558.183" y="520.109" transform="matrix(-0.7072 -0.707 0.707 -0.7072 587.0508 1286.9177)" fill="#8F9294" width="3.6" height="3.6"/>
					
						<rect x="546.372" y="508.299" transform="matrix(-0.707 -0.7073 0.7073 -0.707 574.833 1258.1519)" fill="#8F9294" width="3.383" height="3.382"/>
					
						<rect x="534.56" y="496.487" transform="matrix(-0.7071 -0.7071 0.7071 -0.7071 563.0658 1229.3691)" fill="#8F9294" width="3.167" height="3.166"/>
					
						<rect x="522.749" y="484.675" transform="matrix(-0.7071 -0.7071 0.7071 -0.7071 551.1455 1200.5927)" fill="#8F9294" width="2.95" height="2.95"/>
					
						<rect x="510.936" y="472.863" transform="matrix(-0.7071 -0.7071 0.7071 -0.7071 539.2256 1171.8154)" fill="#8F9294" width="2.735" height="2.735"/>
					
						<rect x="499.125" y="461.052" transform="matrix(-0.7071 -0.7071 0.7071 -0.7071 527.3057 1143.0382)" fill="#8F9294" width="2.518" height="2.518"/>
					
						<rect x="487.313" y="449.24" transform="matrix(-0.7073 -0.7069 0.7069 -0.7073 515.5845 1114.2537)" fill="#8F9294" width="2.302" height="2.302"/>
					
						<rect x="475.501" y="437.428" transform="matrix(-0.7071 -0.7071 0.7071 -0.7071 503.4658 1085.4838)" fill="#8F9294" width="2.085" height="2.085"/>
					
						<rect x="463.689" y="425.616" transform="matrix(-0.7074 -0.7068 0.7068 -0.7074 491.7783 1056.6974)" fill="#8F9294" width="1.869" height="1.87"/>
				</g>
			</g>
			<g>
				<g>
					
						<rect x="583.961" y="565.202" transform="matrix(-0.7071 -0.7071 0.7071 -0.7071 599.3494 1382.911)" fill="#8F9294" width="4.248" height="4.248"/>
					
						<rect x="572.149" y="553.391" transform="matrix(-0.707 -0.7072 0.7072 -0.707 587.2924 1354.1368)" fill="#8F9294" width="4.032" height="4.031"/>
					
						<rect x="560.337" y="541.579" transform="matrix(-0.7071 -0.7071 0.7071 -0.7071 575.5093 1325.3573)" fill="#8F9294" width="3.816" height="3.815"/>
					
						<rect x="548.526" y="529.768" transform="matrix(-0.7071 -0.7071 0.7071 -0.7071 563.589 1296.5809)" fill="#8F9294" width="3.599" height="3.599"/>
					
						<rect x="536.713" y="517.956" transform="matrix(-0.7071 -0.7071 0.7071 -0.7071 551.6694 1267.8029)" fill="#8F9294" width="3.384" height="3.383"/>
					
						<rect x="524.902" y="506.144" transform="matrix(-0.7071 -0.7071 0.7071 -0.7071 539.7491 1239.0265)" fill="#8F9294" width="3.167" height="3.167"/>
					
						<rect x="513.09" y="494.332" transform="matrix(-0.7073 -0.7069 0.7069 -0.7073 527.9965 1210.2461)" fill="#8F9294" width="2.951" height="2.951"/>
					
						<rect x="501.28" y="482.521" transform="matrix(-0.7071 -0.7071 0.7071 -0.7071 515.9106 1181.4735)" fill="#8F9294" width="2.733" height="2.734"/>
					
						<rect x="489.468" y="470.709" transform="matrix(-0.7071 -0.7071 0.7071 -0.7071 503.991 1152.6954)" fill="#8F9294" width="2.518" height="2.518"/>
					
						<rect x="477.656" y="458.898" transform="matrix(-0.7069 -0.7073 0.7073 -0.7069 491.8717 1123.923)" fill="#8F9294" width="2.302" height="2.301"/>
					
						<rect x="465.844" y="447.086" transform="matrix(-0.7071 -0.7071 0.7071 -0.7071 480.1505 1095.1426)" fill="#8F9294" width="2.085" height="2.085"/>
					
						<rect x="454.033" y="435.275" transform="matrix(-0.7071 -0.7071 0.7071 -0.7071 468.2306 1066.3655)" fill="#8F9294" width="1.869" height="1.869"/>
				</g>
			</g>
			<g>
				<g>
					
						<rect x="574.303" y="574.86" transform="matrix(-0.7071 -0.7071 0.7071 -0.7071 576.0325 1392.5692)" fill="#8F9294" width="4.248" height="4.248"/>
					
						<rect x="562.491" y="563.048" transform="matrix(-0.7072 -0.707 0.707 -0.7072 564.2493 1363.792)" fill="#8F9294" width="4.032" height="4.032"/>
					
						<rect x="550.68" y="551.237" transform="matrix(-0.707 -0.7072 0.7072 -0.707 552.0527 1335.0154)" fill="#8F9294" width="3.815" height="3.815"/>
					
						<rect x="538.868" y="539.425" transform="matrix(-0.7071 -0.7071 0.7071 -0.7071 540.2744 1306.2382)" fill="#8F9294" width="3.599" height="3.599"/>
					
						<rect x="527.057" y="527.614" transform="matrix(-0.7071 -0.7071 0.7071 -0.7071 528.3541 1277.4618)" fill="#8F9294" width="3.382" height="3.383"/>
					
						<rect x="515.245" y="515.802" transform="matrix(-0.7073 -0.707 0.707 -0.7073 516.5937 1248.6846)" fill="#8F9294" width="3.166" height="3.167"/>
					
						<rect x="503.433" y="503.99" transform="matrix(-0.7069 -0.7073 0.7073 -0.7069 504.347 1219.9072)" fill="#8F9294" width="2.951" height="2.95"/>
					
						<rect x="491.621" y="492.178" transform="matrix(-0.7071 -0.7071 0.7071 -0.7071 492.5943 1191.13)" fill="#8F9294" width="2.735" height="2.734"/>
					
						<rect x="479.81" y="480.367" transform="matrix(-0.7071 -0.7071 0.7071 -0.7071 480.6741 1162.3536)" fill="#8F9294" width="2.518" height="2.518"/>
					
						<rect x="467.998" y="468.555" transform="matrix(-0.7073 -0.7069 0.7069 -0.7073 468.9533 1133.5765)" fill="#8F9294" width="2.302" height="2.302"/>
					
						<rect x="456.187" y="456.744" transform="matrix(-0.7069 -0.7073 0.7073 -0.7069 456.6216 1104.7997)" fill="#8F9294" width="2.085" height="2.085"/>
					
						<rect x="444.375" y="444.932" transform="matrix(-0.7071 -0.7071 0.7071 -0.7071 444.916 1076.0227)" fill="#8F9294" width="1.869" height="1.869"/>
				</g>
			</g>
			<g>
				<g>
					
						<rect x="564.645" y="584.518" transform="matrix(-0.7071 -0.7071 0.7071 -0.7071 552.7179 1402.2264)" fill="#8F9294" width="4.248" height="4.248"/>
					
						<rect x="552.834" y="572.706" transform="matrix(-0.7071 -0.7071 0.7071 -0.7071 540.7976 1373.45)" fill="#8F9294" width="4.031" height="4.032"/>
					
						<rect x="541.022" y="560.894" transform="matrix(-0.7072 -0.707 0.707 -0.7072 529.0192 1344.6753)" fill="#8F9294" width="3.815" height="3.816"/>
					
						<rect x="529.21" y="549.083" transform="matrix(-0.707 -0.7072 0.7072 -0.707 516.8109 1315.8928)" fill="#8F9294" width="3.6" height="3.599"/>
					
						<rect x="517.398" y="537.271" transform="matrix(-0.7071 -0.7071 0.7071 -0.7071 505.0378 1287.1183)" fill="#8F9294" width="3.384" height="3.383"/>
					
						<rect x="505.588" y="525.46" transform="matrix(-0.707 -0.7073 0.7073 -0.707 492.9597 1258.3396)" fill="#8F9294" width="3.166" height="3.166"/>
					
						<rect x="493.776" y="513.648" transform="matrix(-0.7071 -0.7071 0.7071 -0.7071 481.1993 1229.5653)" fill="#8F9294" width="2.95" height="2.95"/>
					
						<rect x="481.964" y="501.836" transform="matrix(-0.7069 -0.7073 0.7073 -0.7069 469.1033 1200.7845)" fill="#8F9294" width="2.734" height="2.734"/>
					
						<rect x="470.152" y="490.024" transform="matrix(-0.7071 -0.7071 0.7071 -0.7071 457.3595 1172.0109)" fill="#8F9294" width="2.518" height="2.518"/>
					
						<rect x="458.341" y="478.213" transform="matrix(-0.7071 -0.7071 0.7071 -0.7071 445.4392 1143.2345)" fill="#8F9294" width="2.301" height="2.302"/>
					
						<rect x="446.529" y="466.401" transform="matrix(-0.7073 -0.7069 0.7069 -0.7073 433.7335 1114.4619)" fill="#8F9294" width="2.085" height="2.085"/>
					
						<rect x="434.717" y="454.59" transform="matrix(-0.7068 -0.7074 0.7074 -0.7068 421.3666 1085.6748)" fill="#8F9294" width="1.869" height="1.869"/>
				</g>
			</g>
			<g>
				<g>
					
						<rect x="554.987" y="594.175" transform="matrix(-0.7072 -0.707 0.707 -0.7072 529.5335 1411.8892)" fill="#8F9294" width="4.249" height="4.249"/>
					
						<rect x="543.176" y="582.364" transform="matrix(-0.707 -0.7072 0.7072 -0.707 517.3463 1383.1025)" fill="#8F9294" width="4.032" height="4.031"/>
					
						<rect x="531.365" y="570.552" transform="matrix(-0.7071 -0.7071 0.7071 -0.7071 505.5627 1354.3308)" fill="#8F9294" width="3.816" height="3.816"/>
					
						<rect x="519.553" y="558.74" transform="matrix(-0.7071 -0.7071 0.7071 -0.7071 493.6428 1325.5536)" fill="#8F9294" width="3.599" height="3.599"/>
					
						<rect x="507.741" y="546.929" transform="matrix(-0.7071 -0.7071 0.7071 -0.7071 481.7225 1296.7772)" fill="#8F9294" width="3.382" height="3.383"/>
					
						<rect x="495.929" y="535.117" transform="matrix(-0.7071 -0.7071 0.7071 -0.7071 469.8029 1267.9991)" fill="#8F9294" width="3.167" height="3.167"/>
					
						<rect x="484.117" y="523.305" transform="matrix(-0.7073 -0.7069 0.7069 -0.7073 458.05 1239.2292)" fill="#8F9294" width="2.951" height="2.951"/>
					
						<rect x="472.306" y="511.494" transform="matrix(-0.7073 -0.7069 0.7069 -0.7073 446.1389 1210.4524)" fill="#8F9294" width="2.734" height="2.735"/>
					
						<rect x="460.494" y="499.683" transform="matrix(-0.7071 -0.7071 0.7071 -0.7071 434.0425 1181.6691)" fill="#8F9294" width="2.518" height="2.518"/>
					
						<rect x="448.683" y="487.871" transform="matrix(-0.7069 -0.7073 0.7073 -0.7069 421.9255 1152.8834)" fill="#8F9294" width="2.302" height="2.301"/>
					
						<rect x="436.871" y="476.059" transform="matrix(-0.7071 -0.7071 0.7071 -0.7071 410.2043 1124.1154)" fill="#8F9294" width="2.085" height="2.085"/>
					
						<rect x="425.06" y="464.247" transform="matrix(-0.7071 -0.7071 0.7071 -0.7071 398.2844 1095.338)" fill="#8F9294" width="1.869" height="1.869"/>
				</g>
			</g>
			<g>
				<g>
					
						<rect x="545.33" y="603.833" transform="matrix(-0.7071 -0.7071 0.7071 -0.7071 506.0863 1421.5419)" fill="#8F9294" width="4.248" height="4.248"/>
					
						<rect x="533.518" y="592.021" transform="matrix(-0.7072 -0.707 0.707 -0.7072 494.3027 1392.7725)" fill="#8F9294" width="4.032" height="4.033"/>
					
						<rect x="521.706" y="580.209" transform="matrix(-0.7071 -0.7071 0.7071 -0.7071 482.2464 1363.9874)" fill="#8F9294" width="3.816" height="3.816"/>
					
						<rect x="509.894" y="568.397" transform="matrix(-0.7072 -0.707 0.707 -0.7072 470.4734 1335.218)" fill="#8F9294" width="3.6" height="3.6"/>
					
						<rect x="498.084" y="556.586" transform="matrix(-0.7071 -0.7071 0.7071 -0.7071 458.4079 1306.4344)" fill="#8F9294" width="3.382" height="3.383"/>
					
						<rect x="486.272" y="544.775" transform="matrix(-0.7071 -0.7071 0.7071 -0.7071 446.4877 1277.658)" fill="#8F9294" width="3.167" height="3.167"/>
					
						<rect x="474.46" y="532.963" transform="matrix(-0.7069 -0.7073 0.7073 -0.7069 434.4008 1248.8702)" fill="#8F9294" width="2.951" height="2.95"/>
					
						<rect x="462.648" y="521.151" transform="matrix(-0.7071 -0.7071 0.7071 -0.7071 422.6481 1220.1028)" fill="#8F9294" width="2.735" height="2.734"/>
					
						<rect x="450.837" y="509.34" transform="matrix(-0.7071 -0.7071 0.7071 -0.7071 410.7279 1191.3263)" fill="#8F9294" width="2.518" height="2.518"/>
					
						<rect x="439.025" y="497.528" transform="matrix(-0.7073 -0.7069 0.7069 -0.7073 399.0071 1162.5615)" fill="#8F9294" width="2.302" height="2.302"/>
					
						<rect x="427.213" y="485.716" transform="matrix(-0.7071 -0.7071 0.7071 -0.7071 386.8881 1133.7719)" fill="#8F9294" width="2.085" height="2.085"/>
					
						<rect x="415.401" y="473.904" transform="matrix(-0.7074 -0.7068 0.7068 -0.7074 375.2009 1105.0099)" fill="#8F9294" width="1.869" height="1.869"/>
				</g>
			</g>
			<g>
				<g>
					
						<rect x="535.673" y="613.49" transform="matrix(-0.7071 -0.7071 0.7071 -0.7071 482.7717 1431.1991)" fill="#8F9294" width="4.248" height="4.248"/>
					
						<rect x="523.861" y="601.679" transform="matrix(-0.7071 -0.7071 0.7071 -0.7071 470.8514 1402.4227)" fill="#8F9294" width="4.031" height="4.032"/>
					
						<rect x="512.049" y="589.867" transform="matrix(-0.7071 -0.7071 0.7071 -0.7071 458.9315 1373.6454)" fill="#8F9294" width="3.816" height="3.815"/>
					
						<rect x="500.238" y="578.056" transform="matrix(-0.7071 -0.7071 0.7071 -0.7071 447.0112 1344.869)" fill="#8F9294" width="3.599" height="3.599"/>
					
						<rect x="488.425" y="566.244" transform="matrix(-0.7071 -0.7071 0.7071 -0.7071 435.0916 1316.0909)" fill="#8F9294" width="3.384" height="3.383"/>
					
						<rect x="476.614" y="554.432" transform="matrix(-0.7071 -0.7071 0.7071 -0.7071 423.1714 1287.3146)" fill="#8F9294" width="3.167" height="3.167"/>
					
						<rect x="464.802" y="542.62" transform="matrix(-0.7073 -0.7069 0.7069 -0.7073 411.4187 1258.5502)" fill="#8F9294" width="2.951" height="2.951"/>
					
						<rect x="452.992" y="530.809" transform="matrix(-0.7071 -0.7071 0.7071 -0.7071 399.3329 1229.7616)" fill="#8F9294" width="2.733" height="2.734"/>
					
						<rect x="441.18" y="518.997" transform="matrix(-0.7071 -0.7071 0.7071 -0.7071 387.4133 1200.9835)" fill="#8F9294" width="2.518" height="2.518"/>
					
						<rect x="429.368" y="507.186" transform="matrix(-0.7071 -0.7071 0.7071 -0.7071 375.493 1172.2072)" fill="#8F9294" width="2.301" height="2.302"/>
					
						<rect x="417.556" y="495.374" transform="matrix(-0.7071 -0.7071 0.7071 -0.7071 363.5731 1143.4299)" fill="#8F9294" width="2.085" height="2.085"/>
					
						<rect x="405.744" y="483.563" transform="matrix(-0.7071 -0.7071 0.7071 -0.7071 351.6528 1114.6536)" fill="#8F9294" width="1.869" height="1.869"/>
				</g>
			</g>
		</g>
		<path clip-path="url(#SVGID_2_)" fill="#FDFDFD" d="M750.498,275.471c-14.279,0-25.854,11.575-25.854,25.854
			s11.575,25.854,25.854,25.854s25.855-11.575,25.855-25.854S764.777,275.471,750.498,275.471z M750.498,313.415
			c-6.677,0-12.09-5.413-12.09-12.09s5.413-12.09,12.09-12.09c6.678,0,12.09,5.413,12.09,12.09S757.176,313.415,750.498,313.415z"/>
		<g clip-path="url(#SVGID_2_)">
			<defs>
				<circle id="SVGID_3_" cx="524.832" cy="194.127" r="55.098"/>
			</defs>
			<clipPath id="SVGID_4_">
				<use xlink:href="#SVGID_3_"  overflow="visible"/>
			</clipPath>
			<path clip-path="url(#SVGID_4_)" fill="none" stroke="#606060" stroke-width="0.6545" stroke-miterlimit="10" d="
				M510.654,136.445c-15.238,16.176-31.602,31.23-46.845,47.47"/>
			<path clip-path="url(#SVGID_4_)" fill="none" stroke="#606060" stroke-width="0.6545" stroke-miterlimit="10" d="
				M517.626,136.393c-16.974,18.191-35.955,35.864-53.854,53.829"/>
			<path clip-path="url(#SVGID_4_)" fill="none" stroke="#606060" stroke-width="0.6545" stroke-miterlimit="10" d="
				M524.073,136.404c-20.148,20.145-40.439,40.436-60.429,60.44"/>
			<path clip-path="url(#SVGID_4_)" fill="none" stroke="#606060" stroke-width="0.6545" stroke-miterlimit="10" d="M530.464,136.55
				c-21.957,21.961-44.212,44.216-66.77,66.757"/>
			<path clip-path="url(#SVGID_4_)" fill="none" stroke="#606060" stroke-width="0.6545" stroke-miterlimit="10" d="
				M538.297,136.489c-24.554,23.987-49.427,48.205-74.528,73.141"/>
			<path clip-path="url(#SVGID_4_)" fill="none" stroke="#606060" stroke-width="0.6545" stroke-miterlimit="10" d="
				M543.431,136.579c-25.76,26.515-51.287,51.387-77.47,78.224c-0.654,0.654-1.963,0.654-2.31,1.552"/>
			<path clip-path="url(#SVGID_4_)" fill="none" stroke="#606060" stroke-width="0.6545" stroke-miterlimit="10" d="M550.546,136.46
				c-15.856,16.815-32.875,31.87-49.894,48.888c-12.437,13.091-24.873,24.219-36.79,37.285"/>
			<path clip-path="url(#SVGID_4_)" fill="none" stroke="#606060" stroke-width="0.6545" stroke-miterlimit="10" d="
				M554.963,137.765c-30.092,30.565-61.511,60.02-91.192,91.407"/>
			<path clip-path="url(#SVGID_4_)" fill="none" stroke="#606060" stroke-width="0.6545" stroke-miterlimit="10" d="M554.9,144.249
				c-30.029,29.972-60.794,60.736-91.021,91.135"/>
			<path clip-path="url(#SVGID_4_)" fill="none" stroke="#606060" stroke-width="0.6545" stroke-miterlimit="10" d="
				M558.198,147.767c-31.364,31.69-63.437,62.454-94.301,94.201"/>
			<path clip-path="url(#SVGID_4_)" fill="none" stroke="#606060" stroke-width="0.6545" stroke-miterlimit="10" d="
				M564.719,147.736c-33.957,33.685-66.685,68.376-101.103,101.011"/>
			<path clip-path="url(#SVGID_4_)" fill="none" stroke="#606060" stroke-width="0.6545" stroke-miterlimit="10" d="M570.758,147.97
				c-34.76,34.76-68.796,68.796-103.553,103.553"/>
			<path clip-path="url(#SVGID_4_)" fill="none" stroke="#606060" stroke-width="0.6545" stroke-miterlimit="10" d="
				M577.117,147.974c-34.573,34.102-68.61,68.793-103.503,103.608"/>
			<path clip-path="url(#SVGID_4_)" fill="none" stroke="#606060" stroke-width="0.6545" stroke-miterlimit="10" d="M580.54,150.913
				c-33.415,33.126-66.143,67.163-100.483,100.695"/>
			<path clip-path="url(#SVGID_4_)" fill="none" stroke="#606060" stroke-width="0.6545" stroke-miterlimit="10" d="M580.738,157.09
				c-31.649,31.531-61.759,64.259-94.209,94.515"/>
			<path clip-path="url(#SVGID_4_)" fill="none" stroke="#606060" stroke-width="0.6545" stroke-miterlimit="10" d="M580.498,164.17
				c-29.445,29.033-58.245,58.488-87.47,87.403"/>
			<path clip-path="url(#SVGID_4_)" fill="none" stroke="#606060" stroke-width="0.6545" stroke-miterlimit="10" d="
				M580.688,170.165c-27.018,26.966-53.854,54.457-81.135,81.353"/>
			<path clip-path="url(#SVGID_4_)" fill="none" stroke="#606060" stroke-width="0.6545" stroke-miterlimit="10" d="
				M580.616,176.763c-24.981,24.949-49.854,49.822-74.674,74.833"/>
			<path clip-path="url(#SVGID_4_)" fill="none" stroke="#606060" stroke-width="0.6545" stroke-miterlimit="10" d="
				M580.692,183.234c-22.439,23.06-45.349,45.969-68.185,68.266"/>
			<path clip-path="url(#SVGID_4_)" fill="none" stroke="#606060" stroke-width="0.6545" stroke-miterlimit="10" d="M580.61,189.833
				c-20.394,20.388-41.34,41.334-61.679,61.712"/>
			<path clip-path="url(#SVGID_4_)" fill="none" stroke="#606060" stroke-width="0.6545" stroke-miterlimit="10" d="
				M580.439,196.537c-18.26,18.266-36.587,36.593-55.07,55.039"/>
			<path clip-path="url(#SVGID_4_)" fill="none" stroke="#606060" stroke-width="0.6545" stroke-miterlimit="10" d="
				M580.639,202.602c-12.705,12.65-25.393,25.319-38.014,38.054c-3.608,3.641-7.211,7.288-10.808,10.94"/>
			<path clip-path="url(#SVGID_4_)" fill="none" stroke="#606060" stroke-width="0.6545" stroke-miterlimit="10" d="
				M580.592,209.851c-13.83,14.116-28.23,28.516-42.316,41.755"/>
		</g>
		
			<circle clip-path="url(#SVGID_2_)" fill="none" stroke="#606060" stroke-width="0.6545" stroke-miterlimit="10" cx="589.794" cy="236.268" r="5.363"/>
		<circle clip-path="url(#SVGID_2_)" fill="none" stroke="#8F9294" stroke-miterlimit="10" cx="129.614" cy="385.883" r="5.363"/>
	</g>
</g>
</svg>
