<?xml version="1.0" encoding="utf-8"?>
<!-- Generator: Adobe Illustrator 16.0.0, SVG Export Plug-In . SVG Version: 6.00 Build 0)  -->
<!DOCTYPE svg PUBLIC "-//W3C//DTD SVG 1.1//EN" "http://www.w3.org/Graphics/SVG/1.1/DTD/svg11.dtd">
<svg version="1.1" xmlns="http://www.w3.org/2000/svg" xmlns:xlink="http://www.w3.org/1999/xlink" x="0px" y="0px" width="750px"
	 height="500px" viewBox="0 0 750 500" enable-background="new 0 0 750 500" xml:space="preserve">
<g id="BACKGROUND">
</g>
<g id="OBJECTS">
	<g>
		<defs>
			<rect id="SVGID_1_" width="750" height="500"/>
		</defs>
		<clipPath id="SVGID_2_">
			<use xlink:href="#SVGID_1_"  overflow="visible"/>
		</clipPath>
		<g clip-path="url(#SVGID_2_)">
			<path fill="none" stroke="#8F9294" stroke-width="1.0782" stroke-miterlimit="10" d="M53.172-100.589L-85.069,37.653
				c0.64,3.953,1.47,7.84,2.484,11.654L64.827-98.105C61.013-99.119,57.125-99.949,53.172-100.589z"/>
			<path fill="none" stroke="#8F9294" stroke-width="1.0782" stroke-miterlimit="10" d="M64.827-98.105L-82.585,49.307
				c0.971,3.651,2.099,7.237,3.396,10.743L75.57-94.709C72.064-96.006,68.478-97.133,64.827-98.105z"/>
			<path fill="none" stroke="#8F9294" stroke-width="1.0782" stroke-miterlimit="10" d="M111.298-73.881L-58.361,95.778
				c2.15,2.554,4.394,5.027,6.746,7.393L118.691-67.135C116.325-69.487,113.852-71.731,111.298-73.881z"/>
			<path fill="none" stroke="#8F9294" stroke-width="1.0782" stroke-miterlimit="10" d="M103.315-80.038L-64.518,87.796
				c1.946,2.746,3.993,5.413,6.157,7.982l169.659-169.66C108.729-76.044,106.062-78.092,103.315-80.038z"/>
			<path fill="none" stroke="#8F9294" stroke-width="1.0782" stroke-miterlimit="10" d="M85.51-90.51l-160.5,160.5
				c1.503,3.156,3.154,6.226,4.917,9.223L94.732-85.594C91.735-87.356,88.666-89.007,85.51-90.51z"/>
			<path fill="none" stroke="#8F9294" stroke-width="1.0782" stroke-miterlimit="10" d="M94.732-85.594L-70.074,79.213
				c1.731,2.945,3.588,5.805,5.556,8.583L103.315-80.038C100.538-82.006,97.678-83.862,94.732-85.594z"/>
			<path fill="none" stroke="#8F9294" stroke-width="1.0782" stroke-miterlimit="10" d="M75.57-94.709L-79.189,60.05
				c1.253,3.388,2.657,6.703,4.199,9.94l160.5-160.5C82.273-92.052,78.958-93.455,75.57-94.709z"/>
			<path fill="none" stroke="#8F9294" stroke-width="1.0782" stroke-miterlimit="10" d="M-78.36-25.613l68.267-68.267
				C-41.295-81.66-66.141-56.815-78.36-25.613z"/>
			<path fill="none" stroke="#8F9294" stroke-width="1.0782" stroke-miterlimit="10" d="M-10.093-93.879L-78.36-25.613
				c-2.521,6.438-4.526,13.133-5.916,20.055L9.962-99.795C3.04-98.406-3.655-96.4-10.093-93.879z"/>
			<path fill="none" stroke="#8F9294" stroke-width="1.0782" stroke-miterlimit="10" d="M40.418-101.974L-86.454,24.898
				c0.234,4.317,0.707,8.57,1.384,12.755L53.172-100.589C48.988-101.267,44.735-101.739,40.418-101.974z"/>
			<path fill="none" stroke="#8F9294" stroke-width="1.0782" stroke-miterlimit="10" d="M33.79-102.163
				c-2.55,0-5.074,0.106-7.584,0.262L-86.381,10.687c-0.156,2.51-0.262,5.034-0.262,7.584c0,2.225,0.07,4.433,0.189,6.627
				L40.418-101.974C38.223-102.093,36.015-102.163,33.79-102.163z"/>
			<path fill="none" stroke="#8F9294" stroke-width="1.0782" stroke-miterlimit="10" d="M9.962-99.795L-84.275-5.558
				c-1.063,5.296-1.762,10.722-2.105,16.245L26.206-101.901C20.684-101.557,15.258-100.858,9.962-99.795z"/>
			<path fill="none" stroke="#8F9294" stroke-width="1.0782" stroke-miterlimit="10" d="M152.497-1.969L13.551,136.977
				c4.157,0.704,8.383,1.2,12.673,1.466L153.963,10.705C153.697,6.414,153.201,2.188,152.497-1.969z"/>
			<path fill="none" stroke="#8F9294" stroke-width="1.0782" stroke-miterlimit="10" d="M154.224,18.271
				c0-2.544-0.105-5.062-0.261-7.566L26.224,138.443c2.504,0.156,5.022,0.261,7.566,0.261c2.178,0,4.341-0.065,6.491-0.179
				L154.044,24.762C154.159,22.612,154.224,20.449,154.224,18.271z"/>
			<path fill="none" stroke="#8F9294" stroke-width="1.0782" stroke-miterlimit="10" d="M154.044,24.762L40.281,138.525
				c5.477-0.291,10.849-0.97,16.108-1.969l95.687-95.686C153.074,35.61,153.753,30.239,154.044,24.762z"/>
			<path fill="none" stroke="#8F9294" stroke-width="1.0782" stroke-miterlimit="10" d="M152.076,40.87l-95.687,95.686
				c6.755-1.283,13.313-3.117,19.617-5.478l70.592-70.591C148.958,54.182,150.792,47.625,152.076,40.87z"/>
			<path fill="none" stroke="#8F9294" stroke-width="1.0782" stroke-miterlimit="10" d="M146.598,60.486l-70.592,70.591
				C108.553,118.892,134.411,93.034,146.598,60.486z"/>
			<path fill="none" stroke="#8F9294" stroke-width="1.0782" stroke-miterlimit="10" d="M149.942-13.553L1.967,134.422
				c3.791,1.036,7.654,1.889,11.584,2.555L152.497-1.969C151.832-5.898,150.979-9.762,149.942-13.553z"/>
			<path fill="none" stroke="#8F9294" stroke-width="1.0782" stroke-miterlimit="10" d="M131.679-51.845L-36.325,116.159
				c2.762,1.982,5.602,3.86,8.532,5.607L137.286-43.313C135.539-46.243,133.661-49.083,131.679-51.845z"/>
			<path fill="none" stroke="#8F9294" stroke-width="1.0782" stroke-miterlimit="10" d="M125.473-59.778L-44.259,109.954
				c2.555,2.177,5.201,4.245,7.934,6.205L131.679-51.845C129.718-54.577,127.65-57.224,125.473-59.778z"/>
			<path fill="none" stroke="#8F9294" stroke-width="1.0782" stroke-miterlimit="10" d="M146.484-24.233L-8.714,130.964
				c3.485,1.315,7.05,2.465,10.681,3.458L149.942-13.553C148.95-17.184,147.799-20.748,146.484-24.233z"/>
			<path fill="none" stroke="#8F9294" stroke-width="1.0782" stroke-miterlimit="10" d="M118.691-67.135L-51.616,103.171
				c2.352,2.366,4.816,4.617,7.357,6.782L125.473-59.778C123.308-62.319,121.057-64.783,118.691-67.135z"/>
			<path fill="none" stroke="#8F9294" stroke-width="1.0782" stroke-miterlimit="10" d="M142.248-34.137L-18.617,126.729
				c3.221,1.559,6.53,2.963,9.903,4.236L146.484-24.233C145.211-27.607,143.807-30.916,142.248-34.137z"/>
			<path fill="none" stroke="#8F9294" stroke-width="1.0782" stroke-miterlimit="10" d="M137.286-43.313L-27.793,121.766
				c2.981,1.777,6.037,3.442,9.177,4.962L142.248-34.137C140.728-37.277,139.063-40.333,137.286-43.313z"/>
		</g>
		<polygon clip-path="url(#SVGID_2_)" fill="#FDFDFD" points="91.227,130.027 85.162,123.963 76.319,132.807 67.476,123.963 
			61.412,130.027 70.255,138.871 61.412,147.714 67.476,153.778 76.319,144.935 85.162,153.778 91.227,147.714 82.383,138.871 		"/>
		<polygon clip-path="url(#SVGID_2_)" fill="#FF2C2C" points="600.907,307.094 594.843,301.029 586,309.873 577.156,301.029 
			571.092,307.094 579.936,315.937 571.092,324.779 577.156,330.844 586,322 594.843,330.844 600.907,324.779 592.063,315.937 		"/>
		<polygon clip-path="url(#SVGID_2_)" fill="#FF2C2C" points="91.227,185.284 85.162,179.22 76.319,188.063 67.476,179.22 
			61.412,185.284 70.255,194.127 61.412,202.97 67.476,209.034 76.319,200.191 85.162,209.034 91.227,202.97 82.383,194.127 		"/>
		<polygon clip-path="url(#SVGID_2_)" fill="#FDFDFD" points="91.227,240.54 85.162,234.476 76.319,243.319 67.476,234.476 
			61.412,240.54 70.255,249.383 61.412,258.227 67.476,264.291 76.319,255.447 85.162,264.291 91.227,258.227 82.383,249.383 		"/>
		<path clip-path="url(#SVGID_2_)" fill="#FDFDFD" d="M225.333,383.021c-78.013,0-141.255,63.242-141.255,141.255
			c0,78.014,63.242,141.256,141.255,141.256s141.255-63.242,141.255-141.256C366.588,446.264,303.346,383.021,225.333,383.021z
			 M225.333,637.297c-62.419,0-113.02-50.601-113.02-113.021c0-62.419,50.601-113.02,113.02-113.02s113.02,50.601,113.02,113.02
			C338.353,586.696,287.752,637.297,225.333,637.297z"/>
		<g clip-path="url(#SVGID_2_)">
			<g>
				
					<rect x="219.353" y="319.541" fill="none" stroke="#8F9294" stroke-width="1.0782" stroke-miterlimit="10" width="3.969" height="3.97"/>
				
					<rect x="249.688" y="319.541" fill="none" stroke="#8F9294" stroke-width="1.0782" stroke-miterlimit="10" width="3.969" height="3.97"/>
				
					<rect x="280.024" y="319.541" fill="none" stroke="#8F9294" stroke-width="1.0782" stroke-miterlimit="10" width="3.969" height="3.97"/>
				
					<rect x="310.36" y="319.541" fill="none" stroke="#8F9294" stroke-width="1.0782" stroke-miterlimit="10" width="3.969" height="3.97"/>
				
					<rect x="340.695" y="319.541" fill="none" stroke="#8F9294" stroke-width="1.0782" stroke-miterlimit="10" width="3.969" height="3.97"/>
				
					<rect x="371.031" y="319.541" fill="none" stroke="#8F9294" stroke-width="1.0782" stroke-miterlimit="10" width="3.969" height="3.97"/>
			</g>
			<g>
				
					<rect x="219.353" y="341.655" fill="none" stroke="#8F9294" stroke-width="1.0782" stroke-miterlimit="10" width="3.969" height="3.969"/>
				
					<rect x="249.688" y="341.655" fill="none" stroke="#FF2C2C" stroke-width="1.0782" stroke-miterlimit="10" width="3.969" height="3.969"/>
				
					<rect x="280.024" y="341.655" fill="none" stroke="#8F9294" stroke-width="1.0782" stroke-miterlimit="10" width="3.969" height="3.969"/>
				
					<rect x="310.36" y="341.655" fill="none" stroke="#8F9294" stroke-width="1.0782" stroke-miterlimit="10" width="3.969" height="3.969"/>
				
					<rect x="340.695" y="341.655" fill="none" stroke="#8F9294" stroke-width="1.0782" stroke-miterlimit="10" width="3.969" height="3.969"/>
				
					<rect x="371.031" y="341.655" fill="none" stroke="#8F9294" stroke-width="1.0782" stroke-miterlimit="10" width="3.969" height="3.969"/>
			</g>
			<g>
				
					<rect x="219.353" y="363.769" fill="none" stroke="#8F9294" stroke-width="1.0782" stroke-miterlimit="10" width="3.969" height="3.97"/>
				
					<rect x="249.688" y="363.769" fill="none" stroke="#8F9294" stroke-width="1.0782" stroke-miterlimit="10" width="3.969" height="3.97"/>
				
					<rect x="280.024" y="363.769" fill="none" stroke="#8F9294" stroke-width="1.0782" stroke-miterlimit="10" width="3.969" height="3.97"/>
				
					<rect x="310.36" y="363.769" fill="none" stroke="#FF2C2C" stroke-width="1.0782" stroke-miterlimit="10" width="3.969" height="3.97"/>
				
					<rect x="340.695" y="363.769" fill="none" stroke="#8F9294" stroke-width="1.0782" stroke-miterlimit="10" width="3.969" height="3.97"/>
				
					<rect x="371.031" y="363.769" fill="none" stroke="#8F9294" stroke-width="1.0782" stroke-miterlimit="10" width="3.969" height="3.97"/>
			</g>
			<g>
				
					<rect x="219.353" y="385.883" fill="none" stroke="#8F9294" stroke-width="1.0782" stroke-miterlimit="10" width="3.969" height="3.969"/>
				
					<rect x="249.688" y="385.883" fill="none" stroke="#8F9294" stroke-width="1.0782" stroke-miterlimit="10" width="3.969" height="3.969"/>
				
					<rect x="280.024" y="385.883" fill="none" stroke="#8F9294" stroke-width="1.0782" stroke-miterlimit="10" width="3.969" height="3.969"/>
				
					<rect x="310.36" y="385.883" fill="none" stroke="#8F9294" stroke-width="1.0782" stroke-miterlimit="10" width="3.969" height="3.969"/>
				
					<rect x="340.695" y="385.883" fill="none" stroke="#8F9294" stroke-width="1.0782" stroke-miterlimit="10" width="3.969" height="3.969"/>
				
					<rect x="371.031" y="385.883" fill="none" stroke="#8F9294" stroke-width="1.0782" stroke-miterlimit="10" width="3.969" height="3.969"/>
			</g>
			<g>
				
					<rect x="219.353" y="407.996" fill="none" stroke="#8F9294" stroke-width="1.0782" stroke-miterlimit="10" width="3.969" height="3.97"/>
				<rect x="249.688" y="407.996" fill="#0F1027" width="3.969" height="3.97"/>
				<rect x="280.024" y="407.996" fill="#0F1027" width="3.969" height="3.97"/>
				
					<rect x="310.36" y="407.996" fill="none" stroke="#8F9294" stroke-width="1.0782" stroke-miterlimit="10" width="3.969" height="3.97"/>
				
					<rect x="340.695" y="407.996" fill="none" stroke="#FF2C2C" stroke-width="1.0782" stroke-miterlimit="10" width="3.969" height="3.97"/>
				
					<rect x="371.031" y="407.996" fill="none" stroke="#8F9294" stroke-width="1.0782" stroke-miterlimit="10" width="3.969" height="3.97"/>
			</g>
			<g>
				
					<rect x="219.353" y="430.11" fill="none" stroke="#8F9294" stroke-width="1.0782" stroke-miterlimit="10" width="3.969" height="3.969"/>
				
					<rect x="249.688" y="430.11" fill="none" stroke="#8F9294" stroke-width="1.0782" stroke-miterlimit="10" width="3.969" height="3.969"/>
				
					<rect x="280.024" y="430.11" fill="none" stroke="#8F9294" stroke-width="1.0782" stroke-miterlimit="10" width="3.969" height="3.969"/>
				<rect x="310.36" y="430.11" fill="#0F1027" width="3.969" height="3.969"/>
				
					<rect x="340.695" y="430.11" fill="none" stroke="#8F9294" stroke-width="1.0782" stroke-miterlimit="10" width="3.969" height="3.969"/>
				
					<rect x="371.031" y="430.11" fill="none" stroke="#8F9294" stroke-width="1.0782" stroke-miterlimit="10" width="3.969" height="3.969"/>
			</g>
			<g>
				
					<rect x="219.353" y="452.224" fill="none" stroke="#8F9294" stroke-width="1.0782" stroke-miterlimit="10" width="3.969" height="3.97"/>
				
					<rect x="249.688" y="452.224" fill="none" stroke="#8F9294" stroke-width="1.0782" stroke-miterlimit="10" width="3.969" height="3.97"/>
				
					<rect x="280.024" y="452.224" fill="none" stroke="#8F9294" stroke-width="1.0782" stroke-miterlimit="10" width="3.969" height="3.97"/>
				
					<rect x="310.36" y="452.224" fill="none" stroke="#8F9294" stroke-width="1.0782" stroke-miterlimit="10" width="3.969" height="3.97"/>
				<rect x="340.695" y="452.224" fill="#0F1027" width="3.969" height="3.97"/>
				
					<rect x="371.031" y="452.224" fill="none" stroke="#8F9294" stroke-width="1.0782" stroke-miterlimit="10" width="3.969" height="3.97"/>
			</g>
		</g>
		<g clip-path="url(#SVGID_2_)">
			<path fill="none" stroke="#8F9294" stroke-width="2" stroke-miterlimit="10" d="M106.912,321.472l-212.071,212.07
				c-7.236,7.236-18.968,7.236-26.205,0l0,0c-7.236-7.236-7.236-18.968,0-26.204L80.708,295.267c7.236-7.236,18.969-7.236,26.205,0
				l0,0C114.148,302.503,114.148,314.235,106.912,321.472z"/>
			<path fill="none" stroke="#8F9294" stroke-width="2" stroke-miterlimit="10" d="M94.001,412.306L-67.87,574.177
				c-5.523,5.523-14.479,5.523-20.001,0l0,0c-5.523-5.523-5.523-14.479,0-20.002L74,392.305c5.523-5.523,14.478-5.523,20.001,0l0,0
				C99.524,397.828,99.524,406.782,94.001,412.306z"/>
		</g>
		<g clip-path="url(#SVGID_2_)">
			<polygon fill="#FDFDFD" points="697.221,390.082 687.317,407.234 707.123,407.234 			"/>
			<polygon fill="#FDFDFD" points="697.221,361.354 687.317,378.507 707.123,378.507 			"/>
			<polygon fill="#FF2C2C" points="697.221,245.931 691.476,255.882 702.966,255.882 			"/>
		</g>
		<g clip-path="url(#SVGID_2_)">
			<g>
				
					<line fill="none" stroke="#D8D9DA" stroke-width="0.7797" stroke-miterlimit="10" x1="623.578" y1="447.419" x2="609.999" y2="460.998"/>
				
					<line fill="none" stroke="#D8D9DA" stroke-width="0.7797" stroke-miterlimit="10" x1="630.194" y1="447.419" x2="616.614" y2="460.998"/>
				
					<line fill="none" stroke="#D8D9DA" stroke-width="0.7797" stroke-miterlimit="10" x1="636.81" y1="447.419" x2="623.23" y2="460.998"/>
				
					<line fill="none" stroke="#D8D9DA" stroke-width="0.7797" stroke-miterlimit="10" x1="643.426" y1="447.419" x2="629.846" y2="460.998"/>
				
					<line fill="none" stroke="#D8D9DA" stroke-width="0.7797" stroke-miterlimit="10" x1="650.041" y1="447.419" x2="636.462" y2="460.998"/>
				
					<line fill="none" stroke="#D8D9DA" stroke-width="0.7797" stroke-miterlimit="10" x1="656.656" y1="447.419" x2="643.077" y2="460.998"/>
				
					<line fill="none" stroke="#D8D9DA" stroke-width="0.7797" stroke-miterlimit="10" x1="663.272" y1="447.419" x2="649.692" y2="460.998"/>
				
					<line fill="none" stroke="#D8D9DA" stroke-width="0.7797" stroke-miterlimit="10" x1="669.888" y1="447.419" x2="656.309" y2="460.998"/>
				
					<line fill="none" stroke="#D8D9DA" stroke-width="0.7797" stroke-miterlimit="10" x1="676.503" y1="447.419" x2="662.924" y2="460.998"/>
				
					<line fill="none" stroke="#D8D9DA" stroke-width="0.7797" stroke-miterlimit="10" x1="683.119" y1="447.419" x2="669.539" y2="460.998"/>
				
					<line fill="none" stroke="#D8D9DA" stroke-width="0.7797" stroke-miterlimit="10" x1="689.734" y1="447.419" x2="676.155" y2="460.998"/>
				
					<line fill="none" stroke="#D8D9DA" stroke-width="0.7797" stroke-miterlimit="10" x1="696.35" y1="447.419" x2="682.771" y2="460.998"/>
				
					<line fill="none" stroke="#D8D9DA" stroke-width="0.7797" stroke-miterlimit="10" x1="702.966" y1="447.419" x2="689.387" y2="460.998"/>
			</g>
		</g>
		<rect x="609.999" y="434.213" clip-path="url(#SVGID_2_)" fill="#FF2C2C" width="59.889" height="5.022"/>
		<rect x="677.999" y="434.213" clip-path="url(#SVGID_2_)" fill="#FDFDFD" width="24.967" height="5.022"/>
		<g clip-path="url(#SVGID_2_)">
			<g>
				<circle fill="#606060" stroke="#D8D9DA" stroke-miterlimit="10" cx="668.669" cy="38.46" r="2.089"/>
				<circle fill="none" stroke="#D8D9DA" stroke-width="0.7797" stroke-miterlimit="10" cx="683.989" cy="38.46" r="2.089"/>
				<circle fill="none" stroke="#D8D9DA" stroke-width="0.7797" stroke-miterlimit="10" cx="699.31" cy="38.46" r="2.089"/>
			</g>
			<g>
				<circle fill="none" stroke="#D8D9DA" stroke-width="0.7797" stroke-miterlimit="10" cx="653.349" cy="51.692" r="2.089"/>
				<circle fill="none" stroke="#D8D9DA" stroke-width="0.7797" stroke-miterlimit="10" cx="668.669" cy="51.692" r="2.089"/>
				<circle fill="none" stroke="#D8D9DA" stroke-width="0.7797" stroke-miterlimit="10" cx="683.989" cy="51.692" r="2.089"/>
				<circle fill="none" stroke="#FF2C2C" stroke-miterlimit="10" cx="683.989" cy="63.995" r="2.089"/>
			</g>
		</g>
		<g clip-path="url(#SVGID_2_)">
			<g>
				<g>
					
						<line fill="none" stroke="#8F9294" stroke-width="0.3881" stroke-miterlimit="10" x1="595.157" y1="87.622" x2="595.157" y2="98.579"/>
					
						<line fill="none" stroke="#8F9294" stroke-width="0.3881" stroke-miterlimit="10" x1="589.679" y1="93.101" x2="600.636" y2="93.101"/>
				</g>
				<g>
					
						<line fill="none" stroke="#8F9294" stroke-width="0.3881" stroke-miterlimit="10" x1="625.015" y1="87.622" x2="625.015" y2="98.579"/>
					
						<line fill="none" stroke="#8F9294" stroke-width="0.3881" stroke-miterlimit="10" x1="619.536" y1="93.101" x2="630.493" y2="93.101"/>
				</g>
				<g>
					
						<line fill="none" stroke="#8F9294" stroke-width="0.3881" stroke-miterlimit="10" x1="654.872" y1="87.622" x2="654.872" y2="98.579"/>
					
						<line fill="none" stroke="#8F9294" stroke-width="0.3881" stroke-miterlimit="10" x1="649.394" y1="93.101" x2="660.351" y2="93.101"/>
				</g>
				<g>
					
						<line fill="none" stroke="#8F9294" stroke-width="0.3881" stroke-miterlimit="10" x1="684.729" y1="87.622" x2="684.729" y2="98.579"/>
					
						<line fill="none" stroke="#8F9294" stroke-width="0.3881" stroke-miterlimit="10" x1="679.251" y1="93.101" x2="690.208" y2="93.101"/>
				</g>
			</g>
			<g>
				<g>
					
						<line fill="none" stroke="#8F9294" stroke-width="0.3881" stroke-miterlimit="10" x1="595.157" y1="110.357" x2="595.157" y2="121.314"/>
					
						<line fill="none" stroke="#8F9294" stroke-width="0.3881" stroke-miterlimit="10" x1="589.679" y1="115.836" x2="600.636" y2="115.836"/>
				</g>
				<g>
					
						<line fill="none" stroke="#8F9294" stroke-width="0.3881" stroke-miterlimit="10" x1="625.015" y1="110.357" x2="625.015" y2="121.314"/>
					
						<line fill="none" stroke="#8F9294" stroke-width="0.3881" stroke-miterlimit="10" x1="619.536" y1="115.836" x2="630.493" y2="115.836"/>
				</g>
				<g>
					
						<line fill="none" stroke="#8F9294" stroke-width="0.3881" stroke-miterlimit="10" x1="654.872" y1="110.357" x2="654.872" y2="121.314"/>
					
						<line fill="none" stroke="#8F9294" stroke-width="0.3881" stroke-miterlimit="10" x1="649.394" y1="115.836" x2="660.351" y2="115.836"/>
				</g>
				<g>
					
						<line fill="none" stroke="#8F9294" stroke-width="0.3881" stroke-miterlimit="10" x1="684.729" y1="110.357" x2="684.729" y2="121.314"/>
					
						<line fill="none" stroke="#8F9294" stroke-width="0.3881" stroke-miterlimit="10" x1="679.251" y1="115.836" x2="690.208" y2="115.836"/>
				</g>
			</g>
			<g>
				<g>
					
						<line fill="none" stroke="#8F9294" stroke-width="0.3881" stroke-miterlimit="10" x1="595.157" y1="133.093" x2="595.157" y2="144.05"/>
					
						<line fill="none" stroke="#8F9294" stroke-width="0.3881" stroke-miterlimit="10" x1="589.679" y1="138.572" x2="600.636" y2="138.572"/>
				</g>
				<g>
					
						<line fill="none" stroke="#8F9294" stroke-width="0.3881" stroke-miterlimit="10" x1="625.015" y1="133.093" x2="625.015" y2="144.05"/>
					
						<line fill="none" stroke="#8F9294" stroke-width="0.3881" stroke-miterlimit="10" x1="619.536" y1="138.572" x2="630.493" y2="138.572"/>
				</g>
				<g>
					
						<line fill="none" stroke="#8F9294" stroke-width="0.3881" stroke-miterlimit="10" x1="654.872" y1="133.093" x2="654.872" y2="144.05"/>
					
						<line fill="none" stroke="#8F9294" stroke-width="0.3881" stroke-miterlimit="10" x1="649.394" y1="138.572" x2="660.351" y2="138.572"/>
				</g>
				<g>
					
						<line fill="none" stroke="#8F9294" stroke-width="0.3881" stroke-miterlimit="10" x1="684.729" y1="133.093" x2="684.729" y2="144.05"/>
					
						<line fill="none" stroke="#8F9294" stroke-width="0.3881" stroke-miterlimit="10" x1="679.251" y1="138.572" x2="690.208" y2="138.572"/>
				</g>
			</g>
			<g>
				<g>
					
						<line fill="none" stroke="#8F9294" stroke-width="0.3881" stroke-miterlimit="10" x1="595.157" y1="155.829" x2="595.157" y2="166.786"/>
					
						<line fill="none" stroke="#8F9294" stroke-width="0.3881" stroke-miterlimit="10" x1="589.679" y1="161.307" x2="600.636" y2="161.307"/>
				</g>
				<g>
					
						<line fill="none" stroke="#8F9294" stroke-width="0.3881" stroke-miterlimit="10" x1="625.015" y1="155.829" x2="625.015" y2="166.786"/>
					
						<line fill="none" stroke="#8F9294" stroke-width="0.3881" stroke-miterlimit="10" x1="619.536" y1="161.307" x2="630.493" y2="161.307"/>
				</g>
				<g>
					
						<line fill="none" stroke="#8F9294" stroke-width="0.3881" stroke-miterlimit="10" x1="654.872" y1="155.829" x2="654.872" y2="166.786"/>
					
						<line fill="none" stroke="#8F9294" stroke-width="0.3881" stroke-miterlimit="10" x1="649.394" y1="161.307" x2="660.351" y2="161.307"/>
				</g>
				<g>
					
						<line fill="none" stroke="#8F9294" stroke-width="0.3881" stroke-miterlimit="10" x1="684.729" y1="155.829" x2="684.729" y2="166.786"/>
					
						<line fill="none" stroke="#8F9294" stroke-width="0.3881" stroke-miterlimit="10" x1="679.251" y1="161.307" x2="690.208" y2="161.307"/>
				</g>
			</g>
		</g>
		<g clip-path="url(#SVGID_2_)">
			<path fill="none" stroke="#575758" stroke-linecap="round" stroke-linejoin="round" stroke-miterlimit="10" d="M927.025,421.752
				c-21.962,9.826,0,0-71.492,15.262c-10.44,2.229-20.994-0.949-31.106-2.771"/>
		</g>
		
			<circle clip-path="url(#SVGID_2_)" fill="none" stroke="#575758" stroke-linecap="round" stroke-linejoin="round" stroke-miterlimit="10" cx="626.07" cy="226.482" r="4.423"/>
		
			<rect x="422.706" y="36.613" clip-path="url(#SVGID_2_)" fill="none" stroke="#8F9294" stroke-linecap="round" stroke-linejoin="round" stroke-miterlimit="10" width="121.485" height="10.187"/>
		<g clip-path="url(#SVGID_2_)">
			<g>
				<g>
					
						<rect x="537.642" y="10.42" transform="matrix(0.7071 0.7071 -0.7071 0.7071 166.9639 -377.9977)" fill="#8F9294" width="4.248" height="4.248"/>
					
						<rect x="549.67" y="22.448" transform="matrix(0.7072 0.707 -0.707 0.7072 178.8139 -382.8713)" fill="#8F9294" width="4.032" height="4.032"/>
					
						<rect x="561.698" y="34.476" transform="matrix(0.7071 0.7071 -0.7071 0.7071 190.8036 -387.8726)" fill="#8F9294" width="3.816" height="3.816"/>
					
						<rect x="573.726" y="46.504" transform="matrix(0.7071 0.7071 -0.7071 0.7071 202.7234 -392.8101)" fill="#8F9294" width="3.599" height="3.599"/>
					
						<rect x="585.754" y="58.532" transform="matrix(0.7072 0.707 -0.707 0.7072 214.5966 -397.7094)" fill="#8F9294" width="3.383" height="3.383"/>
					
						<rect x="597.781" y="70.56" transform="matrix(0.7072 0.707 -0.707 0.7072 226.511 -402.6436)" fill="#8F9294" width="3.166" height="3.167"/>
					
						<rect x="609.809" y="82.588" transform="matrix(0.707 0.7072 -0.7072 0.707 238.5402 -407.6653)" fill="#8F9294" width="2.95" height="2.95"/>
					
						<rect x="621.837" y="94.616" transform="matrix(0.707 0.7072 -0.7072 0.707 250.4667 -412.6062)" fill="#8F9294" width="2.733" height="2.733"/>
					
						<rect x="633.865" y="106.644" transform="matrix(0.7071 0.7071 -0.7071 0.7071 262.3224 -417.4965)" fill="#8F9294" width="2.518" height="2.518"/>
					
						<rect x="645.893" y="118.672" transform="matrix(0.7071 0.7071 -0.7071 0.7071 274.2418 -422.4333)" fill="#8F9294" width="2.301" height="2.301"/>
					
						<rect x="657.921" y="130.7" transform="matrix(0.7069 0.7073 -0.7073 0.7069 286.347 -427.4941)" fill="#8F9294" width="2.085" height="2.084"/>
					
						<rect x="669.949" y="142.728" transform="matrix(0.7068 0.7074 -0.7074 0.7068 298.2944 -432.4459)" fill="#8F9294" width="1.868" height="1.868"/>
				</g>
			</g>
			<g>
				<g>
					
						<rect x="547.299" y="0.763" transform="matrix(0.707 0.7072 -0.7072 0.707 163.0269 -387.718)" fill="#8F9294" width="4.247" height="4.247"/>
					
						<rect x="559.327" y="12.791" transform="matrix(0.707 0.7072 -0.7072 0.707 174.9182 -392.6256)" fill="#8F9294" width="4.032" height="4.032"/>
					
						<rect x="571.355" y="24.818" transform="matrix(0.7072 0.707 -0.707 0.7072 186.7647 -397.495)" fill="#8F9294" width="3.816" height="3.816"/>
					
						<rect x="583.383" y="36.847" transform="matrix(0.707 0.7072 -0.7072 0.707 198.7654 -402.5045)" fill="#8F9294" width="3.599" height="3.599"/>
					
						<rect x="595.411" y="48.875" transform="matrix(0.7069 0.7073 -0.7073 0.7069 210.7828 -407.5225)" fill="#8F9294" width="3.382" height="3.382"/>
					
						<rect x="607.438" y="60.903" transform="matrix(0.707 0.7073 -0.7073 0.707 222.666 -412.4258)" fill="#8F9294" width="3.166" height="3.166"/>
					
						<rect x="619.466" y="72.93" transform="matrix(0.7071 0.7071 -0.7071 0.7071 234.4822 -417.279)" fill="#8F9294" width="2.95" height="2.95"/>
					
						<rect x="631.494" y="84.959" transform="matrix(0.7069 0.7073 -0.7073 0.7069 246.5305 -422.314)" fill="#8F9294" width="2.734" height="2.733"/>
					
						<rect x="643.523" y="96.987" transform="matrix(0.7069 0.7073 -0.7073 0.7069 258.466 -427.2598)" fill="#8F9294" width="2.517" height="2.517"/>
					
						<rect x="655.551" y="109.014" transform="matrix(0.707 0.7072 -0.7072 0.707 270.3231 -432.1492)" fill="#8F9294" width="2.301" height="2.301"/>
					
						<rect x="667.579" y="121.042" transform="matrix(0.7072 0.707 -0.707 0.7072 282.0689 -436.9647)" fill="#8F9294" width="2.085" height="2.085"/>
					
						<rect x="679.606" y="133.07" transform="matrix(0.7072 0.707 -0.707 0.7072 293.9751 -441.8947)" fill="#8F9294" width="1.87" height="1.869"/>
				</g>
			</g>
			<g>
				<g>
					
						<rect x="556.956" y="-8.895" transform="matrix(0.7071 0.7071 -0.7071 0.7071 158.963 -397.3125)" fill="#8F9294" width="4.248" height="4.248"/>
					
						<rect x="568.984" y="3.133" transform="matrix(0.707 0.7072 -0.7072 0.707 170.9177 -402.2841)" fill="#8F9294" width="4.032" height="4.032"/>
					
						<rect x="581.013" y="15.161" transform="matrix(0.707 0.7072 -0.7072 0.707 182.841 -407.2236)" fill="#8F9294" width="3.815" height="3.815"/>
					
						<rect x="593.04" y="27.189" transform="matrix(0.7071 0.7071 -0.7071 0.7071 194.7226 -412.1247)" fill="#8F9294" width="3.599" height="3.599"/>
					
						<rect x="605.068" y="39.217" transform="matrix(0.7072 0.707 -0.707 0.7072 206.5956 -417.0214)" fill="#8F9294" width="3.383" height="3.383"/>
					
						<rect x="617.096" y="51.245" transform="matrix(0.7071 0.7071 -0.7071 0.7071 218.5622 -421.9996)" fill="#8F9294" width="3.167" height="3.167"/>
					
						<rect x="629.125" y="63.273" transform="matrix(0.7071 0.7071 -0.7071 0.7071 230.482 -426.937)" fill="#8F9294" width="2.95" height="2.95"/>
					
						<rect x="641.152" y="75.3" transform="matrix(0.7072 0.707 -0.707 0.7072 242.3377 -431.8239)" fill="#8F9294" width="2.734" height="2.735"/>
					
						<rect x="653.18" y="87.328" transform="matrix(0.7073 0.7069 -0.7069 0.7073 254.1776 -436.7022)" fill="#8F9294" width="2.518" height="2.518"/>
					
						<rect x="665.208" y="99.356" transform="matrix(0.7072 0.707 -0.707 0.7072 266.1602 -441.6893)" fill="#8F9294" width="2.302" height="2.302"/>
					
						<rect x="677.237" y="111.384" transform="matrix(0.7072 0.707 -0.707 0.7072 278.0687 -446.6205)" fill="#8F9294" width="2.085" height="2.085"/>
					
						<rect x="689.265" y="123.412" transform="matrix(0.7074 0.7068 -0.7068 0.7074 289.8685 -451.4763)" fill="#8F9294" width="1.869" height="1.87"/>
				</g>
			</g>
			<g>
				<g>
					
						<rect x="566.614" y="-18.553" transform="matrix(0.7072 0.707 -0.707 0.7072 154.9312 -406.9369)" fill="#8F9294" width="4.248" height="4.248"/>
					
						<rect x="578.642" y="-6.525" transform="matrix(0.7072 0.707 -0.707 0.7072 166.8478 -411.8725)" fill="#8F9294" width="4.032" height="4.032"/>
					
						<rect x="590.67" y="5.503" transform="matrix(0.7072 0.707 -0.707 0.7072 178.7642 -416.8079)" fill="#8F9294" width="3.816" height="3.816"/>
					
						<rect x="602.698" y="17.531" transform="matrix(0.7071 0.7071 -0.7071 0.7071 190.7223 -421.7828)" fill="#8F9294" width="3.599" height="3.599"/>
					
						<rect x="614.726" y="29.559" transform="matrix(0.7072 0.707 -0.707 0.7072 202.5955 -426.6779)" fill="#8F9294" width="3.383" height="3.384"/>
					
						<rect x="626.754" y="41.587" transform="matrix(0.7073 0.707 -0.707 0.7073 214.4585 -431.5675)" fill="#8F9294" width="3.167" height="3.167"/>
					
						<rect x="638.782" y="53.615" transform="matrix(0.7072 0.707 -0.707 0.7072 226.4246 -436.5466)" fill="#8F9294" width="2.951" height="2.951"/>
					
						<rect x="650.81" y="65.643" transform="matrix(0.707 0.7072 -0.7072 0.707 238.4656 -441.5841)" fill="#8F9294" width="2.733" height="2.734"/>
					
						<rect x="662.838" y="77.671" transform="matrix(0.7071 0.7071 -0.7071 0.7071 250.3215 -446.4691)" fill="#8F9294" width="2.518" height="2.518"/>
					
						<rect x="674.865" y="89.699" transform="matrix(0.707 0.7072 -0.7072 0.707 262.3221 -451.4681)" fill="#8F9294" width="2.301" height="2.301"/>
					
						<rect x="686.893" y="101.727" transform="matrix(0.7071 0.7071 -0.7071 0.7071 274.1609 -456.3433)" fill="#8F9294" width="2.085" height="2.085"/>
					
						<rect x="698.922" y="113.755" transform="matrix(0.7068 0.7074 -0.7074 0.7068 286.2934 -461.4338)" fill="#8F9294" width="1.868" height="1.868"/>
				</g>
			</g>
			<g>
				<g>
					
						<rect x="576.272" y="-28.21" transform="matrix(0.7071 0.7071 -0.7071 0.7071 150.9629 -416.6284)" fill="#8F9294" width="4.248" height="4.248"/>
					
						<rect x="588.3" y="-16.182" transform="matrix(0.7072 0.707 -0.707 0.7072 162.8128 -421.4927)" fill="#8F9294" width="4.032" height="4.032"/>
					
						<rect x="600.327" y="-4.154" transform="matrix(0.7071 0.7071 -0.7071 0.7071 174.8022 -426.5026)" fill="#8F9294" width="3.816" height="3.816"/>
					
						<rect x="612.356" y="7.874" transform="matrix(0.7071 0.7071 -0.7071 0.7071 186.722 -431.4401)" fill="#8F9294" width="3.599" height="3.599"/>
					
						<rect x="624.384" y="19.902" transform="matrix(0.707 0.7072 -0.7072 0.707 198.6887 -436.4211)" fill="#8F9294" width="3.383" height="3.383"/>
					
						<rect x="636.411" y="31.93" transform="matrix(0.707 0.7072 -0.7072 0.707 210.6131 -441.3609)" fill="#8F9294" width="3.166" height="3.166"/>
					
						<rect x="648.439" y="43.958" transform="matrix(0.707 0.7072 -0.7072 0.707 222.5388 -446.3017)" fill="#8F9294" width="2.95" height="2.95"/>
					
						<rect x="660.467" y="55.986" transform="matrix(0.707 0.7072 -0.7072 0.707 234.4653 -451.2431)" fill="#8F9294" width="2.733" height="2.733"/>
					
						<rect x="672.495" y="68.014" transform="matrix(0.7069 0.7073 -0.7073 0.7069 246.4651 -456.2438)" fill="#8F9294" width="2.517" height="2.517"/>
					
						<rect x="684.523" y="80.042" transform="matrix(0.7071 0.7071 -0.7071 0.7071 258.2407 -461.064)" fill="#8F9294" width="2.301" height="2.301"/>
					
						<rect x="696.551" y="92.07" transform="matrix(0.7071 0.7071 -0.7071 0.7071 270.1607 -466.0013)" fill="#8F9294" width="2.085" height="2.085"/>
					
						<rect x="708.579" y="104.097" transform="matrix(0.7074 0.7068 -0.7068 0.7074 281.8676 -470.7809)" fill="#8F9294" width="1.869" height="1.869"/>
				</g>
			</g>
			<g>
				<g>
					
						<rect x="585.93" y="-37.868" transform="matrix(0.7071 0.7071 -0.7071 0.7071 146.9624 -426.2859)" fill="#8F9294" width="4.248" height="4.248"/>
					
						<rect x="597.957" y="-25.84" transform="matrix(0.7071 0.7071 -0.7071 0.7071 158.8818 -431.2226)" fill="#8F9294" width="4.031" height="4.032"/>
					
						<rect x="609.985" y="-13.812" transform="matrix(0.707 0.7072 -0.7072 0.707 170.8401 -436.1999)" fill="#8F9294" width="3.815" height="3.815"/>
					
						<rect x="622.013" y="-1.784" transform="matrix(0.7071 0.7071 -0.7071 0.7071 182.7215 -441.0975)" fill="#8F9294" width="3.599" height="3.599"/>
					
						<rect x="634.041" y="10.244" transform="matrix(0.7072 0.707 -0.707 0.7072 194.5947 -445.9898)" fill="#8F9294" width="3.383" height="3.383"/>
					
						<rect x="646.069" y="22.272" transform="matrix(0.7072 0.707 -0.707 0.7072 206.5094 -450.9242)" fill="#8F9294" width="3.166" height="3.167"/>
					
						<rect x="658.097" y="34.3" transform="matrix(0.7071 0.7071 -0.7071 0.7071 218.4811 -455.9097)" fill="#8F9294" width="2.95" height="2.95"/>
					
						<rect x="670.125" y="46.328" transform="matrix(0.7072 0.707 -0.707 0.7072 230.3366 -460.7915)" fill="#8F9294" width="2.734" height="2.734"/>
					
						<rect x="682.153" y="58.356" transform="matrix(0.7073 0.7069 -0.7069 0.7073 242.1767 -465.6636)" fill="#8F9294" width="2.518" height="2.518"/>
					
						<rect x="694.182" y="70.384" transform="matrix(0.7071 0.7071 -0.7071 0.7071 254.2405 -470.722)" fill="#8F9294" width="2.301" height="2.301"/>
					
						<rect x="706.209" y="82.412" transform="matrix(0.7072 0.707 -0.707 0.7072 266.0678 -475.5864)" fill="#8F9294" width="2.085" height="2.085"/>
					
						<rect x="718.237" y="94.44" transform="matrix(0.7072 0.707 -0.707 0.7072 277.974 -480.5154)" fill="#8F9294" width="1.87" height="1.869"/>
				</g>
			</g>
			<g>
				<g>
					
						<rect x="595.587" y="-47.525" transform="matrix(0.7071 0.7071 -0.7071 0.7071 142.9619 -435.9432)" fill="#8F9294" width="4.248" height="4.248"/>
					
						<rect x="607.615" y="-35.498" transform="matrix(0.7072 0.707 -0.707 0.7072 154.8469 -440.8417)" fill="#8F9294" width="4.032" height="4.032"/>
					
						<rect x="619.643" y="-23.47" transform="matrix(0.7072 0.707 -0.707 0.7072 166.7632 -445.7769)" fill="#8F9294" width="3.816" height="3.816"/>
					
						<rect x="631.671" y="-11.441" transform="matrix(0.707 0.7072 -0.7072 0.707 178.7638 -450.7991)" fill="#8F9294" width="3.599" height="3.599"/>
					
						<rect x="643.699" y="0.586" transform="matrix(0.7072 0.707 -0.707 0.7072 190.5945 -455.6465)" fill="#8F9294" width="3.383" height="3.383"/>
					
						<rect x="655.727" y="12.614" transform="matrix(0.7073 0.707 -0.707 0.7073 202.4576 -460.5312)" fill="#8F9294" width="3.167" height="3.167"/>
					
						<rect x="667.755" y="24.642" transform="matrix(0.7073 0.7069 -0.7069 0.7073 214.3658 -465.4613)" fill="#8F9294" width="2.951" height="2.951"/>
					
						<rect x="679.783" y="36.67" transform="matrix(0.7072 0.707 -0.707 0.7072 226.3366 -470.4478)" fill="#8F9294" width="2.734" height="2.735"/>
					
						<rect x="691.811" y="48.698" transform="matrix(0.7073 0.7069 -0.7069 0.7073 238.1765 -475.3179)" fill="#8F9294" width="2.518" height="2.518"/>
					
						<rect x="703.839" y="60.726" transform="matrix(0.7074 0.7068 -0.7068 0.7074 249.9966 -480.1755)" fill="#8F9294" width="2.303" height="2.303"/>
					
						<rect x="715.866" y="72.755" transform="matrix(0.7068 0.7075 -0.7075 0.7068 262.4377 -485.5421)" fill="#8F9294" width="2.084" height="2.084"/>
					
						<rect x="727.894" y="84.782" transform="matrix(0.7068 0.7074 -0.7074 0.7068 274.2925 -490.4216)" fill="#8F9294" width="1.868" height="1.868"/>
				</g>
			</g>
			<g>
				<g>
					
						<rect x="605.245" y="-57.183" transform="matrix(0.7072 0.707 -0.707 0.7072 138.9301 -445.5631)" fill="#8F9294" width="4.248" height="4.248"/>
					
						<rect x="617.273" y="-45.155" transform="matrix(0.7072 0.707 -0.707 0.7072 150.8469 -450.4985)" fill="#8F9294" width="4.032" height="4.032"/>
					
						<rect x="629.301" y="-33.127" transform="matrix(0.7072 0.707 -0.707 0.7072 162.7249 -455.3912)" fill="#8F9294" width="3.817" height="3.816"/>
					
						<rect x="641.328" y="-21.099" transform="matrix(0.7071 0.7071 -0.7071 0.7071 174.7212 -460.4128)" fill="#8F9294" width="3.599" height="3.599"/>
					
						<rect x="653.357" y="-9.071" transform="matrix(0.707 0.7072 -0.7072 0.707 186.6877 -465.398)" fill="#8F9294" width="3.383" height="3.383"/>
					
						<rect x="665.384" y="2.957" transform="matrix(0.7071 0.7071 -0.7071 0.7071 198.5608 -470.2876)" fill="#8F9294" width="3.167" height="3.166"/>
					
						<rect x="677.412" y="14.985" transform="matrix(0.707 0.7072 -0.7072 0.707 210.5378 -475.2792)" fill="#8F9294" width="2.95" height="2.95"/>
					
						<rect x="689.44" y="27.013" transform="matrix(0.7068 0.7074 -0.7074 0.7068 222.593 -480.3393)" fill="#8F9294" width="2.733" height="2.733"/>
					
						<rect x="701.468" y="39.041" transform="matrix(0.7069 0.7073 -0.7073 0.7069 234.4641 -485.2277)" fill="#8F9294" width="2.517" height="2.517"/>
					
						<rect x="713.496" y="51.069" transform="matrix(0.707 0.7072 -0.7072 0.707 246.3212 -490.1069)" fill="#8F9294" width="2.301" height="2.301"/>
					
						<rect x="725.524" y="63.096" transform="matrix(0.7071 0.7071 -0.7071 0.7071 258.1596 -494.9741)" fill="#8F9294" width="2.085" height="2.085"/>
					
						<rect x="737.552" y="75.125" transform="matrix(0.7068 0.7074 -0.7074 0.7068 270.2925 -500.0847)" fill="#8F9294" width="1.868" height="1.868"/>
				</g>
			</g>
			<g>
				<g>
					
						<rect x="614.902" y="-66.84" transform="matrix(0.7071 0.7071 -0.7071 0.7071 134.9615 -455.2585)" fill="#8F9294" width="4.248" height="4.248"/>
					
						<rect x="626.93" y="-54.812" transform="matrix(0.707 0.7072 -0.7072 0.707 146.9507 -460.2779)" fill="#8F9294" width="4.031" height="4.031"/>
					
						<rect x="638.958" y="-42.784" transform="matrix(0.707 0.7072 -0.7072 0.707 158.8777 -465.2199)" fill="#8F9294" width="3.815" height="3.815"/>
					
						<rect x="650.986" y="-30.757" transform="matrix(0.7071 0.7071 -0.7071 0.7071 170.7206 -470.0701)" fill="#8F9294" width="3.599" height="3.599"/>
					
						<rect x="663.014" y="-18.728" transform="matrix(0.707 0.7072 -0.7072 0.707 182.6873 -475.0567)" fill="#8F9294" width="3.383" height="3.383"/>
					
						<rect x="675.042" y="-6.7" transform="matrix(0.707 0.7073 -0.7073 0.707 194.6639 -480.0501)" fill="#8F9294" width="3.166" height="3.166"/>
					
						<rect x="687.07" y="5.328" transform="matrix(0.707 0.7072 -0.7072 0.707 206.5378 -484.9388)" fill="#8F9294" width="2.95" height="2.95"/>
					
						<rect x="699.098" y="17.355" transform="matrix(0.7072 0.707 -0.707 0.7072 218.3358 -489.7589)" fill="#8F9294" width="2.734" height="2.734"/>
					
						<rect x="711.126" y="29.383" transform="matrix(0.7073 0.7069 -0.7069 0.7073 230.1758 -494.6251)" fill="#8F9294" width="2.518" height="2.518"/>
					
						<rect x="723.154" y="41.411" transform="matrix(0.7071 0.7071 -0.7071 0.7071 242.2396 -499.6947)" fill="#8F9294" width="2.301" height="2.301"/>
					
						<rect x="735.182" y="53.439" transform="matrix(0.7071 0.7071 -0.7071 0.7071 254.1596 -504.6321)" fill="#8F9294" width="2.085" height="2.085"/>
					
						<rect x="747.21" y="65.467" transform="matrix(0.7074 0.7068 -0.7068 0.7074 265.8666 -509.3915)" fill="#8F9294" width="1.869" height="1.869"/>
				</g>
			</g>
			<g>
				<g>
					
						<rect x="624.56" y="-76.498" transform="matrix(0.7071 0.7071 -0.7071 0.7071 130.961 -464.9159)" fill="#8F9294" width="4.248" height="4.248"/>
					
						<rect x="636.588" y="-64.471" transform="matrix(0.7072 0.707 -0.707 0.7072 142.811 -469.7684)" fill="#8F9294" width="4.032" height="4.032"/>
					
						<rect x="648.616" y="-52.442" transform="matrix(0.707 0.7072 -0.7072 0.707 154.8774 -474.8804)" fill="#8F9294" width="3.815" height="3.815"/>
					
						<rect x="660.644" y="-40.414" transform="matrix(0.7071 0.7071 -0.7071 0.7071 166.7204 -479.7282)" fill="#8F9294" width="3.599" height="3.599"/>
					
						<rect x="672.672" y="-28.386" transform="matrix(0.7072 0.707 -0.707 0.7072 178.5936 -484.615)" fill="#8F9294" width="3.383" height="3.383"/>
					
						<rect x="684.7" y="-16.359" transform="matrix(0.7073 0.7069 -0.7069 0.7073 190.4048 -489.4409)" fill="#8F9294" width="3.167" height="3.167"/>
					
						<rect x="696.728" y="-4.33" transform="matrix(0.707 0.7072 -0.7072 0.707 202.5375 -494.5984)" fill="#8F9294" width="2.95" height="2.95"/>
					
						<rect x="708.756" y="7.697" transform="matrix(0.7072 0.707 -0.707 0.7072 214.3355 -499.4153)" fill="#8F9294" width="2.734" height="2.734"/>
					
						<rect x="720.784" y="19.725" transform="matrix(0.7073 0.7069 -0.7069 0.7073 226.1756 -504.2794)" fill="#8F9294" width="2.518" height="2.518"/>
					
						<rect x="732.812" y="31.753" transform="matrix(0.7075 0.7067 -0.7067 0.7075 237.9142 -509.0553)" fill="#8F9294" width="2.302" height="2.303"/>
					
						<rect x="744.84" y="43.781" transform="matrix(0.7071 0.7071 -0.7071 0.7071 250.1594 -514.2901)" fill="#8F9294" width="2.085" height="2.085"/>
					
						<rect x="756.867" y="55.81" transform="matrix(0.7067 0.7075 -0.7075 0.7067 262.3981 -519.5009)" fill="#8F9294" width="1.868" height="1.868"/>
				</g>
			</g>
			<g>
				<g>
					
						<rect x="634.218" y="-86.156" transform="matrix(0.7071 0.7071 -0.7071 0.7071 126.9608 -474.5739)" fill="#8F9294" width="4.248" height="4.248"/>
					
						<rect x="646.246" y="-74.128" transform="matrix(0.7072 0.707 -0.707 0.7072 138.8458 -479.4677)" fill="#8F9294" width="4.032" height="4.032"/>
					
						<rect x="658.273" y="-62.1" transform="matrix(0.7073 0.7069 -0.7069 0.7073 150.6853 -484.3105)" fill="#8F9294" width="3.816" height="3.817"/>
					
						<rect x="670.302" y="-50.072" transform="matrix(0.7072 0.707 -0.707 0.7072 162.6781 -489.3373)" fill="#8F9294" width="3.6" height="3.6"/>
					
						<rect x="682.33" y="-38.044" transform="matrix(0.7072 0.707 -0.707 0.7072 174.5934 -494.2716)" fill="#8F9294" width="3.383" height="3.383"/>
					
						<rect x="694.358" y="-26.016" transform="matrix(0.7073 0.707 -0.707 0.7073 186.4565 -499.15)" fill="#8F9294" width="3.167" height="3.167"/>
					
						<rect x="706.384" y="-13.988" transform="matrix(0.7071 0.7071 -0.7071 0.7071 198.4792 -504.1971)" fill="#8F9294" width="2.95" height="2.95"/>
					
						<rect x="718.413" y="-1.959" transform="matrix(0.7067 0.7075 -0.7075 0.7067 210.6562 -509.3918)" fill="#8F9294" width="2.733" height="2.733"/>
					
						<rect x="730.441" y="10.068" transform="matrix(0.7069 0.7073 -0.7073 0.7069 222.4631 -514.2117)" fill="#8F9294" width="2.517" height="2.517"/>
					
						<rect x="742.469" y="22.096" transform="matrix(0.707 0.7072 -0.7072 0.707 234.3202 -519.0858)" fill="#8F9294" width="2.301" height="2.301"/>
					
						<rect x="754.497" y="34.124" transform="matrix(0.7072 0.707 -0.707 0.7072 246.066 -523.8624)" fill="#8F9294" width="2.085" height="2.085"/>
					
						<rect x="766.525" y="46.152" transform="matrix(0.7067 0.7075 -0.7075 0.7067 258.3979 -529.1665)" fill="#8F9294" width="1.868" height="1.868"/>
				</g>
			</g>
			<g>
				<g>
					
						<rect x="643.875" y="-95.814" transform="matrix(0.7071 0.7071 -0.7071 0.7071 122.9603 -484.2313)" fill="#8F9294" width="4.248" height="4.248"/>
					
						<rect x="655.903" y="-83.785" transform="matrix(0.707 0.7072 -0.7072 0.707 134.915 -489.2135)" fill="#8F9294" width="4.032" height="4.032"/>
					
						<rect x="667.931" y="-71.758" transform="matrix(0.7072 0.707 -0.707 0.7072 146.7615 -494.0588)" fill="#8F9294" width="3.816" height="3.816"/>
					
						<rect x="679.958" y="-59.73" transform="matrix(0.7071 0.7071 -0.7071 0.7071 158.7196 -499.0428)" fill="#8F9294" width="3.599" height="3.599"/>
					
						<rect x="691.987" y="-47.701" transform="matrix(0.7069 0.7073 -0.7073 0.7069 170.7797 -504.1405)" fill="#8F9294" width="3.382" height="3.382"/>
					
						<rect x="704.015" y="-35.673" transform="matrix(0.707 0.7073 -0.7073 0.707 182.6628 -509.0318)" fill="#8F9294" width="3.166" height="3.166"/>
					
						<rect x="716.043" y="-23.646" transform="matrix(0.7071 0.7071 -0.7071 0.7071 194.479 -513.8552)" fill="#8F9294" width="2.95" height="2.95"/>
					
						<rect x="728.07" y="-11.618" transform="matrix(0.7072 0.707 -0.707 0.7072 206.3347 -518.7265)" fill="#8F9294" width="2.734" height="2.735"/>
					
						<rect x="740.099" y="0.411" transform="matrix(0.7068 0.7074 -0.7074 0.7068 218.5351 -523.9451)" fill="#8F9294" width="2.517" height="2.517"/>
					
						<rect x="752.127" y="12.438" transform="matrix(0.707 0.7072 -0.7072 0.707 230.32 -528.7459)" fill="#8F9294" width="2.301" height="2.301"/>
					
						<rect x="764.155" y="24.466" transform="matrix(0.7072 0.707 -0.707 0.7072 242.0658 -533.5183)" fill="#8F9294" width="2.085" height="2.085"/>
					
						<rect x="776.183" y="36.494" transform="matrix(0.7074 0.7068 -0.7068 0.7074 253.8655 -538.3491)" fill="#8F9294" width="1.869" height="1.87"/>
				</g>
			</g>
		</g>
		<g clip-path="url(#SVGID_2_)">
			<g>
				<g>
					
						<rect x="641.906" y="507.257" transform="matrix(-0.7071 -0.7071 0.7071 -0.7071 739.2418 1324.9657)" fill="#8F9294" width="4.248" height="4.248"/>
					
						<rect x="630.095" y="495.445" transform="matrix(-0.7071 -0.7071 0.7071 -0.7071 727.3215 1296.1892)" fill="#8F9294" width="4.031" height="4.032"/>
					
						<rect x="618.283" y="483.634" transform="matrix(-0.7072 -0.707 0.707 -0.7072 715.5431 1267.3948)" fill="#8F9294" width="3.815" height="3.816"/>
					
						<rect x="606.471" y="471.822" transform="matrix(-0.7071 -0.7071 0.7071 -0.7071 703.4817 1238.6348)" fill="#8F9294" width="3.599" height="3.6"/>
					
						<rect x="594.659" y="460.01" transform="matrix(-0.7071 -0.7071 0.7071 -0.7071 691.5618 1209.8575)" fill="#8F9294" width="3.384" height="3.383"/>
					
						<rect x="582.849" y="448.199" transform="matrix(-0.707 -0.7073 0.7073 -0.707 679.4836 1181.1027)" fill="#8F9294" width="3.166" height="3.166"/>
					
						<rect x="571.037" y="436.387" transform="matrix(-0.7071 -0.7071 0.7071 -0.7071 667.7233 1152.3046)" fill="#8F9294" width="2.95" height="2.95"/>
					
						<rect x="559.225" y="424.575" transform="matrix(-0.7071 -0.7071 0.7071 -0.7071 655.8033 1123.5273)" fill="#8F9294" width="2.735" height="2.735"/>
					
						<rect x="547.413" y="412.764" transform="matrix(-0.7071 -0.7071 0.7071 -0.7071 643.8834 1094.7501)" fill="#8F9294" width="2.518" height="2.518"/>
					
						<rect x="535.602" y="400.952" transform="matrix(-0.7071 -0.7071 0.7071 -0.7071 631.9631 1065.9738)" fill="#8F9294" width="2.301" height="2.302"/>
					
						<rect x="523.79" y="389.14" transform="matrix(-0.7073 -0.7069 0.7069 -0.7073 620.2574 1037.1649)" fill="#8F9294" width="2.085" height="2.085"/>
					
						<rect x="511.977" y="377.329" transform="matrix(-0.7071 -0.7071 0.7071 -0.7071 608.1233 1008.4193)" fill="#8F9294" width="1.87" height="1.869"/>
				</g>
			</g>
			<g>
				<g>
					
						<rect x="632.249" y="516.915" transform="matrix(-0.7071 -0.7071 0.7071 -0.7071 715.9265 1334.6245)" fill="#8F9294" width="4.248" height="4.248"/>
					
						<rect x="620.437" y="505.103" transform="matrix(-0.707 -0.7072 0.7072 -0.707 703.8702 1305.8605)" fill="#8F9294" width="4.032" height="4.031"/>
					
						<rect x="608.625" y="493.291" transform="matrix(-0.7071 -0.7071 0.7071 -0.7071 692.0867 1277.0701)" fill="#8F9294" width="3.816" height="3.816"/>
					
						<rect x="596.814" y="481.48" transform="matrix(-0.7071 -0.7071 0.7071 -0.7071 680.1667 1248.2928)" fill="#8F9294" width="3.599" height="3.599"/>
					
						<rect x="585.002" y="469.668" transform="matrix(-0.7071 -0.7071 0.7071 -0.7071 668.2468 1219.5156)" fill="#8F9294" width="3.384" height="3.384"/>
					
						<rect x="573.19" y="457.856" transform="matrix(-0.7071 -0.7071 0.7071 -0.7071 656.3269 1190.7384)" fill="#8F9294" width="3.167" height="3.167"/>
					
						<rect x="561.378" y="446.044" transform="matrix(-0.7073 -0.7069 0.7069 -0.7073 644.5739 1161.9429)" fill="#8F9294" width="2.951" height="2.951"/>
					
						<rect x="549.567" y="434.233" transform="matrix(-0.7073 -0.7069 0.7069 -0.7073 632.6628 1133.1641)" fill="#8F9294" width="2.734" height="2.735"/>
					
						<rect x="537.755" y="422.421" transform="matrix(-0.7075 -0.7067 0.7067 -0.7075 620.9399 1104.3635)" fill="#8F9294" width="2.518" height="2.519"/>
					
						<rect x="525.944" y="410.61" transform="matrix(-0.7069 -0.7073 0.7073 -0.7069 608.4494 1075.6554)" fill="#8F9294" width="2.302" height="2.301"/>
					
						<rect x="514.132" y="398.798" transform="matrix(-0.7071 -0.7071 0.7071 -0.7071 596.7283 1046.8546)" fill="#8F9294" width="2.085" height="2.085"/>
					
						<rect x="502.321" y="386.987" transform="matrix(-0.7071 -0.7071 0.7071 -0.7071 584.8083 1018.0773)" fill="#8F9294" width="1.869" height="1.869"/>
				</g>
			</g>
			<g>
				<g>
					
						<rect x="622.591" y="526.572" transform="matrix(-0.7071 -0.7071 0.7071 -0.7071 692.6102 1344.2811)" fill="#8F9294" width="4.248" height="4.248"/>
					
						<rect x="610.779" y="514.76" transform="matrix(-0.7072 -0.707 0.707 -0.7072 680.827 1315.4922)" fill="#8F9294" width="4.032" height="4.032"/>
					
						<rect x="598.967" y="502.948" transform="matrix(-0.7071 -0.7071 0.7071 -0.7071 668.7704 1286.7266)" fill="#8F9294" width="3.816" height="3.816"/>
					
						<rect x="587.156" y="491.137" transform="matrix(-0.7071 -0.7071 0.7071 -0.7071 656.8521 1257.9501)" fill="#8F9294" width="3.599" height="3.599"/>
					
						<rect x="575.345" y="479.326" transform="matrix(-0.7071 -0.7071 0.7071 -0.7071 644.9319 1229.1737)" fill="#8F9294" width="3.382" height="3.383"/>
					
						<rect x="563.533" y="467.514" transform="matrix(-0.7071 -0.7071 0.7071 -0.7071 633.012 1200.3965)" fill="#8F9294" width="3.167" height="3.166"/>
					
						<rect x="551.721" y="455.702" transform="matrix(-0.7069 -0.7073 0.7073 -0.7069 620.9247 1171.635)" fill="#8F9294" width="2.951" height="2.95"/>
					
						<rect x="539.909" y="443.89" transform="matrix(-0.7071 -0.7071 0.7071 -0.7071 609.1721 1142.842)" fill="#8F9294" width="2.735" height="2.734"/>
					
						<rect x="528.098" y="432.079" transform="matrix(-0.7071 -0.7071 0.7071 -0.7071 597.2518 1114.0656)" fill="#8F9294" width="2.518" height="2.518"/>
					
						<rect x="516.286" y="420.267" transform="matrix(-0.7073 -0.7069 0.7069 -0.7073 585.531 1085.2679)" fill="#8F9294" width="2.302" height="2.302"/>
					
						<rect x="504.474" y="408.455" transform="matrix(-0.7071 -0.7071 0.7071 -0.7071 573.412 1056.5111)" fill="#8F9294" width="2.085" height="2.085"/>
					
						<rect x="492.663" y="396.644" transform="matrix(-0.7071 -0.7071 0.7071 -0.7071 561.4934 1027.7354)" fill="#8F9294" width="1.869" height="1.869"/>
				</g>
			</g>
			<g>
				<g>
					
						<rect x="612.934" y="536.229" transform="matrix(-0.7071 -0.7071 0.7071 -0.7071 669.2957 1353.9384)" fill="#8F9294" width="4.248" height="4.248"/>
					
						<rect x="601.122" y="524.418" transform="matrix(-0.7071 -0.7071 0.7071 -0.7071 657.3754 1325.162)" fill="#8F9294" width="4.031" height="4.032"/>
					
						<rect x="589.31" y="512.606" transform="matrix(-0.7072 -0.707 0.707 -0.7072 645.5969 1296.3749)" fill="#8F9294" width="3.815" height="3.816"/>
					
						<rect x="577.498" y="500.795" transform="matrix(-0.7071 -0.7071 0.7071 -0.7071 633.5352 1267.6083)" fill="#8F9294" width="3.599" height="3.599"/>
					
						<rect x="565.686" y="488.983" transform="matrix(-0.7071 -0.7071 0.7071 -0.7071 621.6156 1238.8302)" fill="#8F9294" width="3.384" height="3.383"/>
					
						<rect x="553.875" y="477.171" transform="matrix(-0.7071 -0.7071 0.7071 -0.7071 609.6953 1210.0538)" fill="#8F9294" width="3.167" height="3.167"/>
					
						<rect x="542.064" y="465.36" transform="matrix(-0.7071 -0.7071 0.7071 -0.7071 597.777 1181.2773)" fill="#8F9294" width="2.95" height="2.95"/>
					
						<rect x="530.253" y="453.549" transform="matrix(-0.7071 -0.7071 0.7071 -0.7071 585.8568 1152.5009)" fill="#8F9294" width="2.733" height="2.734"/>
					
						<rect x="518.44" y="441.736" transform="matrix(-0.7071 -0.7071 0.7071 -0.7071 573.9373 1123.7228)" fill="#8F9294" width="2.518" height="2.518"/>
					
						<rect x="506.629" y="429.925" transform="matrix(-0.7071 -0.7071 0.7071 -0.7071 562.017 1094.9464)" fill="#8F9294" width="2.301" height="2.302"/>
					
						<rect x="494.817" y="418.113" transform="matrix(-0.7071 -0.7071 0.7071 -0.7071 550.097 1066.1692)" fill="#8F9294" width="2.085" height="2.085"/>
					
						<rect x="483.005" y="406.302" transform="matrix(-0.7068 -0.7074 0.7074 -0.7068 537.9443 1037.4119)" fill="#8F9294" width="1.869" height="1.869"/>
				</g>
			</g>
			<g>
				<g>
					
						<rect x="603.275" y="545.887" transform="matrix(-0.7072 -0.707 0.707 -0.7072 646.1113 1363.59)" fill="#8F9294" width="4.249" height="4.249"/>
					
						<rect x="591.464" y="534.076" transform="matrix(-0.707 -0.7072 0.7072 -0.707 633.924 1334.826)" fill="#8F9294" width="4.032" height="4.031"/>
					
						<rect x="579.653" y="522.264" transform="matrix(-0.707 -0.7072 0.7072 -0.707 621.999 1306.05)" fill="#8F9294" width="3.815" height="3.815"/>
					
						<rect x="567.841" y="510.452" transform="matrix(-0.7071 -0.7071 0.7071 -0.7071 610.2206 1277.2655)" fill="#8F9294" width="3.599" height="3.599"/>
					
						<rect x="556.03" y="498.641" transform="matrix(-0.7071 -0.7071 0.7071 -0.7071 598.3003 1248.4891)" fill="#8F9294" width="3.382" height="3.383"/>
					
						<rect x="544.217" y="486.829" transform="matrix(-0.7071 -0.7071 0.7071 -0.7071 586.3807 1219.7111)" fill="#8F9294" width="3.167" height="3.167"/>
					
						<rect x="532.406" y="475.017" transform="matrix(-0.7071 -0.7071 0.7071 -0.7071 574.4604 1190.9346)" fill="#8F9294" width="2.95" height="2.951"/>
					
						<rect x="520.594" y="463.206" transform="matrix(-0.7071 -0.7071 0.7071 -0.7071 562.5405 1162.1575)" fill="#8F9294" width="2.735" height="2.734"/>
					
						<rect x="508.782" y="451.394" transform="matrix(-0.7071 -0.7071 0.7071 -0.7071 550.6202 1133.381)" fill="#8F9294" width="2.518" height="2.518"/>
					
						<rect x="496.97" y="439.582" transform="matrix(-0.7071 -0.7071 0.7071 -0.7071 538.7007 1104.6029)" fill="#8F9294" width="2.302" height="2.302"/>
					
						<rect x="485.16" y="427.771" transform="matrix(-0.7069 -0.7073 0.7073 -0.7069 526.5678 1075.8406)" fill="#8F9294" width="2.085" height="2.085"/>
					
						<rect x="473.348" y="415.959" transform="matrix(-0.7071 -0.7071 0.7071 -0.7071 514.8621 1047.05)" fill="#8F9294" width="1.869" height="1.869"/>
				</g>
			</g>
			<g>
				<g>
					
						<rect x="593.618" y="555.545" transform="matrix(-0.7071 -0.7071 0.7071 -0.7071 622.6641 1373.2538)" fill="#8F9294" width="4.248" height="4.248"/>
					
						<rect x="581.806" y="543.733" transform="matrix(-0.7072 -0.707 0.707 -0.7072 610.8809 1344.4719)" fill="#8F9294" width="4.032" height="4.032"/>
					
						<rect x="569.995" y="531.922" transform="matrix(-0.7072 -0.707 0.707 -0.7072 598.9653 1315.6953)" fill="#8F9294" width="3.815" height="3.816"/>
					
						<rect x="558.183" y="520.109" transform="matrix(-0.7072 -0.707 0.707 -0.7072 587.0508 1286.9177)" fill="#8F9294" width="3.6" height="3.6"/>
					
						<rect x="546.372" y="508.299" transform="matrix(-0.707 -0.7073 0.7073 -0.707 574.833 1258.1519)" fill="#8F9294" width="3.383" height="3.382"/>
					
						<rect x="534.56" y="496.487" transform="matrix(-0.7071 -0.7071 0.7071 -0.7071 563.0658 1229.3691)" fill="#8F9294" width="3.167" height="3.166"/>
					
						<rect x="522.749" y="484.675" transform="matrix(-0.7071 -0.7071 0.7071 -0.7071 551.1455 1200.5927)" fill="#8F9294" width="2.95" height="2.95"/>
					
						<rect x="510.936" y="472.863" transform="matrix(-0.7071 -0.7071 0.7071 -0.7071 539.2256 1171.8154)" fill="#8F9294" width="2.735" height="2.735"/>
					
						<rect x="499.125" y="461.052" transform="matrix(-0.7071 -0.7071 0.7071 -0.7071 527.3057 1143.0382)" fill="#8F9294" width="2.518" height="2.518"/>
					
						<rect x="487.313" y="449.24" transform="matrix(-0.7073 -0.7069 0.7069 -0.7073 515.5845 1114.2537)" fill="#8F9294" width="2.302" height="2.302"/>
					
						<rect x="475.501" y="437.428" transform="matrix(-0.7071 -0.7071 0.7071 -0.7071 503.4658 1085.4838)" fill="#8F9294" width="2.085" height="2.085"/>
					
						<rect x="463.689" y="425.616" transform="matrix(-0.7074 -0.7068 0.7068 -0.7074 491.7783 1056.6974)" fill="#8F9294" width="1.869" height="1.87"/>
				</g>
			</g>
			<g>
				<g>
					
						<rect x="583.961" y="565.202" transform="matrix(-0.7071 -0.7071 0.7071 -0.7071 599.3494 1382.911)" fill="#8F9294" width="4.248" height="4.248"/>
					
						<rect x="572.149" y="553.391" transform="matrix(-0.707 -0.7072 0.7072 -0.707 587.2924 1354.1368)" fill="#8F9294" width="4.032" height="4.031"/>
					
						<rect x="560.337" y="541.579" transform="matrix(-0.7071 -0.7071 0.7071 -0.7071 575.5093 1325.3573)" fill="#8F9294" width="3.816" height="3.815"/>
					
						<rect x="548.526" y="529.768" transform="matrix(-0.7071 -0.7071 0.7071 -0.7071 563.589 1296.5809)" fill="#8F9294" width="3.599" height="3.599"/>
					
						<rect x="536.713" y="517.956" transform="matrix(-0.7071 -0.7071 0.7071 -0.7071 551.6694 1267.8029)" fill="#8F9294" width="3.384" height="3.383"/>
					
						<rect x="524.902" y="506.144" transform="matrix(-0.7071 -0.7071 0.7071 -0.7071 539.7491 1239.0265)" fill="#8F9294" width="3.167" height="3.167"/>
					
						<rect x="513.09" y="494.332" transform="matrix(-0.7073 -0.7069 0.7069 -0.7073 527.9965 1210.2461)" fill="#8F9294" width="2.951" height="2.951"/>
					
						<rect x="501.28" y="482.521" transform="matrix(-0.7071 -0.7071 0.7071 -0.7071 515.9106 1181.4735)" fill="#8F9294" width="2.733" height="2.734"/>
					
						<rect x="489.468" y="470.709" transform="matrix(-0.7071 -0.7071 0.7071 -0.7071 503.991 1152.6954)" fill="#8F9294" width="2.518" height="2.518"/>
					
						<rect x="477.656" y="458.898" transform="matrix(-0.7069 -0.7073 0.7073 -0.7069 491.8717 1123.923)" fill="#8F9294" width="2.302" height="2.301"/>
					
						<rect x="465.844" y="447.086" transform="matrix(-0.7071 -0.7071 0.7071 -0.7071 480.1505 1095.1426)" fill="#8F9294" width="2.085" height="2.085"/>
					
						<rect x="454.033" y="435.275" transform="matrix(-0.7071 -0.7071 0.7071 -0.7071 468.2306 1066.3655)" fill="#8F9294" width="1.869" height="1.869"/>
				</g>
			</g>
			<g>
				<g>
					
						<rect x="574.303" y="574.86" transform="matrix(-0.7071 -0.7071 0.7071 -0.7071 576.0325 1392.5692)" fill="#8F9294" width="4.248" height="4.248"/>
					
						<rect x="562.491" y="563.048" transform="matrix(-0.7072 -0.707 0.707 -0.7072 564.2493 1363.792)" fill="#8F9294" width="4.032" height="4.032"/>
					
						<rect x="550.68" y="551.237" transform="matrix(-0.707 -0.7072 0.7072 -0.707 552.0527 1335.0154)" fill="#8F9294" width="3.815" height="3.815"/>
					
						<rect x="538.868" y="539.425" transform="matrix(-0.7071 -0.7071 0.7071 -0.7071 540.2744 1306.2382)" fill="#8F9294" width="3.599" height="3.599"/>
					
						<rect x="527.057" y="527.614" transform="matrix(-0.7071 -0.7071 0.7071 -0.7071 528.3541 1277.4618)" fill="#8F9294" width="3.382" height="3.383"/>
					
						<rect x="515.245" y="515.802" transform="matrix(-0.7073 -0.707 0.707 -0.7073 516.5937 1248.6846)" fill="#8F9294" width="3.166" height="3.167"/>
					
						<rect x="503.433" y="503.99" transform="matrix(-0.7069 -0.7073 0.7073 -0.7069 504.347 1219.9072)" fill="#8F9294" width="2.951" height="2.95"/>
					
						<rect x="491.621" y="492.178" transform="matrix(-0.7071 -0.7071 0.7071 -0.7071 492.5943 1191.13)" fill="#8F9294" width="2.735" height="2.734"/>
					
						<rect x="479.81" y="480.367" transform="matrix(-0.7071 -0.7071 0.7071 -0.7071 480.6741 1162.3536)" fill="#8F9294" width="2.518" height="2.518"/>
					
						<rect x="467.998" y="468.555" transform="matrix(-0.7073 -0.7069 0.7069 -0.7073 468.9533 1133.5765)" fill="#8F9294" width="2.302" height="2.302"/>
					
						<rect x="456.187" y="456.744" transform="matrix(-0.7069 -0.7073 0.7073 -0.7069 456.6216 1104.7997)" fill="#8F9294" width="2.085" height="2.085"/>
					
						<rect x="444.375" y="444.932" transform="matrix(-0.7071 -0.7071 0.7071 -0.7071 444.916 1076.0227)" fill="#8F9294" width="1.869" height="1.869"/>
				</g>
			</g>
			<g>
				<g>
					
						<rect x="564.645" y="584.518" transform="matrix(-0.7071 -0.7071 0.7071 -0.7071 552.7179 1402.2264)" fill="#8F9294" width="4.248" height="4.248"/>
					
						<rect x="552.834" y="572.706" transform="matrix(-0.7071 -0.7071 0.7071 -0.7071 540.7976 1373.45)" fill="#8F9294" width="4.031" height="4.032"/>
					
						<rect x="541.022" y="560.894" transform="matrix(-0.7072 -0.707 0.707 -0.7072 529.0192 1344.6753)" fill="#8F9294" width="3.815" height="3.816"/>
					
						<rect x="529.21" y="549.083" transform="matrix(-0.707 -0.7072 0.7072 -0.707 516.8109 1315.8928)" fill="#8F9294" width="3.6" height="3.599"/>
					
						<rect x="517.398" y="537.271" transform="matrix(-0.7071 -0.7071 0.7071 -0.7071 505.0378 1287.1183)" fill="#8F9294" width="3.384" height="3.383"/>
					
						<rect x="505.588" y="525.46" transform="matrix(-0.707 -0.7073 0.7073 -0.707 492.9597 1258.3396)" fill="#8F9294" width="3.166" height="3.166"/>
					
						<rect x="493.776" y="513.648" transform="matrix(-0.7071 -0.7071 0.7071 -0.7071 481.1993 1229.5653)" fill="#8F9294" width="2.95" height="2.95"/>
					
						<rect x="481.964" y="501.836" transform="matrix(-0.7069 -0.7073 0.7073 -0.7069 469.1033 1200.7845)" fill="#8F9294" width="2.734" height="2.734"/>
					
						<rect x="470.152" y="490.024" transform="matrix(-0.7071 -0.7071 0.7071 -0.7071 457.3595 1172.0109)" fill="#8F9294" width="2.518" height="2.518"/>
					
						<rect x="458.341" y="478.213" transform="matrix(-0.7071 -0.7071 0.7071 -0.7071 445.4392 1143.2345)" fill="#8F9294" width="2.301" height="2.302"/>
					
						<rect x="446.529" y="466.401" transform="matrix(-0.7073 -0.7069 0.7069 -0.7073 433.7335 1114.4619)" fill="#8F9294" width="2.085" height="2.085"/>
					
						<rect x="434.717" y="454.59" transform="matrix(-0.7068 -0.7074 0.7074 -0.7068 421.3666 1085.6748)" fill="#8F9294" width="1.869" height="1.869"/>
				</g>
			</g>
			<g>
				<g>
					
						<rect x="554.987" y="594.175" transform="matrix(-0.7072 -0.707 0.707 -0.7072 529.5335 1411.8892)" fill="#8F9294" width="4.249" height="4.249"/>
					
						<rect x="543.176" y="582.364" transform="matrix(-0.707 -0.7072 0.7072 -0.707 517.3463 1383.1025)" fill="#8F9294" width="4.032" height="4.031"/>
					
						<rect x="531.365" y="570.552" transform="matrix(-0.7071 -0.7071 0.7071 -0.7071 505.5627 1354.3308)" fill="#8F9294" width="3.816" height="3.816"/>
					
						<rect x="519.553" y="558.74" transform="matrix(-0.7071 -0.7071 0.7071 -0.7071 493.6428 1325.5536)" fill="#8F9294" width="3.599" height="3.599"/>
					
						<rect x="507.741" y="546.929" transform="matrix(-0.7071 -0.7071 0.7071 -0.7071 481.7225 1296.7772)" fill="#8F9294" width="3.382" height="3.383"/>
					
						<rect x="495.929" y="535.117" transform="matrix(-0.7071 -0.7071 0.7071 -0.7071 469.8029 1267.9991)" fill="#8F9294" width="3.167" height="3.167"/>
					
						<rect x="484.117" y="523.305" transform="matrix(-0.7073 -0.7069 0.7069 -0.7073 458.05 1239.2292)" fill="#8F9294" width="2.951" height="2.951"/>
					
						<rect x="472.306" y="511.494" transform="matrix(-0.7073 -0.7069 0.7069 -0.7073 446.1389 1210.4524)" fill="#8F9294" width="2.734" height="2.735"/>
					
						<rect x="460.494" y="499.683" transform="matrix(-0.7071 -0.7071 0.7071 -0.7071 434.0425 1181.6691)" fill="#8F9294" width="2.518" height="2.518"/>
					
						<rect x="448.683" y="487.871" transform="matrix(-0.7069 -0.7073 0.7073 -0.7069 421.9255 1152.8834)" fill="#8F9294" width="2.302" height="2.301"/>
					
						<rect x="436.871" y="476.059" transform="matrix(-0.7071 -0.7071 0.7071 -0.7071 410.2043 1124.1154)" fill="#8F9294" width="2.085" height="2.085"/>
					
						<rect x="425.06" y="464.247" transform="matrix(-0.7071 -0.7071 0.7071 -0.7071 398.2844 1095.338)" fill="#8F9294" width="1.869" height="1.869"/>
				</g>
			</g>
			<g>
				<g>
					
						<rect x="545.33" y="603.833" transform="matrix(-0.7071 -0.7071 0.7071 -0.7071 506.0863 1421.5419)" fill="#8F9294" width="4.248" height="4.248"/>
					
						<rect x="533.518" y="592.021" transform="matrix(-0.7072 -0.707 0.707 -0.7072 494.3027 1392.7725)" fill="#8F9294" width="4.032" height="4.033"/>
					
						<rect x="521.706" y="580.209" transform="matrix(-0.7071 -0.7071 0.7071 -0.7071 482.2464 1363.9874)" fill="#8F9294" width="3.816" height="3.816"/>
					
						<rect x="509.894" y="568.397" transform="matrix(-0.7072 -0.707 0.707 -0.7072 470.4734 1335.218)" fill="#8F9294" width="3.6" height="3.6"/>
					
						<rect x="498.084" y="556.586" transform="matrix(-0.7071 -0.7071 0.7071 -0.7071 458.4079 1306.4344)" fill="#8F9294" width="3.382" height="3.383"/>
					
						<rect x="486.272" y="544.775" transform="matrix(-0.7071 -0.7071 0.7071 -0.7071 446.4877 1277.658)" fill="#8F9294" width="3.167" height="3.167"/>
					
						<rect x="474.46" y="532.963" transform="matrix(-0.7069 -0.7073 0.7073 -0.7069 434.4008 1248.8702)" fill="#8F9294" width="2.951" height="2.95"/>
					
						<rect x="462.648" y="521.151" transform="matrix(-0.7071 -0.7071 0.7071 -0.7071 422.6481 1220.1028)" fill="#8F9294" width="2.735" height="2.734"/>
					
						<rect x="450.837" y="509.34" transform="matrix(-0.7071 -0.7071 0.7071 -0.7071 410.7279 1191.3263)" fill="#8F9294" width="2.518" height="2.518"/>
					
						<rect x="439.025" y="497.528" transform="matrix(-0.7073 -0.7069 0.7069 -0.7073 399.0071 1162.5615)" fill="#8F9294" width="2.302" height="2.302"/>
					
						<rect x="427.213" y="485.716" transform="matrix(-0.7071 -0.7071 0.7071 -0.7071 386.8881 1133.7719)" fill="#8F9294" width="2.085" height="2.085"/>
					
						<rect x="415.401" y="473.904" transform="matrix(-0.7074 -0.7068 0.7068 -0.7074 375.2009 1105.0099)" fill="#8F9294" width="1.869" height="1.869"/>
				</g>
			</g>
			<g>
				<g>
					
						<rect x="535.673" y="613.49" transform="matrix(-0.7071 -0.7071 0.7071 -0.7071 482.7717 1431.1991)" fill="#8F9294" width="4.248" height="4.248"/>
					
						<rect x="523.861" y="601.679" transform="matrix(-0.7071 -0.7071 0.7071 -0.7071 470.8514 1402.4227)" fill="#8F9294" width="4.031" height="4.032"/>
					
						<rect x="512.049" y="589.867" transform="matrix(-0.7071 -0.7071 0.7071 -0.7071 458.9315 1373.6454)" fill="#8F9294" width="3.816" height="3.815"/>
					
						<rect x="500.238" y="578.056" transform="matrix(-0.7071 -0.7071 0.7071 -0.7071 447.0112 1344.869)" fill="#8F9294" width="3.599" height="3.599"/>
					
						<rect x="488.425" y="566.244" transform="matrix(-0.7071 -0.7071 0.7071 -0.7071 435.0916 1316.0909)" fill="#8F9294" width="3.384" height="3.383"/>
					
						<rect x="476.614" y="554.432" transform="matrix(-0.7071 -0.7071 0.7071 -0.7071 423.1714 1287.3146)" fill="#8F9294" width="3.167" height="3.167"/>
					
						<rect x="464.802" y="542.62" transform="matrix(-0.7073 -0.7069 0.7069 -0.7073 411.4187 1258.5502)" fill="#8F9294" width="2.951" height="2.951"/>
					
						<rect x="452.992" y="530.809" transform="matrix(-0.7071 -0.7071 0.7071 -0.7071 399.3329 1229.7616)" fill="#8F9294" width="2.733" height="2.734"/>
					
						<rect x="441.18" y="518.997" transform="matrix(-0.7071 -0.7071 0.7071 -0.7071 387.4133 1200.9835)" fill="#8F9294" width="2.518" height="2.518"/>
					
						<rect x="429.368" y="507.186" transform="matrix(-0.7071 -0.7071 0.7071 -0.7071 375.493 1172.2072)" fill="#8F9294" width="2.301" height="2.302"/>
					
						<rect x="417.556" y="495.374" transform="matrix(-0.7071 -0.7071 0.7071 -0.7071 363.5731 1143.4299)" fill="#8F9294" width="2.085" height="2.085"/>
					
						<rect x="405.744" y="483.563" transform="matrix(-0.7071 -0.7071 0.7071 -0.7071 351.6528 1114.6536)" fill="#8F9294" width="1.869" height="1.869"/>
				</g>
			</g>
		</g>
		<path clip-path="url(#SVGID_2_)" fill="#FDFDFD" d="M750.498,275.471c-14.279,0-25.854,11.575-25.854,25.854
			s11.575,25.854,25.854,25.854s25.855-11.575,25.855-25.854S764.777,275.471,750.498,275.471z M750.498,313.415
			c-6.677,0-12.09-5.413-12.09-12.09s5.413-12.09,12.09-12.09c6.678,0,12.09,5.413,12.09,12.09S757.176,313.415,750.498,313.415z"/>
		<g clip-path="url(#SVGID_2_)">
			<g>
				<g>
					<defs>
						<ellipse id="SVGID_3_" cx="496.818" cy="314.419" rx="55.098" ry="55.8"/>
					</defs>
					<clipPath id="SVGID_4_">
						<use xlink:href="#SVGID_3_"  overflow="visible"/>
					</clipPath>
					<path clip-path="url(#SVGID_4_)" fill="none" stroke="#606060" stroke-width="0.6545" stroke-miterlimit="10" d="
						M482.641,256.003c-15.238,16.382-31.602,31.627-46.845,48.074"/>
					<path clip-path="url(#SVGID_4_)" fill="none" stroke="#606060" stroke-width="0.6545" stroke-miterlimit="10" d="
						M489.612,255.95c-16.974,18.423-35.955,36.32-53.854,54.514"/>
					<path clip-path="url(#SVGID_4_)" fill="none" stroke="#606060" stroke-width="0.6545" stroke-miterlimit="10" d="
						M496.06,255.961c-20.148,20.401-40.439,40.95-60.429,61.21"/>
					<path clip-path="url(#SVGID_4_)" fill="none" stroke="#606060" stroke-width="0.6545" stroke-miterlimit="10" d="
						M502.45,256.108c-21.957,22.242-44.212,44.78-66.77,67.608"/>
					<path clip-path="url(#SVGID_4_)" fill="none" stroke="#606060" stroke-width="0.6545" stroke-miterlimit="10" d="
						M510.283,256.047c-24.554,24.292-49.427,48.819-74.528,74.072"/>
					<path clip-path="url(#SVGID_4_)" fill="none" stroke="#606060" stroke-width="0.6545" stroke-miterlimit="10" d="
						M515.417,256.138c-25.76,26.854-51.287,52.043-77.47,79.221c-0.654,0.663-1.963,0.663-2.31,1.572"/>
					<path clip-path="url(#SVGID_4_)" fill="none" stroke="#606060" stroke-width="0.6545" stroke-miterlimit="10" d="
						M522.532,256.019c-15.856,17.029-32.875,32.275-49.894,49.51c-12.437,13.258-24.873,24.527-36.79,37.76"/>
					<path clip-path="url(#SVGID_4_)" fill="none" stroke="#606060" stroke-width="0.6545" stroke-miterlimit="10" d="
						M526.949,257.339c-30.092,30.955-61.511,60.785-91.192,92.572"/>
					<path clip-path="url(#SVGID_4_)" fill="none" stroke="#606060" stroke-width="0.6545" stroke-miterlimit="10" d="
						M526.887,263.905c-30.029,30.354-60.794,61.51-91.021,92.297"/>
					<path clip-path="url(#SVGID_4_)" fill="none" stroke="#606060" stroke-width="0.6545" stroke-miterlimit="10" d="
						M530.185,267.469c-31.364,32.095-63.437,63.249-94.301,95.401"/>
					<path clip-path="url(#SVGID_4_)" fill="none" stroke="#606060" stroke-width="0.6545" stroke-miterlimit="10" d="
						M536.705,267.437c-33.957,34.115-66.685,69.248-101.103,102.299"/>
					<path clip-path="url(#SVGID_4_)" fill="none" stroke="#606060" stroke-width="0.6545" stroke-miterlimit="10" d="
						M542.744,267.675c-34.76,35.202-68.796,69.672-103.553,104.872"/>
					<path clip-path="url(#SVGID_4_)" fill="none" stroke="#606060" stroke-width="0.6545" stroke-miterlimit="10" d="
						M549.104,267.678c-34.573,34.536-68.61,69.669-103.503,104.929"/>
					<path clip-path="url(#SVGID_4_)" fill="none" stroke="#606060" stroke-width="0.6545" stroke-miterlimit="10" d="
						M552.526,270.655c-33.415,33.547-66.143,68.018-100.483,101.978"/>
					<path clip-path="url(#SVGID_4_)" fill="none" stroke="#606060" stroke-width="0.6545" stroke-miterlimit="10" d="
						M552.725,276.91c-31.649,31.933-61.759,65.077-94.209,95.719"/>
					<g clip-path="url(#SVGID_4_)">
						<path fill="none" stroke="#606060" stroke-width="0.6545" stroke-miterlimit="10" d="M552.484,284.081
							c-29.445,29.402-58.245,59.232-87.47,88.517"/>
					</g>
					<g clip-path="url(#SVGID_4_)">
						<path fill="none" stroke="#606060" stroke-width="0.6545" stroke-miterlimit="10" d="M552.675,290.151
							c-27.018,27.31-53.854,55.15-81.135,82.39"/>
					</g>
					<path clip-path="url(#SVGID_4_)" fill="none" stroke="#606060" stroke-width="0.6545" stroke-miterlimit="10" d="
						M552.603,296.834c-24.981,25.267-49.854,50.456-74.674,75.787"/>
					<path clip-path="url(#SVGID_4_)" fill="none" stroke="#606060" stroke-width="0.6545" stroke-miterlimit="10" d="
						M552.679,303.388c-22.439,23.354-45.349,46.555-68.185,69.136"/>
					<path clip-path="url(#SVGID_4_)" fill="none" stroke="#606060" stroke-width="0.6545" stroke-miterlimit="10" d="
						M552.597,310.07c-20.394,20.647-41.34,41.86-61.679,62.498"/>
					<path clip-path="url(#SVGID_4_)" fill="none" stroke="#606060" stroke-width="0.6545" stroke-miterlimit="10" d="
						M552.426,316.86c-18.26,18.498-36.587,37.059-55.07,55.74"/>
					<path clip-path="url(#SVGID_4_)" fill="none" stroke="#606060" stroke-width="0.6545" stroke-miterlimit="10" d="
						M552.625,323.002c-12.705,12.812-25.393,25.642-38.014,38.538c-3.608,3.688-7.211,7.381-10.808,11.08"/>
					<path clip-path="url(#SVGID_4_)" fill="none" stroke="#606060" stroke-width="0.6545" stroke-miterlimit="10" d="
						M552.578,330.344c-13.83,14.296-28.23,28.879-42.316,42.287"/>
				</g>
			</g>
			<circle fill="none" stroke="#606060" stroke-width="0.6545" stroke-miterlimit="10" cx="561.781" cy="357.263" r="5.363"/>
		</g>
		<circle clip-path="url(#SVGID_2_)" fill="none" stroke="#8F9294" stroke-miterlimit="10" cx="129.614" cy="385.883" r="5.363"/>
	</g>
</g>
</svg>
