<?xml version="1.0" encoding="utf-8"?>
<!-- Generator: Adobe Illustrator 16.0.0, SVG Export Plug-In . SVG Version: 6.00 Build 0)  -->
<!DOCTYPE svg PUBLIC "-//W3C//DTD SVG 1.1//EN" "http://www.w3.org/Graphics/SVG/1.1/DTD/svg11.dtd">
<svg version="1.1" xmlns="http://www.w3.org/2000/svg" xmlns:xlink="http://www.w3.org/1999/xlink" x="0px" y="0px" width="750px"
	 height="500px" viewBox="0 0 750 500" enable-background="new 0 0 750 500" xml:space="preserve">
<g id="BACKGROUND">
</g>
<g id="OBJECTS">
	<g>
		<defs>
			<rect id="SVGID_1_" x="0" width="750" height="500"/>
		</defs>
		<clipPath id="SVGID_2_">
			<use xlink:href="#SVGID_1_"  overflow="visible"/>
		</clipPath>
		<g clip-path="url(#SVGID_2_)">
			<polygon fill="#FF2C2C" points="76.32,204.221 70.255,198.157 61.412,207 52.569,198.157 46.505,204.221 55.348,213.064 
				46.505,221.907 52.569,227.971 61.412,219.128 70.255,227.971 76.32,221.907 67.476,213.064 			"/>
		</g>
		<path clip-path="url(#SVGID_2_)" fill="#FDFDFD" d="M225.333,383.021c-78.013,0-141.255,63.242-141.255,141.255
			c0,78.014,63.242,141.256,141.255,141.256s141.255-63.242,141.255-141.256C366.589,446.264,303.347,383.021,225.333,383.021z
			 M225.333,637.297c-62.419,0-113.02-50.601-113.02-113.021c0-62.419,50.601-113.02,113.02-113.02s113.02,50.601,113.02,113.02
			C338.354,586.696,287.752,637.297,225.333,637.297z"/>
		<g clip-path="url(#SVGID_2_)">
			<path fill="none" stroke="#8F9294" stroke-width="2" stroke-miterlimit="10" d="M-35.279,423.279L-247.35,635.35
				c-7.236,7.236-18.968,7.236-26.205,0l0,0c-7.236-7.236-7.236-18.968,0-26.204l212.071-212.071c7.236-7.236,18.969-7.236,26.205,0
				l0,0C-28.043,404.311-28.043,416.043-35.279,423.279z"/>
			<path fill="none" stroke="#8F9294" stroke-width="2" stroke-miterlimit="10" d="M-48.19,514.113l-161.871,161.871
				c-5.523,5.523-14.479,5.523-20.001,0l0,0c-5.523-5.523-5.523-14.479,0-20.002l161.871-161.87c5.523-5.523,14.478-5.523,20.001,0
				l0,0C-42.667,499.636-42.667,508.59-48.19,514.113z"/>
		</g>
		<g clip-path="url(#SVGID_2_)">
			<polygon fill="#FDFDFD" points="697.221,390.082 687.318,407.234 707.123,407.234 			"/>
			<polygon fill="#FDFDFD" points="697.221,361.354 687.318,378.507 707.123,378.507 			"/>
			<polygon fill="#FDFDFD" points="697.221,332.626 687.318,349.778 707.125,349.778 			"/>
			<polygon fill="#FF2C2C" points="697.221,245.931 691.477,255.882 702.967,255.882 			"/>
		</g>
		<rect x="678" y="434.213" clip-path="url(#SVGID_2_)" fill="#FDFDFD" width="24.967" height="5.022"/>
		<g clip-path="url(#SVGID_2_)">
			<g>
				<circle fill="#606060" stroke="#D8D9DA" stroke-miterlimit="10" cx="668.669" cy="38.46" r="2.089"/>
				<circle fill="none" stroke="#D8D9DA" stroke-width="0.7797" stroke-miterlimit="10" cx="683.989" cy="38.46" r="2.089"/>
				<circle fill="none" stroke="#D8D9DA" stroke-width="0.7797" stroke-miterlimit="10" cx="699.31" cy="38.46" r="2.089"/>
			</g>
			<g>
				<circle fill="none" stroke="#D8D9DA" stroke-width="0.7797" stroke-miterlimit="10" cx="653.349" cy="51.692" r="2.089"/>
				<circle fill="none" stroke="#D8D9DA" stroke-width="0.7797" stroke-miterlimit="10" cx="668.669" cy="51.692" r="2.089"/>
				<circle fill="none" stroke="#D8D9DA" stroke-width="0.7797" stroke-miterlimit="10" cx="683.989" cy="51.692" r="2.089"/>
				<circle fill="none" stroke="#FF2C2C" stroke-miterlimit="10" cx="683.989" cy="63.995" r="2.089"/>
			</g>
		</g>
		<g clip-path="url(#SVGID_2_)">
			<g>
				<g>
					
						<line fill="none" stroke="#8F9294" stroke-width="0.3881" stroke-miterlimit="10" x1="595.158" y1="87.622" x2="595.158" y2="98.579"/>
					
						<line fill="none" stroke="#8F9294" stroke-width="0.3881" stroke-miterlimit="10" x1="589.68" y1="93.101" x2="600.637" y2="93.101"/>
				</g>
				<g>
					
						<line fill="none" stroke="#8F9294" stroke-width="0.3881" stroke-miterlimit="10" x1="625.016" y1="87.622" x2="625.016" y2="98.579"/>
					
						<line fill="none" stroke="#8F9294" stroke-width="0.3881" stroke-miterlimit="10" x1="619.537" y1="93.101" x2="630.494" y2="93.101"/>
				</g>
				<g>
					
						<line fill="none" stroke="#8F9294" stroke-width="0.3881" stroke-miterlimit="10" x1="654.873" y1="87.622" x2="654.873" y2="98.579"/>
					
						<line fill="none" stroke="#8F9294" stroke-width="0.3881" stroke-miterlimit="10" x1="649.395" y1="93.101" x2="660.352" y2="93.101"/>
				</g>
				<g>
					
						<line fill="none" stroke="#8F9294" stroke-width="0.3881" stroke-miterlimit="10" x1="684.73" y1="87.622" x2="684.73" y2="98.579"/>
					
						<line fill="none" stroke="#8F9294" stroke-width="0.3881" stroke-miterlimit="10" x1="679.252" y1="93.101" x2="690.209" y2="93.101"/>
				</g>
			</g>
			<g>
				<g>
					
						<line fill="none" stroke="#8F9294" stroke-width="0.3881" stroke-miterlimit="10" x1="595.158" y1="110.357" x2="595.158" y2="121.314"/>
					
						<line fill="none" stroke="#8F9294" stroke-width="0.3881" stroke-miterlimit="10" x1="589.68" y1="115.836" x2="600.637" y2="115.836"/>
				</g>
				<g>
					
						<line fill="none" stroke="#8F9294" stroke-width="0.3881" stroke-miterlimit="10" x1="625.016" y1="110.357" x2="625.016" y2="121.314"/>
					
						<line fill="none" stroke="#8F9294" stroke-width="0.3881" stroke-miterlimit="10" x1="619.537" y1="115.836" x2="630.494" y2="115.836"/>
				</g>
				<g>
					
						<line fill="none" stroke="#8F9294" stroke-width="0.3881" stroke-miterlimit="10" x1="654.873" y1="110.357" x2="654.873" y2="121.314"/>
					
						<line fill="none" stroke="#8F9294" stroke-width="0.3881" stroke-miterlimit="10" x1="649.395" y1="115.836" x2="660.352" y2="115.836"/>
				</g>
				<g>
					
						<line fill="none" stroke="#8F9294" stroke-width="0.3881" stroke-miterlimit="10" x1="684.73" y1="110.357" x2="684.73" y2="121.314"/>
					
						<line fill="none" stroke="#8F9294" stroke-width="0.3881" stroke-miterlimit="10" x1="679.252" y1="115.836" x2="690.209" y2="115.836"/>
				</g>
			</g>
			<g>
				<g>
					
						<line fill="none" stroke="#8F9294" stroke-width="0.3881" stroke-miterlimit="10" x1="595.158" y1="133.093" x2="595.158" y2="144.05"/>
					
						<line fill="none" stroke="#8F9294" stroke-width="0.3881" stroke-miterlimit="10" x1="589.68" y1="138.572" x2="600.637" y2="138.572"/>
				</g>
				<g>
					
						<line fill="none" stroke="#8F9294" stroke-width="0.3881" stroke-miterlimit="10" x1="625.016" y1="133.093" x2="625.016" y2="144.05"/>
					
						<line fill="none" stroke="#8F9294" stroke-width="0.3881" stroke-miterlimit="10" x1="619.537" y1="138.572" x2="630.494" y2="138.572"/>
				</g>
				<g>
					
						<line fill="none" stroke="#8F9294" stroke-width="0.3881" stroke-miterlimit="10" x1="654.873" y1="133.093" x2="654.873" y2="144.05"/>
					
						<line fill="none" stroke="#8F9294" stroke-width="0.3881" stroke-miterlimit="10" x1="649.395" y1="138.572" x2="660.352" y2="138.572"/>
				</g>
				<g>
					
						<line fill="none" stroke="#8F9294" stroke-width="0.3881" stroke-miterlimit="10" x1="684.73" y1="133.093" x2="684.73" y2="144.05"/>
					
						<line fill="none" stroke="#8F9294" stroke-width="0.3881" stroke-miterlimit="10" x1="679.252" y1="138.572" x2="690.209" y2="138.572"/>
				</g>
			</g>
			<g>
				<g>
					
						<line fill="none" stroke="#8F9294" stroke-width="0.3881" stroke-miterlimit="10" x1="595.158" y1="155.829" x2="595.158" y2="166.786"/>
					
						<line fill="none" stroke="#8F9294" stroke-width="0.3881" stroke-miterlimit="10" x1="589.68" y1="161.307" x2="600.637" y2="161.307"/>
				</g>
				<g>
					
						<line fill="none" stroke="#8F9294" stroke-width="0.3881" stroke-miterlimit="10" x1="625.016" y1="155.829" x2="625.016" y2="166.786"/>
					
						<line fill="none" stroke="#8F9294" stroke-width="0.3881" stroke-miterlimit="10" x1="619.537" y1="161.307" x2="630.494" y2="161.307"/>
				</g>
				<g>
					
						<line fill="none" stroke="#8F9294" stroke-width="0.3881" stroke-miterlimit="10" x1="654.873" y1="155.829" x2="654.873" y2="166.786"/>
					
						<line fill="none" stroke="#8F9294" stroke-width="0.3881" stroke-miterlimit="10" x1="649.395" y1="161.307" x2="660.352" y2="161.307"/>
				</g>
				<g>
					
						<line fill="none" stroke="#8F9294" stroke-width="0.3881" stroke-miterlimit="10" x1="684.73" y1="155.829" x2="684.73" y2="166.786"/>
					
						<line fill="none" stroke="#8F9294" stroke-width="0.3881" stroke-miterlimit="10" x1="679.252" y1="161.307" x2="690.209" y2="161.307"/>
				</g>
			</g>
		</g>
		
			<rect x="498.707" y="16" clip-path="url(#SVGID_2_)" fill="none" stroke="#8F9294" stroke-linecap="round" stroke-linejoin="round" stroke-miterlimit="10" width="121.484" height="10.187"/>
		<g clip-path="url(#SVGID_2_)">
			<g>
				<g>
					
						<rect x="-86.92" y="-58.242" transform="matrix(0.7071 0.7071 -0.7071 0.7071 -64.5175 43.5236)" fill="#8F9294" width="4.248" height="4.248"/>
					
						<rect x="-74.893" y="-46.214" transform="matrix(0.7071 0.7071 -0.7071 0.7071 -52.5979 38.5865)" fill="#8F9294" width="4.031" height="4.032"/>
					
						<rect x="-62.865" y="-34.186" transform="matrix(0.707 0.7072 -0.7072 0.707 -40.6839 33.6509)" fill="#8F9294" width="3.816" height="3.815"/>
					
						<rect x="-50.837" y="-22.158" transform="matrix(0.7071 0.7071 -0.7071 0.7071 -28.7582 28.7116)" fill="#8F9294" width="3.599" height="3.599"/>
					
						<rect x="-38.809" y="-10.13" transform="matrix(0.7071 0.7071 -0.7071 0.7071 -16.8383 23.7742)" fill="#8F9294" width="3.383" height="3.383"/>
					
						<rect x="-26.781" y="1.898" transform="matrix(0.7071 0.7071 -0.7071 0.7071 -4.9187 18.8371)" fill="#8F9294" width="3.166" height="3.166"/>
					
						<rect x="-14.753" y="13.926" transform="matrix(0.707 0.7072 -0.7072 0.707 7.0014 13.9021)" fill="#8F9294" width="2.95" height="2.95"/>
					
						<rect x="-2.725" y="25.954" transform="matrix(0.7071 0.7071 -0.7071 0.7071 18.921 8.9623)" fill="#8F9294" width="2.734" height="2.734"/>
					
						<rect x="9.303" y="37.982" transform="matrix(0.7071 0.7071 -0.7071 0.7071 30.8409 4.0249)" fill="#8F9294" width="2.518" height="2.518"/>
					
						<rect x="21.331" y="50.01" transform="matrix(0.7071 0.7071 -0.7071 0.7071 42.7605 -0.9122)" fill="#8F9294" width="2.301" height="2.301"/>
					
						<rect x="33.359" y="62.038" transform="matrix(0.707 0.7072 -0.7072 0.707 54.6919 -5.8463)" fill="#8F9294" width="2.085" height="2.085"/>
					
						<rect x="45.387" y="74.066" transform="matrix(0.707 0.7072 -0.7072 0.707 66.6159 -10.783)" fill="#8F9294" width="1.868" height="1.868"/>
				</g>
			</g>
			<g>
				<g>
					
						<rect x="-77.263" y="-67.899" transform="matrix(0.707 0.7072 -0.7072 0.707 -68.5261 33.8668)" fill="#8F9294" width="4.248" height="4.248"/>
					
						<rect x="-65.235" y="-55.871" transform="matrix(0.707 0.7072 -0.7072 0.707 -56.6051 28.9294)" fill="#8F9294" width="4.032" height="4.032"/>
					
						<rect x="-53.207" y="-43.844" transform="matrix(0.7071 0.7071 -0.7071 0.7071 -44.6783 23.9914)" fill="#8F9294" width="3.815" height="3.816"/>
					
						<rect x="-41.179" y="-31.815" transform="matrix(0.707 0.7072 -0.7072 0.707 -32.7631 19.0546)" fill="#8F9294" width="3.599" height="3.599"/>
					
						<rect x="-29.151" y="-19.787" transform="matrix(0.707 0.7072 -0.7072 0.707 -20.8421 14.1175)" fill="#8F9294" width="3.383" height="3.383"/>
					
						<rect x="-17.123" y="-7.759" transform="matrix(0.707 0.7072 -0.7072 0.707 -8.9205 9.1802)" fill="#8F9294" width="3.166" height="3.166"/>
					
						<rect x="-5.095" y="4.268" transform="matrix(0.7072 0.707 -0.707 0.7072 3.0007 4.2412)" fill="#8F9294" width="2.95" height="2.951"/>
					
						<rect x="6.933" y="16.296" transform="matrix(0.707 0.7072 -0.7072 0.707 14.9231 -0.6945)" fill="#8F9294" width="2.734" height="2.734"/>
					
						<rect x="18.961" y="28.324" transform="matrix(0.7071 0.7071 -0.7071 0.7071 26.8406 -5.6328)" fill="#8F9294" width="2.518" height="2.518"/>
					
						<rect x="30.988" y="40.352" transform="matrix(0.7071 0.7071 -0.7071 0.7071 38.7603 -10.5699)" fill="#8F9294" width="2.302" height="2.302"/>
					
						<rect x="43.017" y="52.38" transform="matrix(0.7071 0.7071 -0.7071 0.7071 50.6801 -15.5074)" fill="#8F9294" width="2.085" height="2.085"/>
					
						<rect x="55.044" y="64.408" transform="matrix(0.7072 0.707 -0.707 0.7072 62.5842 -20.446)" fill="#8F9294" width="1.87" height="1.869"/>
				</g>
			</g>
			<g>
				<g>
					
						<rect x="-67.606" y="-77.557" transform="matrix(0.7071 0.7071 -0.7071 0.7071 -72.5183 24.2085)" fill="#8F9294" width="4.248" height="4.248"/>
					
						<rect x="-55.578" y="-65.529" transform="matrix(0.7071 0.7071 -0.7071 0.7071 -60.5984 19.2711)" fill="#8F9294" width="4.032" height="4.032"/>
					
						<rect x="-43.549" y="-53.501" transform="matrix(0.7072 0.707 -0.707 0.7072 -48.6727 14.3343)" fill="#8F9294" width="3.816" height="3.816"/>
					
						<rect x="-31.521" y="-41.473" transform="matrix(0.7072 0.707 -0.707 0.7072 -36.754 9.3969)" fill="#8F9294" width="3.599" height="3.6"/>
					
						<rect x="-19.494" y="-29.445" transform="matrix(0.7071 0.7071 -0.7071 0.7071 -24.8391 4.4592)" fill="#8F9294" width="3.383" height="3.383"/>
					
						<rect x="-7.466" y="-17.417" transform="matrix(0.7071 0.7071 -0.7071 0.7071 -12.9192 -0.4782)" fill="#8F9294" width="3.167" height="3.167"/>
					
						<rect x="4.562" y="-5.39" transform="matrix(0.7072 0.707 -0.707 0.7072 -0.9996 -5.4149)" fill="#8F9294" width="2.95" height="2.951"/>
					
						<rect x="16.59" y="6.639" transform="matrix(0.7071 0.7071 -0.7071 0.7071 10.9203 -10.3527)" fill="#8F9294" width="2.734" height="2.734"/>
					
						<rect x="28.618" y="18.666" transform="matrix(0.7071 0.7071 -0.7071 0.7071 22.8401 -15.2902)" fill="#8F9294" width="2.518" height="2.518"/>
					
						<rect x="40.646" y="30.694" transform="matrix(0.7071 0.7071 -0.7071 0.7071 34.76 -20.2276)" fill="#8F9294" width="2.302" height="2.302"/>
					
						<rect x="52.675" y="42.722" transform="matrix(0.7072 0.707 -0.707 0.7072 46.6685 -25.1643)" fill="#8F9294" width="2.085" height="2.085"/>
					
						<rect x="64.703" y="54.75" transform="matrix(0.7074 0.7068 -0.7068 0.7074 58.5681 -30.1002)" fill="#8F9294" width="1.869" height="1.87"/>
				</g>
			</g>
			<g>
				<g>
					
						<rect x="-57.948" y="-87.215" transform="matrix(0.7072 0.707 -0.707 0.7072 -76.5104 14.5526)" fill="#8F9294" width="4.248" height="4.248"/>
					
						<rect x="-45.92" y="-75.187" transform="matrix(0.7071 0.7071 -0.7071 0.7071 -64.5988 9.6134)" fill="#8F9294" width="4.032" height="4.032"/>
					
						<rect x="-33.892" y="-63.159" transform="matrix(0.7071 0.7071 -0.7071 0.7071 -52.679 4.6764)" fill="#8F9294" width="3.815" height="3.815"/>
					
						<rect x="-21.864" y="-51.131" transform="matrix(0.7071 0.7071 -0.7071 0.7071 -40.7592 -0.2611)" fill="#8F9294" width="3.599" height="3.599"/>
					
						<rect x="-9.836" y="-39.103" transform="matrix(0.7071 0.7071 -0.7071 0.7071 -28.8393 -5.1985)" fill="#8F9294" width="3.383" height="3.383"/>
					
						<rect x="2.192" y="-27.075" transform="matrix(0.7071 0.7071 -0.7071 0.7071 -16.9196 -10.136)" fill="#8F9294" width="3.167" height="3.167"/>
					
						<rect x="14.22" y="-15.047" transform="matrix(0.7071 0.7071 -0.7071 0.7071 -4.9995 -15.0733)" fill="#8F9294" width="2.951" height="2.95"/>
					
						<rect x="26.248" y="-3.019" transform="matrix(0.7071 0.7071 -0.7071 0.7071 6.92 -20.0105)" fill="#8F9294" width="2.734" height="2.734"/>
					
						<rect x="38.276" y="9.009" transform="matrix(0.7071 0.7071 -0.7071 0.7071 18.8401 -24.9478)" fill="#8F9294" width="2.518" height="2.518"/>
					
						<rect x="50.303" y="21.037" transform="matrix(0.707 0.7072 -0.7072 0.707 30.7672 -29.8877)" fill="#8F9294" width="2.301" height="2.301"/>
					
						<rect x="62.331" y="33.065" transform="matrix(0.7071 0.7071 -0.7071 0.7071 42.6794 -34.822)" fill="#8F9294" width="2.085" height="2.085"/>
					
						<rect x="74.36" y="45.093" transform="matrix(0.7068 0.7074 -0.7074 0.7068 54.6307 -39.7671)" fill="#8F9294" width="1.868" height="1.868"/>
				</g>
			</g>
			<g>
				<g>
					
						<rect x="-48.29" y="-96.872" transform="matrix(0.7071 0.7071 -0.7071 0.7071 -80.5187 4.8932)" fill="#8F9294" width="4.248" height="4.248"/>
					
						<rect x="-36.262" y="-84.844" transform="matrix(0.7072 0.707 -0.707 0.7072 -68.5919 -0.0413)" fill="#8F9294" width="4.032" height="4.032"/>
					
						<rect x="-24.234" y="-72.816" transform="matrix(0.707 0.7072 -0.7072 0.707 -56.6851 -4.9844)" fill="#8F9294" width="3.816" height="3.815"/>
					
						<rect x="-12.206" y="-60.788" transform="matrix(0.7071 0.7071 -0.7071 0.7071 -44.7594 -9.9187)" fill="#8F9294" width="3.599" height="3.599"/>
					
						<rect x="-0.178" y="-48.76" transform="matrix(0.7071 0.7071 -0.7071 0.7071 -32.8395 -14.8561)" fill="#8F9294" width="3.383" height="3.383"/>
					
						<rect x="11.85" y="-36.732" transform="matrix(0.7071 0.7071 -0.7071 0.7071 -20.9199 -19.7932)" fill="#8F9294" width="3.166" height="3.166"/>
					
						<rect x="23.877" y="-24.704" transform="matrix(0.707 0.7072 -0.7072 0.707 -8.9998 -24.7347)" fill="#8F9294" width="2.95" height="2.95"/>
					
						<rect x="35.906" y="-12.676" transform="matrix(0.7071 0.7071 -0.7071 0.7071 2.9198 -29.6681)" fill="#8F9294" width="2.734" height="2.734"/>
					
						<rect x="47.933" y="-0.648" transform="matrix(0.7069 0.7073 -0.7073 0.7069 14.8492 -34.6146)" fill="#8F9294" width="2.517" height="2.517"/>
					
						<rect x="59.961" y="11.379" transform="matrix(0.7071 0.7071 -0.7071 0.7071 26.7593 -39.5426)" fill="#8F9294" width="2.301" height="2.301"/>
					
						<rect x="71.989" y="23.407" transform="matrix(0.7071 0.7071 -0.7071 0.7071 38.6792 -44.48)" fill="#8F9294" width="2.085" height="2.085"/>
					
						<rect x="84.017" y="35.435" transform="matrix(0.7074 0.7068 -0.7068 0.7074 50.5673 -49.4048)" fill="#8F9294" width="1.869" height="1.869"/>
				</g>
			</g>
			<g>
				<g>
					
						<rect x="-38.632" y="-106.53" transform="matrix(0.7071 0.7071 -0.7071 0.7071 -84.5191 -4.7645)" fill="#8F9294" width="4.248" height="4.248"/>
					
						<rect x="-26.605" y="-94.502" transform="matrix(0.7072 0.707 -0.707 0.7072 -72.5924 -9.6975)" fill="#8F9294" width="4.032" height="4.032"/>
					
						<rect x="-14.577" y="-82.474" transform="matrix(0.7072 0.707 -0.707 0.7072 -60.6736 -14.6346)" fill="#8F9294" width="3.816" height="3.816"/>
					
						<rect x="-2.549" y="-70.446" transform="matrix(0.7072 0.707 -0.707 0.7072 -48.7551 -19.5718)" fill="#8F9294" width="3.599" height="3.599"/>
					
						<rect x="9.479" y="-58.418" transform="matrix(0.7072 0.707 -0.707 0.7072 -36.8366 -24.5089)" fill="#8F9294" width="3.383" height="3.383"/>
					
						<rect x="21.507" y="-46.39" transform="matrix(0.7072 0.707 -0.707 0.7072 -24.9186 -29.4457)" fill="#8F9294" width="3.166" height="3.167"/>
					
						<rect x="33.535" y="-34.362" transform="matrix(0.7072 0.707 -0.707 0.7072 -13.0005 -34.3827)" fill="#8F9294" width="2.95" height="2.951"/>
					
						<rect x="45.563" y="-22.334" transform="matrix(0.7072 0.707 -0.707 0.7072 -1.0829 -39.3198)" fill="#8F9294" width="2.734" height="2.734"/>
					
						<rect x="57.591" y="-10.307" transform="matrix(0.7073 0.7069 -0.7069 0.7073 10.8297 -44.25)" fill="#8F9294" width="2.518" height="2.518"/>
					
						<rect x="69.62" y="1.722" transform="matrix(0.7071 0.7071 -0.7071 0.7071 22.7591 -49.2007)" fill="#8F9294" width="2.301" height="2.301"/>
					
						<rect x="81.647" y="13.75" transform="matrix(0.7072 0.707 -0.707 0.7072 34.6676 -54.1301)" fill="#8F9294" width="2.085" height="2.085"/>
					
						<rect x="93.675" y="25.778" transform="matrix(0.7072 0.707 -0.707 0.7072 46.5831 -59.0666)" fill="#8F9294" width="1.87" height="1.869"/>
				</g>
			</g>
			<g>
				<g>
					
						<rect x="-28.975" y="-116.188" transform="matrix(0.7071 0.7071 -0.7071 0.7071 -88.5196 -14.4218)" fill="#8F9294" width="4.248" height="4.248"/>
					
						<rect x="-16.947" y="-104.16" transform="matrix(0.7071 0.7071 -0.7071 0.7071 -76.5996 -19.3592)" fill="#8F9294" width="4.032" height="4.032"/>
					
						<rect x="-4.919" y="-92.132" transform="matrix(0.7072 0.707 -0.707 0.7072 -64.6739 -24.2911)" fill="#8F9294" width="3.816" height="3.816"/>
					
						<rect x="7.109" y="-80.104" transform="matrix(0.7071 0.7071 -0.7071 0.7071 -52.76 -29.2341)" fill="#8F9294" width="3.6" height="3.599"/>
					
						<rect x="19.137" y="-68.076" transform="matrix(0.7071 0.7071 -0.7071 0.7071 -40.8404 -34.1712)" fill="#8F9294" width="3.383" height="3.383"/>
					
						<rect x="31.165" y="-56.048" transform="matrix(0.7071 0.7071 -0.7071 0.7071 -28.9204 -39.1086)" fill="#8F9294" width="3.167" height="3.167"/>
					
						<rect x="43.193" y="-44.02" transform="matrix(0.7072 0.707 -0.707 0.7072 -17.0009 -44.0389)" fill="#8F9294" width="2.95" height="2.951"/>
					
						<rect x="55.221" y="-31.992" transform="matrix(0.7072 0.707 -0.707 0.7072 -5.0829 -48.976)" fill="#8F9294" width="2.734" height="2.735"/>
					
						<rect x="67.249" y="-19.964" transform="matrix(0.7073 0.7069 -0.7069 0.7073 6.8295 -53.9044)" fill="#8F9294" width="2.518" height="2.518"/>
					
						<rect x="79.277" y="-7.936" transform="matrix(0.7074 0.7068 -0.7068 0.7074 18.7356 -58.8309)" fill="#8F9294" width="2.303" height="2.303"/>
					
						<rect x="91.304" y="4.093" transform="matrix(0.7068 0.7075 -0.7075 0.7068 30.7125 -63.8254)" fill="#8F9294" width="2.084" height="2.084"/>
					
						<rect x="103.332" y="16.12" transform="matrix(0.7068 0.7074 -0.7074 0.7068 42.6299 -68.7549)" fill="#8F9294" width="1.868" height="1.868"/>
				</g>
			</g>
			<g>
				<g>
					
						<rect x="-19.317" y="-125.845" transform="matrix(0.7072 0.707 -0.707 0.7072 -92.5116 -24.0734)" fill="#8F9294" width="4.248" height="4.248"/>
					
						<rect x="-7.289" y="-113.817" transform="matrix(0.7071 0.7071 -0.7071 0.7071 -80.5998 -29.0169)" fill="#8F9294" width="4.032" height="4.032"/>
					
						<rect x="4.739" y="-101.789" transform="matrix(0.7071 0.7071 -0.7071 0.7071 -68.6799 -33.9543)" fill="#8F9294" width="3.816" height="3.816"/>
					
						<rect x="16.766" y="-89.761" transform="matrix(0.7071 0.7071 -0.7071 0.7071 -56.7603 -38.8914)" fill="#8F9294" width="3.599" height="3.599"/>
					
						<rect x="28.794" y="-77.733" transform="matrix(0.7071 0.7071 -0.7071 0.7071 -44.8405 -43.8289)" fill="#8F9294" width="3.383" height="3.383"/>
					
						<rect x="40.822" y="-65.705" transform="matrix(0.7071 0.7071 -0.7071 0.7071 -32.9206 -48.7663)" fill="#8F9294" width="3.167" height="3.166"/>
					
						<rect x="52.85" y="-53.677" transform="matrix(0.707 0.7072 -0.7072 0.707 -21.001 -53.7118)" fill="#8F9294" width="2.95" height="2.95"/>
					
						<rect x="64.878" y="-41.649" transform="matrix(0.7068 0.7074 -0.7074 0.7068 -9.0743 -58.669)" fill="#8F9294" width="2.733" height="2.733"/>
					
						<rect x="76.906" y="-29.621" transform="matrix(0.7069 0.7073 -0.7073 0.7069 2.8482 -63.5985)" fill="#8F9294" width="2.517" height="2.517"/>
					
						<rect x="88.934" y="-17.593" transform="matrix(0.707 0.7072 -0.7072 0.707 14.7663 -68.5266)" fill="#8F9294" width="2.301" height="2.301"/>
					
						<rect x="100.962" y="-5.566" transform="matrix(0.7071 0.7071 -0.7071 0.7071 26.6782 -73.4527)" fill="#8F9294" width="2.085" height="2.085"/>
					
						<rect x="112.99" y="6.463" transform="matrix(0.7068 0.7074 -0.7074 0.7068 38.6298 -78.418)" fill="#8F9294" width="1.868" height="1.868"/>
				</g>
			</g>
			<g>
				<g>
					
						<rect x="-9.66" y="-135.503" transform="matrix(0.7071 0.7071 -0.7071 0.7071 -96.5199 -33.7371)" fill="#8F9294" width="4.248" height="4.248"/>
					
						<rect x="2.368" y="-123.475" transform="matrix(0.7071 0.7071 -0.7071 0.7071 -84.6003 -38.6742)" fill="#8F9294" width="4.031" height="4.032"/>
					
						<rect x="14.396" y="-111.446" transform="matrix(0.707 0.7072 -0.7072 0.707 -72.6864 -43.6197)" fill="#8F9294" width="3.816" height="3.815"/>
					
						<rect x="26.424" y="-99.419" transform="matrix(0.7071 0.7071 -0.7071 0.7071 -60.7606 -48.5491)" fill="#8F9294" width="3.599" height="3.599"/>
					
						<rect x="38.452" y="-87.391" transform="matrix(0.7071 0.7071 -0.7071 0.7071 -48.8407 -53.4865)" fill="#8F9294" width="3.383" height="3.383"/>
					
						<rect x="50.48" y="-75.362" transform="matrix(0.707 0.7073 -0.7073 0.707 -36.9245 -58.443)" fill="#8F9294" width="3.166" height="3.166"/>
					
						<rect x="62.508" y="-63.335" transform="matrix(0.707 0.7072 -0.7072 0.707 -25.001 -63.3714)" fill="#8F9294" width="2.95" height="2.95"/>
					
						<rect x="74.536" y="-51.307" transform="matrix(0.7072 0.707 -0.707 0.7072 -13.0838 -68.2872)" fill="#8F9294" width="2.734" height="2.734"/>
					
						<rect x="86.564" y="-39.279" transform="matrix(0.7073 0.7069 -0.7069 0.7073 -1.1712 -73.2115)" fill="#8F9294" width="2.518" height="2.518"/>
					
						<rect x="98.592" y="-27.251" transform="matrix(0.7071 0.7071 -0.7071 0.7071 10.7582 -78.1733)" fill="#8F9294" width="2.301" height="2.301"/>
					
						<rect x="110.62" y="-15.223" transform="matrix(0.7071 0.7071 -0.7071 0.7071 22.6781 -83.1107)" fill="#8F9294" width="2.085" height="2.085"/>
					
						<rect x="122.648" y="-3.195" transform="matrix(0.7074 0.7068 -0.7068 0.7074 34.5662 -88.0153)" fill="#8F9294" width="1.869" height="1.869"/>
				</g>
			</g>
			<g>
				<g>
					
						<rect x="-0.002" y="-145.16" transform="matrix(0.7071 0.7071 -0.7071 0.7071 -100.5203 -43.3949)" fill="#8F9294" width="4.248" height="4.248"/>
					
						<rect x="12.026" y="-133.132" transform="matrix(0.7072 0.707 -0.707 0.7072 -88.5936 -48.3232)" fill="#8F9294" width="4.032" height="4.032"/>
					
						<rect x="24.054" y="-121.104" transform="matrix(0.707 0.7072 -0.7072 0.707 -76.6867 -53.2786)" fill="#8F9294" width="3.816" height="3.815"/>
					
						<rect x="36.082" y="-109.076" transform="matrix(0.7071 0.7071 -0.7071 0.7071 -64.761 -58.2068)" fill="#8F9294" width="3.599" height="3.599"/>
					
						<rect x="48.11" y="-97.049" transform="matrix(0.7072 0.707 -0.707 0.7072 -52.8378 -63.1337)" fill="#8F9294" width="3.383" height="3.383"/>
					
						<rect x="60.138" y="-85.021" transform="matrix(0.7073 0.7069 -0.7069 0.7073 -40.9163 -68.0481)" fill="#8F9294" width="3.167" height="3.167"/>
					
						<rect x="72.166" y="-72.992" transform="matrix(0.707 0.7072 -0.7072 0.707 -29.0012 -73.0311)" fill="#8F9294" width="2.95" height="2.95"/>
					
						<rect x="84.194" y="-60.965" transform="matrix(0.7072 0.707 -0.707 0.7072 -17.084 -77.9436)" fill="#8F9294" width="2.734" height="2.734"/>
					
						<rect x="96.222" y="-48.937" transform="matrix(0.7073 0.7069 -0.7069 0.7073 -5.1714 -82.8658)" fill="#8F9294" width="2.518" height="2.518"/>
					
						<rect x="108.25" y="-36.909" transform="matrix(0.7075 0.7067 -0.7067 0.7075 6.7268 -87.7698)" fill="#8F9294" width="2.302" height="2.303"/>
					
						<rect x="120.278" y="-24.881" transform="matrix(0.7071 0.7071 -0.7071 0.7071 18.6779 -92.7688)" fill="#8F9294" width="2.085" height="2.085"/>
					
						<rect x="132.305" y="-12.852" transform="matrix(0.7067 0.7075 -0.7075 0.7067 30.6449 -97.7617)" fill="#8F9294" width="1.868" height="1.868"/>
				</g>
			</g>
			<g>
				<g>
					
						<rect x="9.655" y="-154.818" transform="matrix(0.7071 0.7071 -0.7071 0.7071 -104.5208 -53.0522)" fill="#8F9294" width="4.248" height="4.248"/>
					
						<rect x="21.683" y="-142.79" transform="matrix(0.7071 0.7071 -0.7071 0.7071 -92.6009 -57.9896)" fill="#8F9294" width="4.032" height="4.032"/>
					
						<rect x="33.711" y="-130.762" transform="matrix(0.7072 0.707 -0.707 0.7072 -80.6751 -62.9165)" fill="#8F9294" width="3.816" height="3.816"/>
					
						<rect x="45.74" y="-118.734" transform="matrix(0.7072 0.707 -0.707 0.7072 -68.7563 -67.8537)" fill="#8F9294" width="3.6" height="3.6"/>
					
						<rect x="57.768" y="-106.706" transform="matrix(0.7072 0.707 -0.707 0.7072 -56.838 -72.7904)" fill="#8F9294" width="3.383" height="3.383"/>
					
						<rect x="69.796" y="-94.678" transform="matrix(0.7073 0.707 -0.707 0.7073 -44.918 -77.7143)" fill="#8F9294" width="3.167" height="3.167"/>
					
						<rect x="81.822" y="-82.65" transform="matrix(0.7071 0.7071 -0.7071 0.7071 -33.0022 -82.6758)" fill="#8F9294" width="2.95" height="2.95"/>
					
						<rect x="93.851" y="-70.622" transform="matrix(0.7067 0.7075 -0.7075 0.7067 -21.073 -87.6719)" fill="#8F9294" width="2.733" height="2.733"/>
					
						<rect x="105.879" y="-58.594" transform="matrix(0.7069 0.7073 -0.7073 0.7069 -9.1529 -92.5825)" fill="#8F9294" width="2.517" height="2.517"/>
					
						<rect x="117.907" y="-46.566" transform="matrix(0.707 0.7072 -0.7072 0.707 2.7652 -97.5054)" fill="#8F9294" width="2.301" height="2.301"/>
					
						<rect x="129.935" y="-34.539" transform="matrix(0.7072 0.707 -0.707 0.7072 14.6657 -102.4062)" fill="#8F9294" width="2.085" height="2.085"/>
					
						<rect x="141.963" y="-22.51" transform="matrix(0.7067 0.7075 -0.7075 0.7067 26.6447 -107.4273)" fill="#8F9294" width="1.868" height="1.868"/>
				</g>
			</g>
			<g>
				<g>
					
						<rect x="19.313" y="-164.476" transform="matrix(0.7071 0.7071 -0.7071 0.7071 -108.5211 -62.7099)" fill="#8F9294" width="4.248" height="4.248"/>
					
						<rect x="31.341" y="-152.448" transform="matrix(0.7071 0.7071 -0.7071 0.7071 -96.6012 -67.6473)" fill="#8F9294" width="4.032" height="4.032"/>
					
						<rect x="43.369" y="-140.42" transform="matrix(0.7072 0.707 -0.707 0.7072 -84.6755 -72.573)" fill="#8F9294" width="3.816" height="3.816"/>
					
						<rect x="55.396" y="-128.392" transform="matrix(0.7071 0.7071 -0.7071 0.7071 -72.7618 -77.5215)" fill="#8F9294" width="3.599" height="3.599"/>
					
						<rect x="67.425" y="-116.363" transform="matrix(0.7069 0.7073 -0.7073 0.7069 -60.8519 -82.4988)" fill="#8F9294" width="3.382" height="3.382"/>
					
						<rect x="79.453" y="-104.335" transform="matrix(0.707 0.7073 -0.7073 0.707 -48.9255 -87.4247)" fill="#8F9294" width="3.166" height="3.166"/>
					
						<rect x="91.481" y="-92.308" transform="matrix(0.7071 0.7071 -0.7071 0.7071 -37.0024 -92.3338)" fill="#8F9294" width="2.95" height="2.95"/>
					
						<rect x="103.508" y="-80.28" transform="matrix(0.7072 0.707 -0.707 0.7072 -25.0848 -97.2548)" fill="#8F9294" width="2.734" height="2.735"/>
					
						<rect x="115.537" y="-68.251" transform="matrix(0.7068 0.7074 -0.7074 0.7068 -13.1481 -102.2621)" fill="#8F9294" width="2.517" height="2.517"/>
					
						<rect x="127.565" y="-56.224" transform="matrix(0.707 0.7072 -0.7072 0.707 -1.235 -107.1656)" fill="#8F9294" width="2.301" height="2.301"/>
					
						<rect x="139.593" y="-44.196" transform="matrix(0.7072 0.707 -0.707 0.7072 10.6655 -112.062)" fill="#8F9294" width="2.085" height="2.085"/>
					
						<rect x="151.62" y="-32.168" transform="matrix(0.7074 0.7068 -0.7068 0.7074 22.565 -116.9726)" fill="#8F9294" width="1.869" height="1.87"/>
				</g>
			</g>
		</g>
		<g clip-path="url(#SVGID_2_)">
			<g>
				<g>
					
						<rect x="641.907" y="507.257" transform="matrix(-0.7071 -0.7071 0.7071 -0.7071 739.2435 1324.9663)" fill="#8F9294" width="4.248" height="4.248"/>
					
						<rect x="630.096" y="495.446" transform="matrix(-0.707 -0.7072 0.7072 -0.707 727.1862 1296.2063)" fill="#8F9294" width="4.031" height="4.031"/>
					
						<rect x="618.284" y="483.634" transform="matrix(-0.7071 -0.7071 0.7071 -0.7071 715.4033 1267.4127)" fill="#8F9294" width="3.815" height="3.815"/>
					
						<rect x="606.472" y="471.822" transform="matrix(-0.7071 -0.7071 0.7071 -0.7071 703.4833 1238.6355)" fill="#8F9294" width="3.599" height="3.6"/>
					
						<rect x="594.66" y="460.01" transform="matrix(-0.7071 -0.7071 0.7071 -0.7071 691.5634 1209.8583)" fill="#8F9294" width="3.384" height="3.383"/>
					
						<rect x="582.849" y="448.199" transform="matrix(-0.707 -0.7073 0.7073 -0.707 679.4836 1181.1027)" fill="#8F9294" width="3.166" height="3.166"/>
					
						<rect x="571.037" y="436.387" transform="matrix(-0.7071 -0.7071 0.7071 -0.7071 667.7233 1152.3046)" fill="#8F9294" width="2.95" height="2.95"/>
					
						<rect x="559.225" y="424.575" transform="matrix(-0.7071 -0.7071 0.7071 -0.7071 655.8033 1123.5273)" fill="#8F9294" width="2.735" height="2.735"/>
					
						<rect x="547.413" y="412.763" transform="matrix(-0.7073 -0.7069 0.7069 -0.7073 644.0701 1094.724)" fill="#8F9294" width="2.518" height="2.518"/>
					
						<rect x="535.602" y="400.952" transform="matrix(-0.7071 -0.7071 0.7071 -0.7071 631.9631 1065.9738)" fill="#8F9294" width="2.301" height="2.302"/>
					
						<rect x="523.79" y="389.14" transform="matrix(-0.7073 -0.7069 0.7069 -0.7073 620.2574 1037.1649)" fill="#8F9294" width="2.085" height="2.085"/>
					
						<rect x="511.977" y="377.329" transform="matrix(-0.7071 -0.7071 0.7071 -0.7071 608.1233 1008.4193)" fill="#8F9294" width="1.87" height="1.869"/>
				</g>
			</g>
			<g>
				<g>
					
						<rect x="632.249" y="516.915" transform="matrix(-0.7071 -0.7071 0.7071 -0.7071 715.9265 1334.6245)" fill="#8F9294" width="4.248" height="4.248"/>
					
						<rect x="620.437" y="505.103" transform="matrix(-0.7071 -0.7071 0.7071 -0.7071 704.0069 1305.8464)" fill="#8F9294" width="4.033" height="4.032"/>
					
						<rect x="608.625" y="493.291" transform="matrix(-0.7072 -0.707 0.707 -0.7072 692.2281 1277.0553)" fill="#8F9294" width="3.817" height="3.817"/>
					
						<rect x="596.814" y="481.48" transform="matrix(-0.7071 -0.7071 0.7071 -0.7071 680.1667 1248.2928)" fill="#8F9294" width="3.599" height="3.599"/>
					
						<rect x="585.002" y="469.668" transform="matrix(-0.7071 -0.7071 0.7071 -0.7071 668.2468 1219.5156)" fill="#8F9294" width="3.384" height="3.384"/>
					
						<rect x="573.19" y="457.856" transform="matrix(-0.7073 -0.707 0.707 -0.7073 656.4862 1190.7206)" fill="#8F9294" width="3.167" height="3.167"/>
					
						<rect x="561.378" y="446.044" transform="matrix(-0.7074 -0.7068 0.7068 -0.7074 644.741 1161.9238)" fill="#8F9294" width="2.951" height="2.952"/>
					
						<rect x="549.567" y="434.233" transform="matrix(-0.7073 -0.7069 0.7069 -0.7073 632.6628 1133.1641)" fill="#8F9294" width="2.734" height="2.735"/>
					
						<rect x="537.755" y="422.421" transform="matrix(-0.7075 -0.7067 0.7067 -0.7075 620.9399 1104.3635)" fill="#8F9294" width="2.518" height="2.519"/>
					
						<rect x="525.945" y="410.61" transform="matrix(-0.7069 -0.7073 0.7073 -0.7069 608.451 1075.6561)" fill="#8F9294" width="2.302" height="2.301"/>
					
						<rect x="514.133" y="398.798" transform="matrix(-0.7071 -0.7071 0.7071 -0.7071 596.7299 1046.8552)" fill="#8F9294" width="2.085" height="2.085"/>
					
						<rect x="502.322" y="386.987" transform="matrix(-0.7068 -0.7074 0.7074 -0.7068 584.577 1018.1082)" fill="#8F9294" width="1.868" height="1.868"/>
				</g>
			</g>
			<g>
				<g>
					
						<rect x="622.591" y="526.572" transform="matrix(-0.7071 -0.7071 0.7071 -0.7071 692.6102 1344.2811)" fill="#8F9294" width="4.248" height="4.248"/>
					
						<rect x="610.779" y="514.76" transform="matrix(-0.7072 -0.707 0.707 -0.7072 680.827 1315.4922)" fill="#8F9294" width="4.032" height="4.032"/>
					
						<rect x="598.967" y="502.948" transform="matrix(-0.7072 -0.707 0.707 -0.7072 668.9119 1286.7144)" fill="#8F9294" width="3.817" height="3.817"/>
					
						<rect x="587.157" y="491.137" transform="matrix(-0.7071 -0.7071 0.7071 -0.7071 656.8538 1257.9508)" fill="#8F9294" width="3.599" height="3.599"/>
					
						<rect x="575.346" y="479.326" transform="matrix(-0.707 -0.7073 0.7073 -0.707 644.7806 1229.1882)" fill="#8F9294" width="3.382" height="3.382"/>
					
						<rect x="563.534" y="467.514" transform="matrix(-0.707 -0.7073 0.7073 -0.707 632.8541 1200.412)" fill="#8F9294" width="3.166" height="3.165"/>
					
						<rect x="551.722" y="455.702" transform="matrix(-0.7069 -0.7073 0.7073 -0.7069 620.9264 1171.6357)" fill="#8F9294" width="2.951" height="2.95"/>
					
						<rect x="539.91" y="443.89" transform="matrix(-0.7071 -0.7071 0.7071 -0.7071 609.1737 1142.8427)" fill="#8F9294" width="2.735" height="2.734"/>
					
						<rect x="528.099" y="432.079" transform="matrix(-0.7069 -0.7073 0.7073 -0.7069 597.0667 1114.0848)" fill="#8F9294" width="2.517" height="2.517"/>
					
						<rect x="516.287" y="420.268" transform="matrix(-0.7071 -0.7071 0.7071 -0.7071 585.3336 1085.2891)" fill="#8F9294" width="2.301" height="2.301"/>
					
						<rect x="504.475" y="408.455" transform="matrix(-0.7071 -0.7071 0.7071 -0.7071 573.4136 1056.5117)" fill="#8F9294" width="2.085" height="2.085"/>
					
						<rect x="492.663" y="396.644" transform="matrix(-0.7074 -0.7068 0.7068 -0.7074 561.7261 1027.7102)" fill="#8F9294" width="1.869" height="1.87"/>
				</g>
			</g>
			<g>
				<g>
					
						<rect x="612.935" y="536.229" transform="matrix(-0.7071 -0.7071 0.7071 -0.7071 669.2973 1353.939)" fill="#8F9294" width="4.248" height="4.248"/>
					
						<rect x="601.123" y="524.418" transform="matrix(-0.707 -0.7072 0.7072 -0.707 657.2401 1325.1719)" fill="#8F9294" width="4.031" height="4.031"/>
					
						<rect x="589.312" y="512.607" transform="matrix(-0.7071 -0.7071 0.7071 -0.7071 645.4571 1296.3854)" fill="#8F9294" width="3.815" height="3.815"/>
					
						<rect x="577.499" y="500.795" transform="matrix(-0.7071 -0.7071 0.7071 -0.7071 633.5369 1267.609)" fill="#8F9294" width="3.599" height="3.599"/>
					
						<rect x="565.687" y="488.983" transform="matrix(-0.7071 -0.7071 0.7071 -0.7071 621.6172 1238.8309)" fill="#8F9294" width="3.384" height="3.383"/>
					
						<rect x="553.876" y="477.172" transform="matrix(-0.707 -0.7073 0.7073 -0.707 609.5375 1210.0664)" fill="#8F9294" width="3.166" height="3.166"/>
					
						<rect x="542.064" y="465.36" transform="matrix(-0.7071 -0.7071 0.7071 -0.7071 597.777 1181.2773)" fill="#8F9294" width="2.95" height="2.95"/>
					
						<rect x="530.252" y="453.548" transform="matrix(-0.7073 -0.7069 0.7069 -0.7073 586.033 1152.4872)" fill="#8F9294" width="2.734" height="2.735"/>
					
						<rect x="518.44" y="441.736" transform="matrix(-0.7073 -0.7069 0.7069 -0.7073 574.1238 1123.708)" fill="#8F9294" width="2.518" height="2.518"/>
					
						<rect x="506.629" y="429.925" transform="matrix(-0.7071 -0.7071 0.7071 -0.7071 562.017 1094.9464)" fill="#8F9294" width="2.301" height="2.302"/>
					
						<rect x="494.817" y="418.113" transform="matrix(-0.7071 -0.7071 0.7071 -0.7071 550.097 1066.1692)" fill="#8F9294" width="2.085" height="2.085"/>
					
						<rect x="483.004" y="406.301" transform="matrix(-0.7071 -0.7071 0.7071 -0.7071 538.1771 1037.392)" fill="#8F9294" width="1.87" height="1.869"/>
				</g>
			</g>
			<g>
				<g>
					
						<rect x="603.276" y="545.888" transform="matrix(-0.7071 -0.7071 0.7071 -0.7071 645.9803 1363.5972)" fill="#8F9294" width="4.248" height="4.248"/>
					
						<rect x="591.464" y="534.075" transform="matrix(-0.7071 -0.7071 0.7071 -0.7071 634.0607 1334.8191)" fill="#8F9294" width="4.033" height="4.032"/>
					
						<rect x="579.653" y="522.264" transform="matrix(-0.707 -0.7072 0.7072 -0.707 621.999 1306.05)" fill="#8F9294" width="3.815" height="3.815"/>
					
						<rect x="567.841" y="510.452" transform="matrix(-0.7071 -0.7071 0.7071 -0.7071 610.2206 1277.2655)" fill="#8F9294" width="3.599" height="3.599"/>
					
						<rect x="556.029" y="498.641" transform="matrix(-0.7073 -0.707 0.707 -0.7073 598.453 1248.4808)" fill="#8F9294" width="3.383" height="3.384"/>
					
						<rect x="544.217" y="486.828" transform="matrix(-0.7073 -0.707 0.707 -0.7073 586.54 1219.7021)" fill="#8F9294" width="3.167" height="3.167"/>
					
						<rect x="532.406" y="475.017" transform="matrix(-0.7071 -0.7071 0.7071 -0.7071 574.4604 1190.9346)" fill="#8F9294" width="2.95" height="2.951"/>
					
						<rect x="520.594" y="463.206" transform="matrix(-0.7071 -0.7071 0.7071 -0.7071 562.5405 1162.1575)" fill="#8F9294" width="2.735" height="2.734"/>
					
						<rect x="508.782" y="451.394" transform="matrix(-0.7073 -0.7069 0.7069 -0.7073 550.8069 1133.3699)" fill="#8F9294" width="2.518" height="2.518"/>
					
						<rect x="496.97" y="439.582" transform="matrix(-0.7073 -0.7069 0.7069 -0.7073 538.8998 1104.5907)" fill="#8F9294" width="2.303" height="2.302"/>
					
						<rect x="485.161" y="427.771" transform="matrix(-0.7066 -0.7076 0.7076 -0.7066 526.3549 1075.8547)" fill="#8F9294" width="2.084" height="2.084"/>
					
						<rect x="473.349" y="415.96" transform="matrix(-0.7068 -0.7074 0.7074 -0.7068 514.6308 1047.0657)" fill="#8F9294" width="1.868" height="1.868"/>
				</g>
			</g>
			<g>
				<g>
					
						<rect x="593.618" y="555.545" transform="matrix(-0.7071 -0.7071 0.7071 -0.7071 622.6641 1373.2538)" fill="#8F9294" width="4.248" height="4.248"/>
					
						<rect x="581.806" y="543.733" transform="matrix(-0.7072 -0.707 0.707 -0.7072 610.8809 1344.4719)" fill="#8F9294" width="4.032" height="4.032"/>
					
						<rect x="569.994" y="531.921" transform="matrix(-0.7074 -0.7069 0.7069 -0.7074 599.1068 1315.6903)" fill="#8F9294" width="3.816" height="3.817"/>
					
						<rect x="558.182" y="520.109" transform="matrix(-0.7074 -0.7068 0.7068 -0.7074 587.1974 1286.9125)" fill="#8F9294" width="3.6" height="3.601"/>
					
						<rect x="546.373" y="508.299" transform="matrix(-0.7068 -0.7074 0.7074 -0.7068 574.6818 1258.158)" fill="#8F9294" width="3.382" height="3.382"/>
					
						<rect x="534.561" y="496.487" transform="matrix(-0.707 -0.7073 0.7073 -0.707 562.9078 1229.3757)" fill="#8F9294" width="3.166" height="3.165"/>
					
						<rect x="522.75" y="484.675" transform="matrix(-0.7071 -0.7071 0.7071 -0.7071 551.1472 1200.5934)" fill="#8F9294" width="2.95" height="2.95"/>
					
						<rect x="510.937" y="472.863" transform="matrix(-0.7071 -0.7071 0.7071 -0.7071 539.2272 1171.8162)" fill="#8F9294" width="2.735" height="2.735"/>
					
						<rect x="499.126" y="461.052" transform="matrix(-0.7069 -0.7073 0.7073 -0.7069 527.1205 1143.0463)" fill="#8F9294" width="2.517" height="2.517"/>
					
						<rect x="487.314" y="449.24" transform="matrix(-0.7071 -0.7071 0.7071 -0.7071 515.387 1114.2625)" fill="#8F9294" width="2.301" height="2.302"/>
					
						<rect x="475.502" y="437.428" transform="matrix(-0.7071 -0.7071 0.7071 -0.7071 503.4675 1085.4844)" fill="#8F9294" width="2.085" height="2.085"/>
					
						<rect x="463.69" y="425.616" transform="matrix(-0.7074 -0.7068 0.7068 -0.7074 491.7799 1056.698)" fill="#8F9294" width="1.869" height="1.87"/>
				</g>
			</g>
			<g>
				<g>
					
						<rect x="583.962" y="565.202" transform="matrix(-0.7071 -0.7071 0.7071 -0.7071 599.3511 1382.9116)" fill="#8F9294" width="4.248" height="4.248"/>
					
						<rect x="572.15" y="553.391" transform="matrix(-0.7069 -0.7073 0.7073 -0.7069 587.1572 1354.1398)" fill="#8F9294" width="4.031" height="4.031"/>
					
						<rect x="560.339" y="541.58" transform="matrix(-0.707 -0.7072 0.7072 -0.707 575.3694 1325.3605)" fill="#8F9294" width="3.815" height="3.815"/>
					
						<rect x="548.527" y="529.768" transform="matrix(-0.7071 -0.7071 0.7071 -0.7071 563.5906 1296.5817)" fill="#8F9294" width="3.599" height="3.599"/>
					
						<rect x="536.714" y="517.956" transform="matrix(-0.7071 -0.7071 0.7071 -0.7071 551.671 1267.8036)" fill="#8F9294" width="3.384" height="3.383"/>
					
						<rect x="524.903" y="506.145" transform="matrix(-0.707 -0.7073 0.7073 -0.707 539.5913 1239.03)" fill="#8F9294" width="3.166" height="3.166"/>
					
						<rect x="513.091" y="494.333" transform="matrix(-0.7071 -0.7071 0.7071 -0.7071 527.8309 1210.25)" fill="#8F9294" width="2.95" height="2.95"/>
					
						<rect x="501.28" y="482.521" transform="matrix(-0.7073 -0.7069 0.7069 -0.7073 516.0868 1181.4701)" fill="#8F9294" width="2.734" height="2.735"/>
					
						<rect x="489.467" y="470.709" transform="matrix(-0.7073 -0.7069 0.7069 -0.7073 504.1777 1152.6919)" fill="#8F9294" width="2.518" height="2.518"/>
					
						<rect x="477.656" y="458.898" transform="matrix(-0.7069 -0.7073 0.7073 -0.7069 491.8717 1123.923)" fill="#8F9294" width="2.302" height="2.301"/>
					
						<rect x="465.844" y="447.086" transform="matrix(-0.7071 -0.7071 0.7071 -0.7071 480.1505 1095.1426)" fill="#8F9294" width="2.085" height="2.085"/>
					
						<rect x="454.032" y="435.274" transform="matrix(-0.7074 -0.7068 0.7068 -0.7074 468.4633 1066.3605)" fill="#8F9294" width="1.869" height="1.869"/>
				</g>
			</g>
			<g>
				<g>
					
						<rect x="574.304" y="574.86" transform="matrix(-0.7071 -0.7071 0.7071 -0.7071 576.0341 1392.5698)" fill="#8F9294" width="4.248" height="4.248"/>
					
						<rect x="562.492" y="563.048" transform="matrix(-0.7072 -0.707 0.707 -0.7072 564.251 1363.7927)" fill="#8F9294" width="4.032" height="4.032"/>
					
						<rect x="550.68" y="551.237" transform="matrix(-0.707 -0.7072 0.7072 -0.707 552.0527 1335.0154)" fill="#8F9294" width="3.815" height="3.815"/>
					
						<rect x="538.868" y="539.425" transform="matrix(-0.7071 -0.7071 0.7071 -0.7071 540.2744 1306.2382)" fill="#8F9294" width="3.599" height="3.599"/>
					
						<rect x="527.057" y="527.613" transform="matrix(-0.7073 -0.707 0.707 -0.7073 528.5068 1277.4619)" fill="#8F9294" width="3.383" height="3.384"/>
					
						<rect x="515.245" y="515.802" transform="matrix(-0.7074 -0.7068 0.7068 -0.7074 516.7531 1248.6846)" fill="#8F9294" width="3.167" height="3.167"/>
					
						<rect x="503.433" y="503.99" transform="matrix(-0.7069 -0.7073 0.7073 -0.7069 504.347 1219.9072)" fill="#8F9294" width="2.951" height="2.95"/>
					
						<rect x="491.621" y="492.178" transform="matrix(-0.7071 -0.7071 0.7071 -0.7071 492.5943 1191.13)" fill="#8F9294" width="2.735" height="2.734"/>
					
						<rect x="479.809" y="480.367" transform="matrix(-0.7073 -0.7069 0.7069 -0.7073 480.8607 1162.3538)" fill="#8F9294" width="2.518" height="2.518"/>
					
						<rect x="467.997" y="468.555" transform="matrix(-0.7075 -0.7067 0.7067 -0.7075 469.1524 1133.5765)" fill="#8F9294" width="2.302" height="2.302"/>
					
						<rect x="456.188" y="456.744" transform="matrix(-0.7066 -0.7076 0.7076 -0.7066 456.4087 1104.8002)" fill="#8F9294" width="2.084" height="2.084"/>
					
						<rect x="444.377" y="444.932" transform="matrix(-0.7068 -0.7074 0.7074 -0.7068 444.6846 1076.0232)" fill="#8F9294" width="1.868" height="1.868"/>
				</g>
			</g>
			<g>
				<g>
					
						<rect x="564.645" y="584.518" transform="matrix(-0.7071 -0.7071 0.7071 -0.7071 552.7179 1402.2264)" fill="#8F9294" width="4.248" height="4.248"/>
					
						<rect x="552.834" y="572.706" transform="matrix(-0.7072 -0.707 0.707 -0.7072 540.9343 1373.4524)" fill="#8F9294" width="4.032" height="4.033"/>
					
						<rect x="541.022" y="560.894" transform="matrix(-0.7074 -0.7069 0.7069 -0.7074 529.1606 1344.6779)" fill="#8F9294" width="3.816" height="3.817"/>
					
						<rect x="529.21" y="549.083" transform="matrix(-0.707 -0.7072 0.7072 -0.707 516.8109 1315.8928)" fill="#8F9294" width="3.6" height="3.599"/>
					
						<rect x="517.398" y="537.271" transform="matrix(-0.7071 -0.7071 0.7071 -0.7071 505.0378 1287.1183)" fill="#8F9294" width="3.384" height="3.383"/>
					
						<rect x="505.589" y="525.46" transform="matrix(-0.707 -0.7073 0.7073 -0.707 492.9613 1258.3402)" fill="#8F9294" width="3.166" height="3.166"/>
					
						<rect x="493.777" y="513.648" transform="matrix(-0.7071 -0.7071 0.7071 -0.7071 481.201 1229.566)" fill="#8F9294" width="2.95" height="2.95"/>
					
						<rect x="481.965" y="501.837" transform="matrix(-0.7067 -0.7075 0.7075 -0.7067 468.9286 1200.7816)" fill="#8F9294" width="2.733" height="2.733"/>
					
						<rect x="470.154" y="490.025" transform="matrix(-0.7069 -0.7073 0.7073 -0.7069 457.1743 1172.0077)" fill="#8F9294" width="2.517" height="2.517"/>
					
						<rect x="458.342" y="478.213" transform="matrix(-0.7071 -0.7071 0.7071 -0.7071 445.4409 1143.2351)" fill="#8F9294" width="2.301" height="2.302"/>
					
						<rect x="446.53" y="466.401" transform="matrix(-0.7073 -0.7069 0.7069 -0.7073 433.7352 1114.4625)" fill="#8F9294" width="2.085" height="2.085"/>
					
						<rect x="434.718" y="454.59" transform="matrix(-0.7066 -0.7076 0.7076 -0.7066 421.1353 1085.6702)" fill="#8F9294" width="1.869" height="1.868"/>
				</g>
			</g>
			<g>
				<g>
					
						<rect x="554.987" y="594.175" transform="matrix(-0.7073 -0.7069 0.7069 -0.7073 529.666 1411.8936)" fill="#8F9294" width="4.25" height="4.25"/>
					
						<rect x="543.178" y="582.364" transform="matrix(-0.7069 -0.7073 0.7073 -0.7069 517.211 1383.0984)" fill="#8F9294" width="4.031" height="4.031"/>
					
						<rect x="531.366" y="570.552" transform="matrix(-0.707 -0.7072 0.7072 -0.707 505.4229 1354.3265)" fill="#8F9294" width="3.815" height="3.815"/>
					
						<rect x="519.554" y="558.74" transform="matrix(-0.7071 -0.7071 0.7071 -0.7071 493.6444 1325.5543)" fill="#8F9294" width="3.599" height="3.599"/>
					
						<rect x="507.743" y="546.93" transform="matrix(-0.707 -0.7073 0.7073 -0.707 481.5713 1296.7722)" fill="#8F9294" width="3.382" height="3.382"/>
					
						<rect x="495.931" y="535.117" transform="matrix(-0.707 -0.7073 0.7073 -0.707 469.6451 1267.9938)" fill="#8F9294" width="3.166" height="3.166"/>
					
						<rect x="484.119" y="523.305" transform="matrix(-0.7071 -0.7071 0.7071 -0.7071 457.8844 1239.2234)" fill="#8F9294" width="2.95" height="2.951"/>
					
						<rect x="472.307" y="511.494" transform="matrix(-0.7073 -0.7069 0.7069 -0.7073 446.1406 1210.4531)" fill="#8F9294" width="2.734" height="2.735"/>
					
						<rect x="460.495" y="499.683" transform="matrix(-0.7069 -0.7073 0.7073 -0.7069 433.8574 1181.6621)" fill="#8F9294" width="2.517" height="2.517"/>
					
						<rect x="448.683" y="487.871" transform="matrix(-0.7069 -0.7073 0.7073 -0.7069 421.9255 1152.8834)" fill="#8F9294" width="2.302" height="2.301"/>
					
						<rect x="436.871" y="476.059" transform="matrix(-0.7071 -0.7071 0.7071 -0.7071 410.2043 1124.1154)" fill="#8F9294" width="2.085" height="2.085"/>
					
						<rect x="425.06" y="464.247" transform="matrix(-0.7074 -0.7068 0.7068 -0.7074 398.5171 1095.3483)" fill="#8F9294" width="1.869" height="1.869"/>
				</g>
			</g>
			<g>
				<g>
					
						<rect x="545.331" y="603.833" transform="matrix(-0.7071 -0.7071 0.7071 -0.7071 506.088 1421.5425)" fill="#8F9294" width="4.248" height="4.248"/>
					
						<rect x="533.519" y="592.021" transform="matrix(-0.7072 -0.707 0.707 -0.7072 494.3044 1392.7732)" fill="#8F9294" width="4.032" height="4.033"/>
					
						<rect x="521.708" y="580.21" transform="matrix(-0.707 -0.7072 0.7072 -0.707 482.1066 1363.9806)" fill="#8F9294" width="3.815" height="3.815"/>
					
						<rect x="509.896" y="568.398" transform="matrix(-0.7071 -0.7071 0.7071 -0.7071 470.3282 1335.2108)" fill="#8F9294" width="3.599" height="3.599"/>
					
						<rect x="498.084" y="556.586" transform="matrix(-0.7073 -0.707 0.707 -0.7073 458.5606 1306.4429)" fill="#8F9294" width="3.383" height="3.384"/>
					
						<rect x="486.272" y="544.775" transform="matrix(-0.7073 -0.707 0.707 -0.7073 446.647 1277.667)" fill="#8F9294" width="3.167" height="3.167"/>
					
						<rect x="474.46" y="532.963" transform="matrix(-0.7069 -0.7073 0.7073 -0.7069 434.4008 1248.8702)" fill="#8F9294" width="2.951" height="2.95"/>
					
						<rect x="462.648" y="521.151" transform="matrix(-0.7071 -0.7071 0.7071 -0.7071 422.6481 1220.1028)" fill="#8F9294" width="2.735" height="2.734"/>
					
						<rect x="450.837" y="509.339" transform="matrix(-0.7073 -0.7069 0.7069 -0.7073 410.9145 1191.3376)" fill="#8F9294" width="2.518" height="2.518"/>
					
						<rect x="439.025" y="497.528" transform="matrix(-0.7075 -0.7067 0.7067 -0.7075 399.2062 1162.5737)" fill="#8F9294" width="2.302" height="2.302"/>
					
						<rect x="427.213" y="485.716" transform="matrix(-0.7071 -0.7071 0.7071 -0.7071 386.8881 1133.7719)" fill="#8F9294" width="2.085" height="2.085"/>
					
						<rect x="415.401" y="473.904" transform="matrix(-0.7074 -0.7068 0.7068 -0.7074 375.2009 1105.0099)" fill="#8F9294" width="1.869" height="1.869"/>
				</g>
			</g>
			<g>
				<g>
					
						<rect x="535.673" y="613.49" transform="matrix(-0.7071 -0.7071 0.7071 -0.7071 482.7717 1431.1991)" fill="#8F9294" width="4.248" height="4.248"/>
					
						<rect x="523.861" y="601.678" transform="matrix(-0.7072 -0.707 0.707 -0.7072 470.9882 1402.4321)" fill="#8F9294" width="4.032" height="4.033"/>
					
						<rect x="512.049" y="589.867" transform="matrix(-0.7072 -0.707 0.707 -0.7072 459.073 1373.6554)" fill="#8F9294" width="3.817" height="3.816"/>
					
						<rect x="500.238" y="578.056" transform="matrix(-0.7071 -0.7071 0.7071 -0.7071 447.0112 1344.869)" fill="#8F9294" width="3.599" height="3.599"/>
					
						<rect x="488.425" y="566.244" transform="matrix(-0.7071 -0.7071 0.7071 -0.7071 435.0916 1316.0909)" fill="#8F9294" width="3.384" height="3.383"/>
					
						<rect x="476.614" y="554.432" transform="matrix(-0.7073 -0.707 0.707 -0.7073 423.3307 1287.3265)" fill="#8F9294" width="3.167" height="3.167"/>
					
						<rect x="464.802" y="542.62" transform="matrix(-0.7074 -0.7068 0.7068 -0.7074 411.5858 1258.563)" fill="#8F9294" width="2.951" height="2.951"/>
					
						<rect x="452.993" y="530.81" transform="matrix(-0.7069 -0.7073 0.7073 -0.7069 399.1582 1229.7484)" fill="#8F9294" width="2.732" height="2.733"/>
					
						<rect x="441.181" y="518.997" transform="matrix(-0.7069 -0.7073 0.7073 -0.7069 387.2281 1200.9691)" fill="#8F9294" width="2.517" height="2.517"/>
					
						<rect x="429.369" y="507.186" transform="matrix(-0.7071 -0.7071 0.7071 -0.7071 375.4947 1172.2078)" fill="#8F9294" width="2.301" height="2.302"/>
					
						<rect x="417.557" y="495.374" transform="matrix(-0.7071 -0.7071 0.7071 -0.7071 363.5748 1143.4307)" fill="#8F9294" width="2.085" height="2.085"/>
					
						<rect x="405.746" y="483.563" transform="matrix(-0.7068 -0.7074 0.7074 -0.7068 351.4215 1114.6338)" fill="#8F9294" width="1.868" height="1.868"/>
				</g>
			</g>
		</g>
		<path clip-path="url(#SVGID_2_)" fill="#FDFDFD" d="M750.498,275.471c-14.279,0-25.854,11.575-25.854,25.854
			s11.574,25.854,25.854,25.854s25.855-11.575,25.855-25.854S764.777,275.471,750.498,275.471z M750.498,313.415
			c-6.676,0-12.09-5.413-12.09-12.09s5.414-12.09,12.09-12.09c6.678,0,12.09,5.413,12.09,12.09S757.176,313.415,750.498,313.415z"/>
		<circle clip-path="url(#SVGID_2_)" fill="none" stroke="#8F9294" stroke-miterlimit="10" cx="129.615" cy="385.883" r="5.363"/>
		<g clip-path="url(#SVGID_2_)">
			<g>
				
					<rect x="355.823" y="55.333" fill="none" stroke="#8F9294" stroke-width="1.0782" stroke-miterlimit="10" width="3.236" height="3.212"/>
				
					<rect x="380.558" y="55.333" fill="none" stroke="#8F9294" stroke-width="1.0782" stroke-miterlimit="10" width="3.236" height="3.212"/>
				
					<rect x="405.292" y="55.333" fill="none" stroke="#8F9294" stroke-width="1.0782" stroke-miterlimit="10" width="3.236" height="3.212"/>
				
					<rect x="430.025" y="55.333" fill="none" stroke="#8F9294" stroke-width="1.0782" stroke-miterlimit="10" width="3.237" height="3.212"/>
				
					<rect x="454.761" y="55.333" fill="none" stroke="#8F9294" stroke-width="1.0782" stroke-miterlimit="10" width="3.236" height="3.212"/>
				
					<rect x="479.495" y="55.333" fill="none" stroke="#8F9294" stroke-width="1.0782" stroke-miterlimit="10" width="3.236" height="3.212"/>
			</g>
			<g>
				
					<rect x="355.823" y="73.226" fill="none" stroke="#8F9294" stroke-width="1.0782" stroke-miterlimit="10" width="3.236" height="3.211"/>
				
					<rect x="380.558" y="73.226" fill="none" stroke="#FF2C2C" stroke-width="1.0782" stroke-miterlimit="10" width="3.236" height="3.211"/>
				
					<rect x="405.292" y="73.226" fill="none" stroke="#8F9294" stroke-width="1.0782" stroke-miterlimit="10" width="3.236" height="3.211"/>
				
					<rect x="430.025" y="73.226" fill="none" stroke="#8F9294" stroke-width="1.0782" stroke-miterlimit="10" width="3.237" height="3.211"/>
				
					<rect x="454.761" y="73.226" fill="none" stroke="#8F9294" stroke-width="1.0782" stroke-miterlimit="10" width="3.236" height="3.211"/>
				
					<rect x="479.495" y="73.226" fill="none" stroke="#8F9294" stroke-width="1.0782" stroke-miterlimit="10" width="3.236" height="3.211"/>
			</g>
			<g>
				
					<rect x="355.823" y="91.118" fill="none" stroke="#8F9294" stroke-width="1.0782" stroke-miterlimit="10" width="3.236" height="3.212"/>
				
					<rect x="380.558" y="91.118" fill="none" stroke="#8F9294" stroke-width="1.0782" stroke-miterlimit="10" width="3.236" height="3.212"/>
				
					<rect x="405.292" y="91.118" fill="none" stroke="#8F9294" stroke-width="1.0782" stroke-miterlimit="10" width="3.236" height="3.212"/>
				
					<rect x="430.025" y="91.118" fill="none" stroke="#FF2C2C" stroke-width="1.0782" stroke-miterlimit="10" width="3.237" height="3.212"/>
				
					<rect x="454.761" y="91.118" fill="none" stroke="#8F9294" stroke-width="1.0782" stroke-miterlimit="10" width="3.236" height="3.212"/>
				
					<rect x="479.495" y="91.118" fill="none" stroke="#8F9294" stroke-width="1.0782" stroke-miterlimit="10" width="3.236" height="3.212"/>
			</g>
			<g>
				
					<rect x="355.823" y="109.012" fill="none" stroke="#8F9294" stroke-width="1.0782" stroke-miterlimit="10" width="3.236" height="3.211"/>
				
					<rect x="380.558" y="109.012" fill="none" stroke="#8F9294" stroke-width="1.0782" stroke-miterlimit="10" width="3.236" height="3.211"/>
				
					<rect x="405.292" y="109.012" fill="none" stroke="#8F9294" stroke-width="1.0782" stroke-miterlimit="10" width="3.236" height="3.211"/>
				
					<rect x="430.025" y="109.012" fill="none" stroke="#8F9294" stroke-width="1.0782" stroke-miterlimit="10" width="3.237" height="3.211"/>
				
					<rect x="454.761" y="109.012" fill="none" stroke="#8F9294" stroke-width="1.0782" stroke-miterlimit="10" width="3.236" height="3.211"/>
				
					<rect x="479.495" y="109.012" fill="none" stroke="#8F9294" stroke-width="1.0782" stroke-miterlimit="10" width="3.236" height="3.211"/>
			</g>
			<g>
				
					<rect x="355.823" y="126.904" fill="none" stroke="#8F9294" stroke-width="1.0782" stroke-miterlimit="10" width="3.236" height="3.212"/>
				<rect x="380.558" y="126.904" fill="#0F1027" width="3.236" height="3.212"/>
				<rect x="405.292" y="126.904" fill="#0F1027" width="3.236" height="3.212"/>
				
					<rect x="430.025" y="126.904" fill="none" stroke="#8F9294" stroke-width="1.0782" stroke-miterlimit="10" width="3.237" height="3.212"/>
				
					<rect x="454.761" y="126.904" fill="none" stroke="#FF2C2C" stroke-width="1.0782" stroke-miterlimit="10" width="3.236" height="3.212"/>
				
					<rect x="479.495" y="126.904" fill="none" stroke="#8F9294" stroke-width="1.0782" stroke-miterlimit="10" width="3.236" height="3.212"/>
			</g>
			<g>
				
					<rect x="355.823" y="144.797" fill="none" stroke="#8F9294" stroke-width="1.0782" stroke-miterlimit="10" width="3.236" height="3.211"/>
				
					<rect x="380.558" y="144.797" fill="none" stroke="#8F9294" stroke-width="1.0782" stroke-miterlimit="10" width="3.236" height="3.211"/>
				
					<rect x="405.292" y="144.797" fill="none" stroke="#8F9294" stroke-width="1.0782" stroke-miterlimit="10" width="3.236" height="3.211"/>
				<rect x="430.025" y="144.797" fill="#0F1027" width="3.237" height="3.211"/>
				
					<rect x="454.761" y="144.797" fill="none" stroke="#8F9294" stroke-width="1.0782" stroke-miterlimit="10" width="3.236" height="3.211"/>
				
					<rect x="479.495" y="144.797" fill="none" stroke="#8F9294" stroke-width="1.0782" stroke-miterlimit="10" width="3.236" height="3.211"/>
			</g>
			<g>
				
					<rect x="355.823" y="162.69" fill="none" stroke="#8F9294" stroke-width="1.0782" stroke-miterlimit="10" width="3.236" height="3.212"/>
				
					<rect x="380.558" y="162.69" fill="none" stroke="#8F9294" stroke-width="1.0782" stroke-miterlimit="10" width="3.236" height="3.212"/>
				
					<rect x="405.292" y="162.69" fill="none" stroke="#8F9294" stroke-width="1.0782" stroke-miterlimit="10" width="3.236" height="3.212"/>
				
					<rect x="430.025" y="162.69" fill="none" stroke="#8F9294" stroke-width="1.0782" stroke-miterlimit="10" width="3.237" height="3.212"/>
				<rect x="454.761" y="162.69" fill="#0F1027" width="3.236" height="3.212"/>
				
					<rect x="479.495" y="162.69" fill="none" stroke="#8F9294" stroke-width="1.0782" stroke-miterlimit="10" width="3.236" height="3.212"/>
			</g>
		</g>
	</g>
	<g>
		<g>
			<g>
				
					<line fill="none" stroke="#8F9294" stroke-width="0.3881" stroke-miterlimit="10" x1="100.443" y1="73.489" x2="100.443" y2="88.044"/>
				
					<line fill="none" stroke="#8F9294" stroke-width="0.3881" stroke-miterlimit="10" x1="92.885" y1="80.767" x2="108" y2="80.767"/>
			</g>
			<g>
				
					<line fill="none" stroke="#8F9294" stroke-width="0.3881" stroke-miterlimit="10" x1="141.628" y1="73.489" x2="141.628" y2="88.044"/>
				
					<line fill="none" stroke="#8F9294" stroke-width="0.3881" stroke-miterlimit="10" x1="134.071" y1="80.767" x2="149.185" y2="80.767"/>
			</g>
			<g>
				
					<line fill="none" stroke="#8F9294" stroke-width="0.3881" stroke-miterlimit="10" x1="182.814" y1="73.489" x2="182.814" y2="88.044"/>
				
					<line fill="none" stroke="#8F9294" stroke-width="0.3881" stroke-miterlimit="10" x1="175.257" y1="80.767" x2="190.372" y2="80.767"/>
			</g>
			<g>
				<line fill="none" stroke="#8F9294" stroke-width="0.3881" stroke-miterlimit="10" x1="224" y1="73.489" x2="224" y2="88.044"/>
				
					<line fill="none" stroke="#8F9294" stroke-width="0.3881" stroke-miterlimit="10" x1="216.443" y1="80.767" x2="231.557" y2="80.767"/>
			</g>
		</g>
		<g>
			<g>
				
					<line fill="none" stroke="#8F9294" stroke-width="0.3881" stroke-miterlimit="10" x1="100.443" y1="103.691" x2="100.443" y2="118.248"/>
				
					<line fill="none" stroke="#8F9294" stroke-width="0.3881" stroke-miterlimit="10" x1="92.885" y1="110.969" x2="108" y2="110.969"/>
			</g>
			<g>
				
					<line fill="none" stroke="#8F9294" stroke-width="0.3881" stroke-miterlimit="10" x1="141.628" y1="103.691" x2="141.628" y2="118.248"/>
				
					<line fill="none" stroke="#8F9294" stroke-width="0.3881" stroke-miterlimit="10" x1="134.071" y1="110.969" x2="149.185" y2="110.969"/>
			</g>
			<g>
				
					<line fill="none" stroke="#8F9294" stroke-width="0.3881" stroke-miterlimit="10" x1="182.814" y1="103.691" x2="182.814" y2="118.248"/>
				
					<line fill="none" stroke="#8F9294" stroke-width="0.3881" stroke-miterlimit="10" x1="175.257" y1="110.969" x2="190.372" y2="110.969"/>
			</g>
			<g>
				
					<line fill="none" stroke="#8F9294" stroke-width="0.3881" stroke-miterlimit="10" x1="224" y1="103.691" x2="224" y2="118.248"/>
				
					<line fill="none" stroke="#8F9294" stroke-width="0.3881" stroke-miterlimit="10" x1="216.443" y1="110.969" x2="231.557" y2="110.969"/>
			</g>
		</g>
		<g>
			<g>
				
					<line fill="none" stroke="#8F9294" stroke-width="0.3881" stroke-miterlimit="10" x1="100.443" y1="133.893" x2="100.443" y2="148.45"/>
				
					<line fill="none" stroke="#8F9294" stroke-width="0.3881" stroke-miterlimit="10" x1="92.885" y1="141.171" x2="108" y2="141.171"/>
			</g>
			<g>
				
					<line fill="none" stroke="#8F9294" stroke-width="0.3881" stroke-miterlimit="10" x1="141.628" y1="133.893" x2="141.628" y2="148.45"/>
				
					<line fill="none" stroke="#8F9294" stroke-width="0.3881" stroke-miterlimit="10" x1="134.071" y1="141.171" x2="149.185" y2="141.171"/>
			</g>
			<g>
				
					<line fill="none" stroke="#8F9294" stroke-width="0.3881" stroke-miterlimit="10" x1="182.814" y1="133.893" x2="182.814" y2="148.45"/>
				
					<line fill="none" stroke="#8F9294" stroke-width="0.3881" stroke-miterlimit="10" x1="175.257" y1="141.171" x2="190.372" y2="141.171"/>
			</g>
			<g>
				<line fill="none" stroke="#8F9294" stroke-width="0.3881" stroke-miterlimit="10" x1="224" y1="133.893" x2="224" y2="148.45"/>
				
					<line fill="none" stroke="#8F9294" stroke-width="0.3881" stroke-miterlimit="10" x1="216.443" y1="141.171" x2="231.557" y2="141.171"/>
			</g>
		</g>
		<g>
			<g>
				
					<line fill="none" stroke="#8F9294" stroke-width="0.3881" stroke-miterlimit="10" x1="100.443" y1="164.098" x2="100.443" y2="178.653"/>
				
					<line fill="none" stroke="#8F9294" stroke-width="0.3881" stroke-miterlimit="10" x1="92.885" y1="171.375" x2="108" y2="171.375"/>
			</g>
			<g>
				
					<line fill="none" stroke="#8F9294" stroke-width="0.3881" stroke-miterlimit="10" x1="141.628" y1="164.098" x2="141.628" y2="178.653"/>
				
					<line fill="none" stroke="#8F9294" stroke-width="0.3881" stroke-miterlimit="10" x1="134.071" y1="171.375" x2="149.185" y2="171.375"/>
			</g>
			<g>
				
					<line fill="none" stroke="#8F9294" stroke-width="0.3881" stroke-miterlimit="10" x1="182.814" y1="164.098" x2="182.814" y2="178.653"/>
				
					<line fill="none" stroke="#8F9294" stroke-width="0.3881" stroke-miterlimit="10" x1="175.257" y1="171.375" x2="190.372" y2="171.375"/>
			</g>
			<g>
				
					<line fill="none" stroke="#8F9294" stroke-width="0.3881" stroke-miterlimit="10" x1="224" y1="164.098" x2="224" y2="178.653"/>
				
					<line fill="none" stroke="#8F9294" stroke-width="0.3881" stroke-miterlimit="10" x1="216.443" y1="171.375" x2="231.557" y2="171.375"/>
			</g>
		</g>
	</g>
</g>
</svg>
