<?xml version="1.0" encoding="utf-8"?>
<!-- Generator: Adobe Illustrator 16.0.0, SVG Export Plug-In . SVG Version: 6.00 Build 0)  -->
<!DOCTYPE svg PUBLIC "-//W3C//DTD SVG 1.1//EN" "http://www.w3.org/Graphics/SVG/1.1/DTD/svg11.dtd">
<svg version="1.1" xmlns="http://www.w3.org/2000/svg" xmlns:xlink="http://www.w3.org/1999/xlink" x="0px" y="0px" width="750px"
	 height="500px" viewBox="0 0 750 500" enable-background="new 0 0 750 500" xml:space="preserve">
<g id="BACKGROUND">
</g>
<g id="OBJECTS">
	<g>
		<defs>
			<rect id="SVGID_1_" width="750" height="500"/>
		</defs>
		<clipPath id="SVGID_2_">
			<use xlink:href="#SVGID_1_"  overflow="visible"/>
		</clipPath>
		<g clip-path="url(#SVGID_2_)">
			<g>
				<g>
					
						<rect x="171.865" y="325.18" fill="none" stroke="#8F9294" stroke-width="1.0782" stroke-miterlimit="10" width="3.969" height="3.97"/>
					
						<rect x="202.2" y="325.18" fill="none" stroke="#8F9294" stroke-width="1.0782" stroke-miterlimit="10" width="3.969" height="3.97"/>
					
						<rect x="232.536" y="325.18" fill="none" stroke="#8F9294" stroke-width="1.0782" stroke-miterlimit="10" width="3.969" height="3.97"/>
					
						<rect x="262.872" y="325.18" fill="none" stroke="#8F9294" stroke-width="1.0782" stroke-miterlimit="10" width="3.969" height="3.97"/>
					
						<rect x="293.207" y="325.18" fill="none" stroke="#8F9294" stroke-width="1.0782" stroke-miterlimit="10" width="3.969" height="3.97"/>
					
						<rect x="323.542" y="325.18" fill="none" stroke="#8F9294" stroke-width="1.0782" stroke-miterlimit="10" width="3.969" height="3.97"/>
				</g>
				<g>
					
						<rect x="171.865" y="347.294" fill="none" stroke="#8F9294" stroke-width="1.0782" stroke-miterlimit="10" width="3.969" height="3.969"/>
					
						<rect x="202.2" y="347.294" fill="none" stroke="#FF2C2C" stroke-width="1.0782" stroke-miterlimit="10" width="3.969" height="3.969"/>
					
						<rect x="232.536" y="347.294" fill="none" stroke="#8F9294" stroke-width="1.0782" stroke-miterlimit="10" width="3.969" height="3.969"/>
					
						<rect x="262.872" y="347.294" fill="none" stroke="#8F9294" stroke-width="1.0782" stroke-miterlimit="10" width="3.969" height="3.969"/>
					
						<rect x="293.207" y="347.294" fill="none" stroke="#8F9294" stroke-width="1.0782" stroke-miterlimit="10" width="3.969" height="3.969"/>
					
						<rect x="323.542" y="347.294" fill="none" stroke="#8F9294" stroke-width="1.0782" stroke-miterlimit="10" width="3.969" height="3.969"/>
				</g>
				<g>
					
						<rect x="171.865" y="369.407" fill="none" stroke="#8F9294" stroke-width="1.0782" stroke-miterlimit="10" width="3.969" height="3.97"/>
					
						<rect x="202.2" y="369.407" fill="none" stroke="#8F9294" stroke-width="1.0782" stroke-miterlimit="10" width="3.969" height="3.97"/>
					
						<rect x="232.536" y="369.407" fill="none" stroke="#8F9294" stroke-width="1.0782" stroke-miterlimit="10" width="3.969" height="3.97"/>
					
						<rect x="262.872" y="369.407" fill="none" stroke="#FF2C2C" stroke-width="1.0782" stroke-miterlimit="10" width="3.969" height="3.97"/>
					
						<rect x="293.207" y="369.407" fill="none" stroke="#8F9294" stroke-width="1.0782" stroke-miterlimit="10" width="3.969" height="3.97"/>
					
						<rect x="323.542" y="369.407" fill="none" stroke="#8F9294" stroke-width="1.0782" stroke-miterlimit="10" width="3.969" height="3.97"/>
				</g>
				<g>
					
						<rect x="171.865" y="391.521" fill="none" stroke="#8F9294" stroke-width="1.0782" stroke-miterlimit="10" width="3.969" height="3.969"/>
					
						<rect x="202.2" y="391.521" fill="none" stroke="#8F9294" stroke-width="1.0782" stroke-miterlimit="10" width="3.969" height="3.969"/>
					
						<rect x="232.536" y="391.521" fill="none" stroke="#8F9294" stroke-width="1.0782" stroke-miterlimit="10" width="3.969" height="3.969"/>
					
						<rect x="262.872" y="391.521" fill="none" stroke="#8F9294" stroke-width="1.0782" stroke-miterlimit="10" width="3.969" height="3.969"/>
					
						<rect x="293.207" y="391.521" fill="none" stroke="#8F9294" stroke-width="1.0782" stroke-miterlimit="10" width="3.969" height="3.969"/>
					
						<rect x="323.542" y="391.521" fill="none" stroke="#8F9294" stroke-width="1.0782" stroke-miterlimit="10" width="3.969" height="3.969"/>
				</g>
				<g>
					
						<rect x="171.865" y="413.635" fill="none" stroke="#8F9294" stroke-width="1.0782" stroke-miterlimit="10" width="3.969" height="3.97"/>
					<rect x="202.2" y="413.635" fill="#0F1027" width="3.969" height="3.97"/>
					<rect x="232.536" y="413.635" fill="#0F1027" width="3.969" height="3.97"/>
					
						<rect x="262.872" y="413.635" fill="none" stroke="#8F9294" stroke-width="1.0782" stroke-miterlimit="10" width="3.969" height="3.97"/>
					
						<rect x="293.207" y="413.635" fill="none" stroke="#FF2C2C" stroke-width="1.0782" stroke-miterlimit="10" width="3.969" height="3.97"/>
					
						<rect x="323.542" y="413.635" fill="none" stroke="#8F9294" stroke-width="1.0782" stroke-miterlimit="10" width="3.969" height="3.97"/>
				</g>
				<g>
					
						<rect x="171.865" y="435.749" fill="none" stroke="#8F9294" stroke-width="1.0782" stroke-miterlimit="10" width="3.969" height="3.969"/>
					
						<rect x="202.2" y="435.749" fill="none" stroke="#8F9294" stroke-width="1.0782" stroke-miterlimit="10" width="3.969" height="3.969"/>
					
						<rect x="232.536" y="435.749" fill="none" stroke="#8F9294" stroke-width="1.0782" stroke-miterlimit="10" width="3.969" height="3.969"/>
					<rect x="262.872" y="435.749" fill="#0F1027" width="3.969" height="3.969"/>
					
						<rect x="293.207" y="435.749" fill="none" stroke="#8F9294" stroke-width="1.0782" stroke-miterlimit="10" width="3.969" height="3.969"/>
					
						<rect x="323.542" y="435.749" fill="none" stroke="#8F9294" stroke-width="1.0782" stroke-miterlimit="10" width="3.969" height="3.969"/>
				</g>
				<g>
					
						<rect x="171.865" y="457.862" fill="none" stroke="#8F9294" stroke-width="1.0782" stroke-miterlimit="10" width="3.969" height="3.97"/>
					
						<rect x="202.2" y="457.862" fill="none" stroke="#8F9294" stroke-width="1.0782" stroke-miterlimit="10" width="3.969" height="3.97"/>
					
						<rect x="232.536" y="457.862" fill="none" stroke="#8F9294" stroke-width="1.0782" stroke-miterlimit="10" width="3.969" height="3.97"/>
					
						<rect x="262.872" y="457.862" fill="none" stroke="#8F9294" stroke-width="1.0782" stroke-miterlimit="10" width="3.969" height="3.97"/>
					<rect x="293.207" y="457.862" fill="#0F1027" width="3.969" height="3.97"/>
					
						<rect x="323.542" y="457.862" fill="none" stroke="#8F9294" stroke-width="1.0782" stroke-miterlimit="10" width="3.969" height="3.97"/>
				</g>
			</g>
			<g>
				<g>
					<g>
						
							<line fill="none" stroke="#8F9294" stroke-width="0.3881" stroke-miterlimit="10" x1="595.157" y1="87.622" x2="595.157" y2="98.579"/>
						
							<line fill="none" stroke="#8F9294" stroke-width="0.3881" stroke-miterlimit="10" x1="589.679" y1="93.101" x2="600.636" y2="93.101"/>
					</g>
					<g>
						
							<line fill="none" stroke="#8F9294" stroke-width="0.3881" stroke-miterlimit="10" x1="625.015" y1="87.622" x2="625.015" y2="98.579"/>
						
							<line fill="none" stroke="#8F9294" stroke-width="0.3881" stroke-miterlimit="10" x1="619.536" y1="93.101" x2="630.493" y2="93.101"/>
					</g>
					<g>
						
							<line fill="none" stroke="#8F9294" stroke-width="0.3881" stroke-miterlimit="10" x1="654.872" y1="87.622" x2="654.872" y2="98.579"/>
						
							<line fill="none" stroke="#8F9294" stroke-width="0.3881" stroke-miterlimit="10" x1="649.394" y1="93.101" x2="660.351" y2="93.101"/>
					</g>
					<g>
						
							<line fill="none" stroke="#8F9294" stroke-width="0.3881" stroke-miterlimit="10" x1="684.729" y1="87.622" x2="684.729" y2="98.579"/>
						
							<line fill="none" stroke="#8F9294" stroke-width="0.3881" stroke-miterlimit="10" x1="679.251" y1="93.101" x2="690.208" y2="93.101"/>
					</g>
				</g>
				<g>
					<g>
						
							<line fill="none" stroke="#8F9294" stroke-width="0.3881" stroke-miterlimit="10" x1="595.157" y1="110.357" x2="595.157" y2="121.314"/>
						
							<line fill="none" stroke="#8F9294" stroke-width="0.3881" stroke-miterlimit="10" x1="589.679" y1="115.836" x2="600.636" y2="115.836"/>
					</g>
					<g>
						
							<line fill="none" stroke="#8F9294" stroke-width="0.3881" stroke-miterlimit="10" x1="625.015" y1="110.357" x2="625.015" y2="121.314"/>
						
							<line fill="none" stroke="#8F9294" stroke-width="0.3881" stroke-miterlimit="10" x1="619.536" y1="115.836" x2="630.493" y2="115.836"/>
					</g>
					<g>
						
							<line fill="none" stroke="#8F9294" stroke-width="0.3881" stroke-miterlimit="10" x1="654.872" y1="110.357" x2="654.872" y2="121.314"/>
						
							<line fill="none" stroke="#8F9294" stroke-width="0.3881" stroke-miterlimit="10" x1="649.394" y1="115.836" x2="660.351" y2="115.836"/>
					</g>
					<g>
						
							<line fill="none" stroke="#8F9294" stroke-width="0.3881" stroke-miterlimit="10" x1="684.729" y1="110.357" x2="684.729" y2="121.314"/>
						
							<line fill="none" stroke="#8F9294" stroke-width="0.3881" stroke-miterlimit="10" x1="679.251" y1="115.836" x2="690.208" y2="115.836"/>
					</g>
				</g>
				<g>
					<g>
						
							<line fill="none" stroke="#8F9294" stroke-width="0.3881" stroke-miterlimit="10" x1="595.157" y1="133.093" x2="595.157" y2="144.05"/>
						
							<line fill="none" stroke="#8F9294" stroke-width="0.3881" stroke-miterlimit="10" x1="589.679" y1="138.572" x2="600.636" y2="138.572"/>
					</g>
					<g>
						
							<line fill="none" stroke="#8F9294" stroke-width="0.3881" stroke-miterlimit="10" x1="625.015" y1="133.093" x2="625.015" y2="144.05"/>
						
							<line fill="none" stroke="#8F9294" stroke-width="0.3881" stroke-miterlimit="10" x1="619.536" y1="138.572" x2="630.493" y2="138.572"/>
					</g>
					<g>
						
							<line fill="none" stroke="#8F9294" stroke-width="0.3881" stroke-miterlimit="10" x1="654.872" y1="133.093" x2="654.872" y2="144.05"/>
						
							<line fill="none" stroke="#8F9294" stroke-width="0.3881" stroke-miterlimit="10" x1="649.394" y1="138.572" x2="660.351" y2="138.572"/>
					</g>
					<g>
						
							<line fill="none" stroke="#8F9294" stroke-width="0.3881" stroke-miterlimit="10" x1="684.729" y1="133.093" x2="684.729" y2="144.05"/>
						
							<line fill="none" stroke="#8F9294" stroke-width="0.3881" stroke-miterlimit="10" x1="679.251" y1="138.572" x2="690.208" y2="138.572"/>
					</g>
				</g>
				<g>
					<g>
						
							<line fill="none" stroke="#8F9294" stroke-width="0.3881" stroke-miterlimit="10" x1="595.157" y1="155.829" x2="595.157" y2="166.786"/>
						
							<line fill="none" stroke="#8F9294" stroke-width="0.3881" stroke-miterlimit="10" x1="589.679" y1="161.307" x2="600.636" y2="161.307"/>
					</g>
					<g>
						
							<line fill="none" stroke="#8F9294" stroke-width="0.3881" stroke-miterlimit="10" x1="625.015" y1="155.829" x2="625.015" y2="166.786"/>
						
							<line fill="none" stroke="#8F9294" stroke-width="0.3881" stroke-miterlimit="10" x1="619.536" y1="161.307" x2="630.493" y2="161.307"/>
					</g>
					<g>
						
							<line fill="none" stroke="#8F9294" stroke-width="0.3881" stroke-miterlimit="10" x1="654.872" y1="155.829" x2="654.872" y2="166.786"/>
						
							<line fill="none" stroke="#8F9294" stroke-width="0.3881" stroke-miterlimit="10" x1="649.394" y1="161.307" x2="660.351" y2="161.307"/>
					</g>
					<g>
						
							<line fill="none" stroke="#8F9294" stroke-width="0.3881" stroke-miterlimit="10" x1="684.729" y1="155.829" x2="684.729" y2="166.786"/>
						
							<line fill="none" stroke="#8F9294" stroke-width="0.3881" stroke-miterlimit="10" x1="679.251" y1="161.307" x2="690.208" y2="161.307"/>
					</g>
				</g>
			</g>
			<g>
				<g>
					<g>
						
							<rect x="731.254" y="480.563" transform="matrix(-0.7071 -0.7071 0.7071 -0.7071 910.6428 1342.5756)" fill="#8F9294" width="4.248" height="4.248"/>
						
							<rect x="719.442" y="468.752" transform="matrix(-0.7071 -0.7071 0.7071 -0.7071 898.7225 1313.7992)" fill="#8F9294" width="4.031" height="4.032"/>
						
							<rect x="707.63" y="456.94" transform="matrix(-0.7072 -0.707 0.707 -0.7072 886.9521 1284.9899)" fill="#8F9294" width="3.815" height="3.816"/>
						
							<rect x="695.819" y="445.128" transform="matrix(-0.7071 -0.7071 0.7071 -0.7071 874.8827 1256.2448)" fill="#8F9294" width="3.599" height="3.6"/>
						
							<rect x="684.006" y="433.317" transform="matrix(-0.7071 -0.7071 0.7071 -0.7071 862.9628 1227.4675)" fill="#8F9294" width="3.384" height="3.383"/>
						
							<rect x="672.196" y="421.506" transform="matrix(-0.707 -0.7073 0.7073 -0.707 850.875 1198.7305)" fill="#8F9294" width="3.166" height="3.166"/>
						
							<rect x="660.384" y="409.694" transform="matrix(-0.7071 -0.7071 0.7071 -0.7071 839.1243 1169.9146)" fill="#8F9294" width="2.95" height="2.95"/>
						
							<rect x="648.572" y="397.882" transform="matrix(-0.7071 -0.7071 0.7071 -0.7071 827.2043 1141.1373)" fill="#8F9294" width="2.735" height="2.735"/>
						
							<rect x="636.761" y="386.07" transform="matrix(-0.7071 -0.7071 0.7071 -0.7071 815.2844 1112.3601)" fill="#8F9294" width="2.518" height="2.518"/>
						
							<rect x="624.949" y="374.259" transform="matrix(-0.7071 -0.7071 0.7071 -0.7071 803.3641 1083.5836)" fill="#8F9294" width="2.301" height="2.302"/>
						
							<rect x="613.137" y="362.447" transform="matrix(-0.7073 -0.7069 0.7069 -0.7073 791.6732 1054.7477)" fill="#8F9294" width="2.085" height="2.085"/>
						
							<rect x="601.325" y="350.635" transform="matrix(-0.7071 -0.7071 0.7071 -0.7071 779.5244 1026.0292)" fill="#8F9294" width="1.87" height="1.869"/>
					</g>
				</g>
				<g>
					<g>
						
							<rect x="721.597" y="490.222" transform="matrix(-0.7071 -0.7071 0.7071 -0.7071 887.3275 1352.2345)" fill="#8F9294" width="4.248" height="4.248"/>
						
							<rect x="709.785" y="478.41" transform="matrix(-0.707 -0.7072 0.7072 -0.707 875.2636 1323.4844)" fill="#8F9294" width="4.032" height="4.031"/>
						
							<rect x="697.973" y="466.598" transform="matrix(-0.7071 -0.7071 0.7071 -0.7071 863.4877 1294.6801)" fill="#8F9294" width="3.816" height="3.816"/>
						
							<rect x="686.161" y="454.786" transform="matrix(-0.7071 -0.7071 0.7071 -0.7071 851.5677 1265.9028)" fill="#8F9294" width="3.599" height="3.599"/>
						
							<rect x="674.349" y="442.974" transform="matrix(-0.7071 -0.7071 0.7071 -0.7071 839.6478 1237.1255)" fill="#8F9294" width="3.384" height="3.384"/>
						
							<rect x="662.538" y="431.163" transform="matrix(-0.7071 -0.7071 0.7071 -0.7071 827.7279 1208.3483)" fill="#8F9294" width="3.167" height="3.167"/>
						
							<rect x="650.726" y="419.351" transform="matrix(-0.7073 -0.7069 0.7069 -0.7073 815.9853 1179.5336)" fill="#8F9294" width="2.951" height="2.951"/>
						
							<rect x="638.914" y="407.539" transform="matrix(-0.7073 -0.7069 0.7069 -0.7073 804.0751 1150.7533)" fill="#8F9294" width="2.734" height="2.735"/>
						
							<rect x="627.102" y="395.728" transform="matrix(-0.7075 -0.7067 0.7067 -0.7075 792.3652 1121.9285)" fill="#8F9294" width="2.518" height="2.519"/>
						
							<rect x="615.292" y="383.916" transform="matrix(-0.7069 -0.7073 0.7073 -0.7069 779.8372 1093.2899)" fill="#8F9294" width="2.302" height="2.301"/>
						
							<rect x="603.48" y="372.105" transform="matrix(-0.7071 -0.7071 0.7071 -0.7071 768.1293 1064.4645)" fill="#8F9294" width="2.085" height="2.085"/>
						
							<rect x="591.668" y="360.293" transform="matrix(-0.7071 -0.7071 0.7071 -0.7071 756.2094 1035.6873)" fill="#8F9294" width="1.869" height="1.869"/>
					</g>
				</g>
				<g>
					<g>
						
							<rect x="711.938" y="499.879" transform="matrix(-0.7071 -0.7071 0.7071 -0.7071 864.0112 1361.891)" fill="#8F9294" width="4.248" height="4.248"/>
						
							<rect x="700.127" y="488.067" transform="matrix(-0.7072 -0.707 0.707 -0.7072 852.2357 1333.0881)" fill="#8F9294" width="4.032" height="4.032"/>
						
							<rect x="688.315" y="476.255" transform="matrix(-0.7071 -0.7071 0.7071 -0.7071 840.1714 1304.3365)" fill="#8F9294" width="3.816" height="3.816"/>
						
							<rect x="676.504" y="464.444" transform="matrix(-0.7071 -0.7071 0.7071 -0.7071 828.2532 1275.5601)" fill="#8F9294" width="3.599" height="3.599"/>
						
							<rect x="664.693" y="452.632" transform="matrix(-0.7071 -0.7071 0.7071 -0.7071 816.3329 1246.7836)" fill="#8F9294" width="3.382" height="3.383"/>
						
							<rect x="652.88" y="440.821" transform="matrix(-0.7071 -0.7071 0.7071 -0.7071 804.413 1218.0063)" fill="#8F9294" width="3.167" height="3.166"/>
						
							<rect x="641.069" y="429.009" transform="matrix(-0.7069 -0.7073 0.7073 -0.7069 792.3154 1189.2642)" fill="#8F9294" width="2.951" height="2.95"/>
						
							<rect x="629.257" y="417.197" transform="matrix(-0.7071 -0.7071 0.7071 -0.7071 780.5731 1160.4519)" fill="#8F9294" width="2.735" height="2.734"/>
						
							<rect x="617.445" y="405.386" transform="matrix(-0.7071 -0.7071 0.7071 -0.7071 768.6528 1131.6755)" fill="#8F9294" width="2.518" height="2.518"/>
						
							<rect x="605.633" y="393.574" transform="matrix(-0.7073 -0.7069 0.7069 -0.7073 756.9453 1102.8533)" fill="#8F9294" width="2.302" height="2.302"/>
						
							<rect x="593.822" y="381.762" transform="matrix(-0.7071 -0.7071 0.7071 -0.7071 744.813 1074.121)" fill="#8F9294" width="2.085" height="2.085"/>
						
							<rect x="582.011" y="369.951" transform="matrix(-0.7071 -0.7071 0.7071 -0.7071 732.8944 1045.3453)" fill="#8F9294" width="1.869" height="1.869"/>
					</g>
				</g>
				<g>
					<g>
						
							<rect x="702.281" y="509.536" transform="matrix(-0.7071 -0.7071 0.7071 -0.7071 840.6967 1371.5483)" fill="#8F9294" width="4.248" height="4.248"/>
						
							<rect x="690.47" y="497.725" transform="matrix(-0.7071 -0.7071 0.7071 -0.7071 828.7764 1342.7719)" fill="#8F9294" width="4.031" height="4.032"/>
						
							<rect x="678.658" y="485.913" transform="matrix(-0.7072 -0.707 0.707 -0.7072 817.006 1313.97)" fill="#8F9294" width="3.815" height="3.816"/>
						
							<rect x="666.846" y="474.102" transform="matrix(-0.7071 -0.7071 0.7071 -0.7071 804.9362 1285.2183)" fill="#8F9294" width="3.599" height="3.599"/>
						
							<rect x="655.034" y="462.289" transform="matrix(-0.7071 -0.7071 0.7071 -0.7071 793.0166 1256.4402)" fill="#8F9294" width="3.384" height="3.383"/>
						
							<rect x="643.222" y="450.478" transform="matrix(-0.7071 -0.7071 0.7071 -0.7071 781.0963 1227.6637)" fill="#8F9294" width="3.167" height="3.167"/>
						
							<rect x="631.412" y="438.667" transform="matrix(-0.7071 -0.7071 0.7071 -0.7071 769.1781 1198.8872)" fill="#8F9294" width="2.95" height="2.95"/>
						
							<rect x="619.6" y="426.855" transform="matrix(-0.7071 -0.7071 0.7071 -0.7071 757.2578 1170.1108)" fill="#8F9294" width="2.733" height="2.734"/>
						
							<rect x="607.788" y="415.043" transform="matrix(-0.7071 -0.7071 0.7071 -0.7071 745.3383 1141.3328)" fill="#8F9294" width="2.518" height="2.518"/>
						
							<rect x="595.977" y="403.232" transform="matrix(-0.7071 -0.7071 0.7071 -0.7071 733.418 1112.5563)" fill="#8F9294" width="2.301" height="2.302"/>
						
							<rect x="584.164" y="391.42" transform="matrix(-0.7071 -0.7071 0.7071 -0.7071 721.498 1083.7791)" fill="#8F9294" width="2.085" height="2.085"/>
						
							<rect x="572.352" y="379.608" transform="matrix(-0.7068 -0.7074 0.7074 -0.7068 709.329 1055.0521)" fill="#8F9294" width="1.869" height="1.869"/>
					</g>
				</g>
				<g>
					<g>
						
							<rect x="692.623" y="519.194" transform="matrix(-0.7072 -0.707 0.707 -0.7072 817.5195 1381.1865)" fill="#8F9294" width="4.249" height="4.249"/>
						
							<rect x="680.812" y="507.382" transform="matrix(-0.707 -0.7072 0.7072 -0.707 805.3174 1352.4501)" fill="#8F9294" width="4.032" height="4.031"/>
						
							<rect x="669.001" y="495.571" transform="matrix(-0.707 -0.7072 0.7072 -0.707 793.392 1323.6748)" fill="#8F9294" width="3.815" height="3.815"/>
						
							<rect x="657.189" y="483.759" transform="matrix(-0.7071 -0.7071 0.7071 -0.7071 781.6216 1294.8755)" fill="#8F9294" width="3.599" height="3.599"/>
						
							<rect x="645.377" y="471.948" transform="matrix(-0.7071 -0.7071 0.7071 -0.7071 769.7013 1266.099)" fill="#8F9294" width="3.382" height="3.383"/>
						
							<rect x="633.565" y="460.135" transform="matrix(-0.7071 -0.7071 0.7071 -0.7071 757.7817 1237.321)" fill="#8F9294" width="3.167" height="3.167"/>
						
							<rect x="621.754" y="448.324" transform="matrix(-0.7071 -0.7071 0.7071 -0.7071 745.8615 1208.5446)" fill="#8F9294" width="2.95" height="2.951"/>
						
							<rect x="609.941" y="436.512" transform="matrix(-0.7071 -0.7071 0.7071 -0.7071 733.9415 1179.7673)" fill="#8F9294" width="2.735" height="2.734"/>
						
							<rect x="598.13" y="424.701" transform="matrix(-0.7071 -0.7071 0.7071 -0.7071 722.0213 1150.991)" fill="#8F9294" width="2.518" height="2.518"/>
						
							<rect x="586.318" y="412.889" transform="matrix(-0.7071 -0.7071 0.7071 -0.7071 710.1017 1122.2129)" fill="#8F9294" width="2.302" height="2.302"/>
						
							<rect x="574.507" y="401.078" transform="matrix(-0.7069 -0.7073 0.7073 -0.7069 697.9542 1093.4778)" fill="#8F9294" width="2.085" height="2.085"/>
						
							<rect x="562.696" y="389.266" transform="matrix(-0.7071 -0.7071 0.7071 -0.7071 686.2632 1064.6599)" fill="#8F9294" width="1.869" height="1.869"/>
					</g>
				</g>
				<g>
					<g>
						
							<rect x="682.966" y="528.852" transform="matrix(-0.7071 -0.7071 0.7071 -0.7071 794.0651 1390.8636)" fill="#8F9294" width="4.248" height="4.248"/>
						
							<rect x="671.154" y="517.04" transform="matrix(-0.7072 -0.707 0.707 -0.7072 782.2895 1362.0677)" fill="#8F9294" width="4.032" height="4.032"/>
						
							<rect x="659.342" y="505.228" transform="matrix(-0.7072 -0.707 0.707 -0.7072 770.3744 1333.2903)" fill="#8F9294" width="3.815" height="3.816"/>
						
							<rect x="647.53" y="493.416" transform="matrix(-0.7072 -0.707 0.707 -0.7072 758.4603 1304.5118)" fill="#8F9294" width="3.6" height="3.6"/>
						
							<rect x="635.72" y="481.605" transform="matrix(-0.707 -0.7073 0.7073 -0.707 746.225 1275.7784)" fill="#8F9294" width="3.383" height="3.382"/>
						
							<rect x="623.908" y="469.793" transform="matrix(-0.7071 -0.7071 0.7071 -0.7071 734.4668 1246.979)" fill="#8F9294" width="3.167" height="3.166"/>
						
							<rect x="612.096" y="457.982" transform="matrix(-0.7071 -0.7071 0.7071 -0.7071 722.5465 1218.2026)" fill="#8F9294" width="2.95" height="2.95"/>
						
							<rect x="600.284" y="446.17" transform="matrix(-0.7071 -0.7071 0.7071 -0.7071 710.6266 1189.4254)" fill="#8F9294" width="2.735" height="2.735"/>
						
							<rect x="588.473" y="434.358" transform="matrix(-0.7071 -0.7071 0.7071 -0.7071 698.7067 1160.6482)" fill="#8F9294" width="2.518" height="2.518"/>
						
							<rect x="576.661" y="422.547" transform="matrix(-0.7073 -0.7069 0.7069 -0.7073 686.9988 1131.839)" fill="#8F9294" width="2.302" height="2.302"/>
						
							<rect x="564.849" y="410.735" transform="matrix(-0.7071 -0.7071 0.7071 -0.7071 674.8668 1103.0936)" fill="#8F9294" width="2.085" height="2.085"/>
						
							<rect x="553.037" y="398.923" transform="matrix(-0.7074 -0.7068 0.7068 -0.7074 663.1957 1074.277)" fill="#8F9294" width="1.869" height="1.87"/>
					</g>
				</g>
				<g>
					<g>
						
							<rect x="673.309" y="538.509" transform="matrix(-0.7071 -0.7071 0.7071 -0.7071 770.7505 1400.5209)" fill="#8F9294" width="4.248" height="4.248"/>
						
							<rect x="661.497" y="526.698" transform="matrix(-0.707 -0.7072 0.7072 -0.707 758.6859 1371.7609)" fill="#8F9294" width="4.032" height="4.031"/>
						
							<rect x="649.685" y="514.886" transform="matrix(-0.7071 -0.7071 0.7071 -0.7071 746.9103 1342.9673)" fill="#8F9294" width="3.816" height="3.815"/>
						
							<rect x="637.873" y="503.074" transform="matrix(-0.7071 -0.7071 0.7071 -0.7071 734.99 1314.1909)" fill="#8F9294" width="3.599" height="3.599"/>
						
							<rect x="626.061" y="491.262" transform="matrix(-0.7071 -0.7071 0.7071 -0.7071 723.0704 1285.4128)" fill="#8F9294" width="3.384" height="3.383"/>
						
							<rect x="614.25" y="479.451" transform="matrix(-0.7071 -0.7071 0.7071 -0.7071 711.1501 1256.6364)" fill="#8F9294" width="3.167" height="3.167"/>
						
							<rect x="602.438" y="467.639" transform="matrix(-0.7073 -0.7069 0.7069 -0.7073 699.4078 1227.8368)" fill="#8F9294" width="2.951" height="2.951"/>
						
							<rect x="590.628" y="455.828" transform="matrix(-0.7071 -0.7071 0.7071 -0.7071 687.3116 1199.0835)" fill="#8F9294" width="2.733" height="2.734"/>
						
							<rect x="578.815" y="444.016" transform="matrix(-0.7071 -0.7071 0.7071 -0.7071 675.3921 1170.3054)" fill="#8F9294" width="2.518" height="2.518"/>
						
							<rect x="567.004" y="432.205" transform="matrix(-0.7069 -0.7073 0.7073 -0.7069 663.2594 1141.5576)" fill="#8F9294" width="2.302" height="2.301"/>
						
							<rect x="555.192" y="420.393" transform="matrix(-0.7071 -0.7071 0.7071 -0.7071 651.5515 1112.7526)" fill="#8F9294" width="2.085" height="2.085"/>
						
							<rect x="543.38" y="408.581" transform="matrix(-0.7071 -0.7071 0.7071 -0.7071 639.6316 1083.9753)" fill="#8F9294" width="1.869" height="1.869"/>
					</g>
				</g>
				<g>
					<g>
						
							<rect x="663.65" y="548.167" transform="matrix(-0.7071 -0.7071 0.7071 -0.7071 747.4335 1410.1791)" fill="#8F9294" width="4.248" height="4.248"/>
						
							<rect x="651.839" y="536.355" transform="matrix(-0.7072 -0.707 0.707 -0.7072 735.658 1381.3879)" fill="#8F9294" width="4.032" height="4.032"/>
						
							<rect x="640.028" y="524.544" transform="matrix(-0.707 -0.7072 0.7072 -0.707 723.4458 1352.6401)" fill="#8F9294" width="3.815" height="3.815"/>
						
							<rect x="628.216" y="512.732" transform="matrix(-0.7071 -0.7071 0.7071 -0.7071 711.6754 1323.8481)" fill="#8F9294" width="3.599" height="3.599"/>
						
							<rect x="616.405" y="500.92" transform="matrix(-0.7071 -0.7071 0.7071 -0.7071 699.7551 1295.0717)" fill="#8F9294" width="3.382" height="3.383"/>
						
							<rect x="604.593" y="489.108" transform="matrix(-0.7073 -0.707 0.707 -0.7073 688.0044 1266.2766)" fill="#8F9294" width="3.166" height="3.167"/>
						
							<rect x="592.781" y="477.297" transform="matrix(-0.7069 -0.7073 0.7073 -0.7069 675.7377 1237.5363)" fill="#8F9294" width="2.951" height="2.95"/>
						
							<rect x="580.969" y="465.485" transform="matrix(-0.7071 -0.7071 0.7071 -0.7071 663.9954 1208.74)" fill="#8F9294" width="2.735" height="2.734"/>
						
							<rect x="569.157" y="453.674" transform="matrix(-0.7071 -0.7071 0.7071 -0.7071 652.0751 1179.9636)" fill="#8F9294" width="2.518" height="2.518"/>
						
							<rect x="557.345" y="441.862" transform="matrix(-0.7073 -0.7069 0.7069 -0.7073 640.3676 1151.1619)" fill="#8F9294" width="2.302" height="2.302"/>
						
							<rect x="545.535" y="430.05" transform="matrix(-0.7069 -0.7073 0.7073 -0.7069 628.0081 1122.4368)" fill="#8F9294" width="2.085" height="2.085"/>
						
							<rect x="533.723" y="418.239" transform="matrix(-0.7071 -0.7071 0.7071 -0.7071 616.317 1093.6326)" fill="#8F9294" width="1.869" height="1.869"/>
					</g>
				</g>
				<g>
					<g>
						
							<rect x="653.993" y="557.824" transform="matrix(-0.7071 -0.7071 0.7071 -0.7071 724.1189 1419.8364)" fill="#8F9294" width="4.248" height="4.248"/>
						
							<rect x="642.182" y="546.013" transform="matrix(-0.7071 -0.7071 0.7071 -0.7071 712.1986 1391.0599)" fill="#8F9294" width="4.031" height="4.032"/>
						
							<rect x="630.37" y="534.201" transform="matrix(-0.7072 -0.707 0.707 -0.7072 700.4282 1362.2704)" fill="#8F9294" width="3.815" height="3.816"/>
						
							<rect x="618.558" y="522.389" transform="matrix(-0.707 -0.7072 0.7072 -0.707 688.2035 1333.5186)" fill="#8F9294" width="3.6" height="3.599"/>
						
							<rect x="606.746" y="510.578" transform="matrix(-0.7071 -0.7071 0.7071 -0.7071 676.4388 1304.7283)" fill="#8F9294" width="3.384" height="3.383"/>
						
							<rect x="594.935" y="498.767" transform="matrix(-0.707 -0.7073 0.7073 -0.707 664.3511 1275.9673)" fill="#8F9294" width="3.166" height="3.166"/>
						
							<rect x="583.124" y="486.955" transform="matrix(-0.7071 -0.7071 0.7071 -0.7071 652.6003 1247.1753)" fill="#8F9294" width="2.95" height="2.95"/>
						
							<rect x="571.312" y="475.143" transform="matrix(-0.7069 -0.7073 0.7073 -0.7069 640.4932 1218.4152)" fill="#8F9294" width="2.734" height="2.734"/>
						
							<rect x="559.5" y="463.331" transform="matrix(-0.7071 -0.7071 0.7071 -0.7071 628.7605 1189.6208)" fill="#8F9294" width="2.518" height="2.518"/>
						
							<rect x="547.688" y="451.52" transform="matrix(-0.7071 -0.7071 0.7071 -0.7071 616.8402 1160.8444)" fill="#8F9294" width="2.301" height="2.302"/>
						
							<rect x="535.877" y="439.708" transform="matrix(-0.7073 -0.7069 0.7069 -0.7073 605.1492 1132.0447)" fill="#8F9294" width="2.085" height="2.085"/>
						
							<rect x="524.064" y="427.896" transform="matrix(-0.7068 -0.7074 0.7074 -0.7068 592.7513 1103.3151)" fill="#8F9294" width="1.869" height="1.869"/>
					</g>
				</g>
				<g>
					<g>
						
							<rect x="644.335" y="567.482" transform="matrix(-0.7072 -0.707 0.707 -0.7072 700.9418 1429.4857)" fill="#8F9294" width="4.249" height="4.249"/>
						
							<rect x="632.524" y="555.67" transform="matrix(-0.707 -0.7072 0.7072 -0.707 688.7397 1400.7264)" fill="#8F9294" width="4.032" height="4.031"/>
						
							<rect x="620.712" y="543.859" transform="matrix(-0.7071 -0.7071 0.7071 -0.7071 676.9637 1371.9408)" fill="#8F9294" width="3.816" height="3.816"/>
						
							<rect x="608.901" y="532.047" transform="matrix(-0.7071 -0.7071 0.7071 -0.7071 665.0438 1343.1636)" fill="#8F9294" width="3.599" height="3.599"/>
						
							<rect x="597.089" y="520.236" transform="matrix(-0.7071 -0.7071 0.7071 -0.7071 653.1235 1314.3871)" fill="#8F9294" width="3.382" height="3.383"/>
						
							<rect x="585.277" y="508.423" transform="matrix(-0.7071 -0.7071 0.7071 -0.7071 641.204 1285.609)" fill="#8F9294" width="3.167" height="3.167"/>
						
							<rect x="573.465" y="496.612" transform="matrix(-0.7073 -0.7069 0.7069 -0.7073 629.4614 1256.8198)" fill="#8F9294" width="2.951" height="2.951"/>
						
							<rect x="561.654" y="484.8" transform="matrix(-0.7073 -0.7069 0.7069 -0.7073 617.5511 1228.0416)" fill="#8F9294" width="2.734" height="2.735"/>
						
							<rect x="549.842" y="472.989" transform="matrix(-0.7071 -0.7071 0.7071 -0.7071 605.4435 1199.2791)" fill="#8F9294" width="2.518" height="2.518"/>
						
							<rect x="538.031" y="461.177" transform="matrix(-0.7069 -0.7073 0.7073 -0.7069 593.3132 1170.5179)" fill="#8F9294" width="2.302" height="2.301"/>
						
							<rect x="526.219" y="449.366" transform="matrix(-0.7071 -0.7071 0.7071 -0.7071 581.6053 1141.7252)" fill="#8F9294" width="2.085" height="2.085"/>
						
							<rect x="514.408" y="437.554" transform="matrix(-0.7071 -0.7071 0.7071 -0.7071 569.6854 1112.948)" fill="#8F9294" width="1.869" height="1.869"/>
					</g>
				</g>
				<g>
					<g>
						
							<rect x="634.678" y="577.14" transform="matrix(-0.7071 -0.7071 0.7071 -0.7071 677.4873 1439.1517)" fill="#8F9294" width="4.248" height="4.248"/>
						
							<rect x="622.866" y="565.328" transform="matrix(-0.7072 -0.707 0.707 -0.7072 665.7114 1410.3684)" fill="#8F9294" width="4.032" height="4.033"/>
						
							<rect x="611.054" y="553.516" transform="matrix(-0.7071 -0.7071 0.7071 -0.7071 653.6475 1381.5973)" fill="#8F9294" width="3.816" height="3.816"/>
						
							<rect x="599.242" y="541.704" transform="matrix(-0.7072 -0.707 0.707 -0.7072 641.8829 1352.8123)" fill="#8F9294" width="3.6" height="3.6"/>
						
							<rect x="587.432" y="529.893" transform="matrix(-0.7071 -0.7071 0.7071 -0.7071 629.809 1324.0444)" fill="#8F9294" width="3.382" height="3.383"/>
						
							<rect x="575.62" y="518.082" transform="matrix(-0.7071 -0.7071 0.7071 -0.7071 617.8887 1295.2679)" fill="#8F9294" width="3.167" height="3.167"/>
						
							<rect x="563.808" y="506.27" transform="matrix(-0.7069 -0.7073 0.7073 -0.7069 605.7915 1266.4994)" fill="#8F9294" width="2.951" height="2.95"/>
						
							<rect x="551.996" y="494.458" transform="matrix(-0.7071 -0.7071 0.7071 -0.7071 594.0492 1237.7126)" fill="#8F9294" width="2.735" height="2.734"/>
						
							<rect x="540.185" y="482.646" transform="matrix(-0.7071 -0.7071 0.7071 -0.7071 582.1289 1208.9363)" fill="#8F9294" width="2.518" height="2.518"/>
						
							<rect x="528.373" y="470.835" transform="matrix(-0.7073 -0.7069 0.7069 -0.7073 570.4214 1180.1467)" fill="#8F9294" width="2.302" height="2.302"/>
						
							<rect x="516.561" y="459.023" transform="matrix(-0.7071 -0.7071 0.7071 -0.7071 558.2891 1151.3817)" fill="#8F9294" width="2.085" height="2.085"/>
						
							<rect x="504.749" y="447.211" transform="matrix(-0.7074 -0.7068 0.7068 -0.7074 546.6183 1122.5895)" fill="#8F9294" width="1.869" height="1.869"/>
					</g>
				</g>
				<g>
					<g>
						
							<rect x="625.02" y="586.797" transform="matrix(-0.7071 -0.7071 0.7071 -0.7071 654.1727 1448.809)" fill="#8F9294" width="4.248" height="4.248"/>
						
							<rect x="613.209" y="574.985" transform="matrix(-0.7071 -0.7071 0.7071 -0.7071 642.2524 1420.0326)" fill="#8F9294" width="4.031" height="4.032"/>
						
							<rect x="601.397" y="563.174" transform="matrix(-0.7071 -0.7071 0.7071 -0.7071 630.3325 1391.2554)" fill="#8F9294" width="3.816" height="3.815"/>
						
							<rect x="589.585" y="551.363" transform="matrix(-0.7071 -0.7071 0.7071 -0.7071 618.4122 1362.479)" fill="#8F9294" width="3.599" height="3.599"/>
						
							<rect x="577.773" y="539.55" transform="matrix(-0.7071 -0.7071 0.7071 -0.7071 606.4927 1333.7009)" fill="#8F9294" width="3.384" height="3.383"/>
						
							<rect x="565.962" y="527.739" transform="matrix(-0.7071 -0.7071 0.7071 -0.7071 594.5724 1304.9244)" fill="#8F9294" width="3.167" height="3.167"/>
						
							<rect x="554.15" y="515.927" transform="matrix(-0.7073 -0.7069 0.7069 -0.7073 582.8301 1276.1409)" fill="#8F9294" width="2.951" height="2.951"/>
						
							<rect x="542.339" y="504.116" transform="matrix(-0.7071 -0.7071 0.7071 -0.7071 570.7339 1247.3716)" fill="#8F9294" width="2.733" height="2.734"/>
						
							<rect x="530.527" y="492.304" transform="matrix(-0.7071 -0.7071 0.7071 -0.7071 558.8143 1218.5935)" fill="#8F9294" width="2.518" height="2.518"/>
						
							<rect x="518.716" y="480.492" transform="matrix(-0.7071 -0.7071 0.7071 -0.7071 546.894 1189.817)" fill="#8F9294" width="2.301" height="2.302"/>
						
							<rect x="506.904" y="468.681" transform="matrix(-0.7071 -0.7071 0.7071 -0.7071 534.9741 1161.0398)" fill="#8F9294" width="2.085" height="2.085"/>
						
							<rect x="495.092" y="456.869" transform="matrix(-0.7071 -0.7071 0.7071 -0.7071 523.0538 1132.2634)" fill="#8F9294" width="1.869" height="1.869"/>
					</g>
				</g>
			</g>
		</g>
	</g>
</g>
</svg>
